<svg xmlns="http://www.w3.org/2000/svg" xmlns:xlink="http://www.w3.org/1999/xlink" width="1042" height="687.03" viewBox="0 0 1042 687.03"><defs><clipPath id="a"><rect width="1042" height="687.03" fill="none"/></clipPath><clipPath id="c"><rect width="13.489" height="20.394" transform="translate(281.467 399.402)" fill="none"/></clipPath><clipPath id="d"><rect width="11.942" height="20.387" transform="translate(310.667 438.35)" fill="none"/></clipPath><clipPath id="e"><rect width="34.79" height="27.025" transform="translate(279.461 445.225)" fill="none"/></clipPath><clipPath id="f"><rect width="9.439" height="3.593" transform="translate(267.271 409.961)" fill="none"/></clipPath><clipPath id="g"><rect width="12.105" height="6.125" transform="translate(295.424 419.138)" fill="none"/></clipPath><clipPath id="h"><path d="M357.9,214.84c-12.98,5.54-19.185,18.348-21.878,32.159a109.767,109.767,0,0,0-1.811,21.042v0a156.709,156.709,0,0,0,2.511,27.377c13.554-14.268,22.467-26.218,28.11-36.18,5.581-9.85,7.969-17.759,8.49-24.052.764-9.2-2.462-14.952-5.514-18.26a8.737,8.737,0,0,0-6.428-2.8,8.835,8.835,0,0,0-3.48.714" fill="none"/></clipPath><clipPath id="i"><path d="M257.54,180.291c-10.972,12.495-7.841,28.854,1.292,45.175v0c8.283,14.806,21.5,29.576,33.611,41.406a342.331,342.331,0,0,0,28.4,24.867c-3.325-27.229-8.049-47.935-13.435-63.656C298.993,203.5,288.951,191.1,280.094,185c-6.547-4.509-12.447-5.578-16.569-5.578a18.289,18.289,0,0,0-5.985.867" fill="none"/></clipPath><clipPath id="k"><path d="M242.316,307.112a27.358,27.358,0,0,0-12.434,13.013,4.6,4.6,0,0,0,.681,4.875,33.036,33.036,0,0,0,4.143,4.073,34.767,34.767,0,0,0,8.352,5.106c7.41,3.2,17.9,4.668,31.858-.042,11.2-3.776,24.634-11.53,40.513-25.558a178.827,178.827,0,0,0-21.145-4.914,154.925,154.925,0,0,0-17.848-2.067c-2.024-.108-4.063-.167-6.1-.167-10.105,0-20.149,1.456-28.02,5.681" fill="none"/></clipPath><clipPath id="m"><path d="M383.566,244.537a126.545,126.545,0,0,0-21.915,22.7l0,0-.005.008c-13.781,18.279-19.152,34.9-19.2,35.037.386-.135,49.78-17.575,90.178-44.507q1.975-1.319,3.744-2.583l0,0c10.547-7.547,15.7-13.716,17.747-18.658,4.772-11.511-7.316-16.346-7.316-16.346-27.011,1.9-47.7,11.92-63.237,24.348" fill="none"/></clipPath></defs><g clip-path="url(#a)"><g clip-path="url(#a)"><path d="M603.955,63.245V6.993a6.137,6.137,0,0,1,1.759-4.247A5.994,5.994,0,0,1,609.963.985H997.426a6.01,6.01,0,0,1,6.01,6.008V272.169a6.009,6.009,0,0,1-6.01,6.008H609.963a6.007,6.007,0,0,1-6.008-6.008V114.419c-1.823,1.761-3.823,3.53-6.014,5.27a85.374,85.374,0,0,1-36.509,16.689,98.65,98.65,0,0,0,23.922-23.226,101.464,101.464,0,0,0,18.6-49.907" fill="#ceadf2"/><rect width="36.16" height="36.16" transform="translate(678.605 52.167)" fill="#f5f7ff"/><rect width="36.16" height="36.16" transform="translate(625.49 52.167)" fill="#f8e8c0"/><rect width="46.501" height="46.501" transform="translate(933.988 188.487)" fill="#f5f7ff"/><line y2="231.822" transform="translate(735.42 23.517)" fill="none" stroke="#fff" stroke-linecap="round" stroke-miterlimit="10" stroke-width="1.673"/><line y2="231.822" transform="translate(871.344 23.517)" fill="none" stroke="#fff" stroke-linecap="round" stroke-miterlimit="10" stroke-width="1.673"/><path d="M631.007,130.329H709.04a5.621,5.621,0,0,0,5.621-5.621v-.135a5.621,5.621,0,0,0-5.621-5.621H631.007a5.622,5.622,0,0,0-5.621,5.621v.135a5.622,5.622,0,0,0,5.621,5.621" fill="#f5f7ff"/><path d="M631.007,152.495H709.04a5.621,5.621,0,0,0,5.621-5.621v-.135a5.621,5.621,0,0,0-5.621-5.621H631.007a5.622,5.622,0,0,0-5.621,5.621v.135a5.622,5.622,0,0,0,5.621,5.621" fill="#f5f7ff"/><path d="M776.155,130.975h76.592a5.689,5.689,0,1,0,0-11.377H776.155a5.689,5.689,0,0,0,0,11.377" fill="#f5f7ff"/><path d="M776.155,108.391h76.592a5.688,5.688,0,1,0,0-11.377H776.155a5.688,5.688,0,0,0,0,11.377" fill="#f5f7ff"/><path d="M754.106,81.624h98.641a5.688,5.688,0,1,0,0-11.377H754.106a5.688,5.688,0,0,0,0,11.377" fill="#f5f7ff"/><path d="M631.075,225.372h27.934a5.688,5.688,0,1,0,0-11.377H631.075a5.688,5.688,0,0,0,0,11.377" fill="#f8e8c0"/><path d="M910.48,130.975h76.592a5.689,5.689,0,1,0,0-11.377H910.48a5.689,5.689,0,0,0,0,11.377" fill="#f5f7ff"/><path d="M910.48,108.391h76.592a5.688,5.688,0,1,0,0-11.377H910.48a5.688,5.688,0,0,0,0,11.377" fill="#f5f7ff"/><path d="M888.431,81.624h98.641a5.688,5.688,0,1,0,0-11.377H888.431a5.688,5.688,0,0,0,0,11.377" fill="#f5f7ff"/><path d="M122.034,595.769c-1.908,17.252-4.55,41.114-17.982,58.371H5.266A5.265,5.265,0,0,1,0,648.873V479.5c.96-.413,2-.834,3.1-1.249,22.808-8.63,43.635-4.12,50.649-2.276a84.429,84.429,0,0,1,18.21,7.112c32.663,17.458,43.951,52.523,46.1,59.186,7.224,22.436,5.348,41.17,3.983,53.494" fill="#ceadf2"/><path d="M331.855,354.494V648.873a5.266,5.266,0,0,1-5.267,5.267H104.053c13.431-17.257,16.073-41.119,17.981-58.371,1.365-12.324,3.241-31.059-3.983-53.494-2.145-6.663-13.434-41.728-46.1-59.186a84.43,84.43,0,0,0-18.211-7.113C46.73,474.132,25.9,469.623,3.1,478.252c-1.1.415-2.135.837-3.1,1.25V354.494a5.266,5.266,0,0,1,5.267-5.264H326.588a5.265,5.265,0,0,1,5.267,5.264" fill="#dac1f5"/><path d="M67.118,391.894a26.32,26.32,0,1,1-26.32-26.32,26.32,26.32,0,0,1,26.32,26.32" fill="#fff"/><path d="M40.894,386.637c1.18,0,2.36,0,3.539,0,4.959.012,8.361,2.853,9.276,7.731.2,1.075.032,2.065-1.082,2.438-1.544.516-3.116.63-4.28-.88-.925-1.2-1.015-3.325-2.9-3.44a75.774,75.774,0,0,0-9.411.059c-1.265.081-1.78,1.468-2.228,2.55-.737,1.779-2.111,2.216-3.824,1.974-1.808-.256-2.6-1.176-1.947-3.074,1.993-5.747,4.266-7.358,10.492-7.358h2.36" fill="#781ddb"/><path d="M777.6,561l-4,89.921s-157.569,1.505-157.911.467c-9.406-28.577-12.949-36.557-16.184-44.316-2.232-5.352-4.318-10.6-8.079-22.425-8.865-27.873,16.652-34.637,28.641-34.637H747.955Z" fill="#4c148b"/><path d="M638.816,549.885c-1.247,16.992-8.528,43.046-39.269,57.061-2.232-5.351-4.318-10.6-8.079-22.424-8.866-27.874,16.652-34.637,28.641-34.637Z" fill="#6219b3"/><path d="M717.986,543.214a17,17,0,0,0-7.613-.771c-10.523,1.166-21.617,1.665-25.146,13.82a72.609,72.609,0,0,0-2.017,11.291q-.21,1.813-.4,3.7a107.754,107.754,0,0,0-9.466-9.886c.671-12.91,3.946-14.246,6.28-17.055,6.151-7.412,17.642-8.661,27.258-8.963l7.338,5.707,7.433-5.006c-3.712,2.782-7.6,4.879-7.433,5.006.328.246,2.821,1.149,3.763,2.152" fill="#fde7b2"/><path d="M720.48,546.275c-.6-.077-1.913-1.281-2.5-1.335a47.714,47.714,0,0,0-5.488-.212h0q-1.938.045-3.706.259h-.005l-.005,0a27.11,27.11,0,0,0-11.949,4.191h0q-.741.25-1.515.523c-6.255,2.185-9.7,10.253-11.6,18.3-.273,1.162-.516,2.323-.728,3.466l-.173-.212c.125-1.258.257-2.5.4-3.7a72.529,72.529,0,0,1,2.017-11.292c3.528-12.155,14.622-12.654,25.145-13.82a17.025,17.025,0,0,1,7.613.771c.864.922,1.655,1.786,1.768,1.91.008.01.726,1.152.726,1.152" fill="#fc8f81"/><path d="M926.388,522.257c-.165.2-.331.411-.5.62q-.506.622-1.028,1.262-.26.318-.527.64c-.158.194-.32.388-.483.584q-.484.587-.985,1.184-.285.342-.578.69l-.437.518q-1.674,1.981-3.506,4.083l-.593.678-.879,1q-.562.636-1.138,1.283-2.994,3.355-6.385,6.995l-.684.73c-.23.245-.459.491-.693.737q-.695.74-1.408,1.489-.357.376-.718.753t-.725.76c-32.81,34.226-119.644,16.811-119.644,16.811s-6.033-1.142-26.414-12.066c-6.723-3.6-10.082-7.174-11.564-10.342-.492-2.9-.62-5.239-.013-6.126,2.12-3.1,9.294-20.219,7.174-20.708a2.1,2.1,0,0,0-.965.3,5.616,5.616,0,0,0,1.454-1.273c1.142-1.631,12.066-45.981,12.066-45.981l-.005.009c-.461.676-31.232,45.62-86.575,42.222,0,0-6.848,1.3-2.609,2.772s5.707-.164,7.664,2.445,2.608.163,8.641,10.436,12.555,10.6,12.555,10.6c-9.617.3-21.107,1.551-27.259,8.963-2.333,2.809-5.609,4.145-6.279,17.055-3.054-2.863-6.773-6.144-11.3-9.876-12.214-10.068-15.739-21.849-16.243-31.029q1.2-2.25,2.547-4.353c5.544-8.642,17.446-18.262,24.131-20.871S697.917,471.6,697.917,471.6s24.887-22.061,46.152-37.482c9.118,2.553,24.05,2.98,48.46-1.949,25.252-5.1,59.219-2.891,84.415-.564,10.39.959,19.289,1.937,25.469,2.431,6.8.543,13.68,1.422,21,2.084,2.936.266,5.943.5,9.042.655-15.114,22.257-13.194,45.343-9.977,60.879l0,0c.316,1.528.646,2.984.972,4.358-.021-.058-.033-.088-.033-.088-.284,5.652.979,12.842,2.971,20.328" fill="#fc7791"/><path d="M674.122,584.461a146.4,146.4,0,0,1-12.076-16.985c-16.142-25.436-22.99-12.7-22.99-20.381a56.713,56.713,0,0,1,6.747-26.627c.5,9.18,4.029,20.961,16.243,31.029,4.528,3.732,8.248,7.013,11.3,9.876a174.738,174.738,0,0,0,.774,23.088" fill="#f95c7b"/><path d="M749.757,516.178c.344-.148.825-.364,1.365-.624-.427.259-.887.541-1.375.847v0c-.169.106-.344.215-.521.328-7.287,4.622-20.064,13.7-27.569,19.325l-7.434,5-7.337-5.707s-6.522-.326-12.555-10.6-6.685-7.826-8.642-10.435-3.424-.978-7.663-2.446,2.609-2.772,2.609-2.772c55.343,3.4,86.114-41.545,86.575-42.222-.28.577-16.83,34.583-17.453,49.3" fill="#f76581"/><path d="M946.571,421.219l-1.931,1.474a82.864,82.864,0,0,0-12.186,14.084c-3.1-.159-6.106-.389-9.043-.655-7.318-.662-14.2-1.541-21-2.084-6.179-.494-15.079-1.472-25.468-2.431-25.2-2.327-59.163-4.534-84.415.564-24.41,4.929-39.343,4.5-48.46,1.949,9.38-6.8,18.056-12.314,23.58-14.07,18.045-5.735,45.574-6.993,45.574-6.993s32.907-4.882,80.623-2.523,52.724,10.685,52.724,10.685" fill="#fd839a"/><path d="M767.214,466.873s-10.972,44.732-12.114,46.363c-.291.417-.777.472-1.406.891-.623.29-1.5.779-2.573,1.427-.54.26-1.058.718-1.4.866.623-14.714,17.21-48.962,17.49-49.539l.005-.008" fill="#f03a61"/><path d="M786.292,603.673c-.326,1.3-2.772.815-2.772.815s-3.261-2.772-4.239-2.609-2.508.995-1.5,2.7,6.227,5.78,6.553,6.106-1.467,1.957-2.445,1.631-1.794-1.957-4.077-.489c-2.163,1.39-7.254.732-19.572,37.694l-1.787-.03s12.718-45,13.7-46.795-1.468-2.935-2.609-5.055-.274-11.21-.652-11.74c-.318-.445-.639-.908-.962-1.394,5.159,4.427,20.637,18.076,20.365,19.167" fill="#f73b60"/><path d="M940.295,560.072c-1.715-3.838-4.231-9.674-6.8-16.365a217.926,217.926,0,0,1-7.106-21.45c-1.992-7.486-3.254-14.676-2.97-20.327,0,0,.011.029.032.088.323,1.356.643,2.634.946,3.825a65.95,65.95,0,0,0,4.854,12.8c1.2,2.449,2.469,4.787,3.716,7.059q.539,1.234,1.092,2.488c.17.385.343.769.516,1.156q.3.677.611,1.356.276.612.558,1.226c.106.229.21.459.316.687q.222.486.45.973.5,1.078,1.011,2.153.2.42.4.839c.134.281.269.56.4.838.024.049.047.1.07.146.257.529.515,1.058.774,1.583.38.769.763,1.534,1.147,2.289a26.46,26.46,0,0,1,1.038,6.315,94.521,94.521,0,0,1-1.058,12.325" fill="#e4133e"/><path d="M737.031,576.642c-.5,1.086-.954,2.153-1.285,3.063-1.3,3.587-6.2,4.4-15.816,5.869s-15.164-2.935-22.338-6.848c-3.289-1.793-10.1-7.428-14.381-11.172-.565,2.3-.423,5.211-.98,7.724-.32,3.393-.2,1.882-.394,4.408-.226,2.949-.265,3.208-.938,9.5-.183,2.382-.133,6.352-.054,11.032,6.184,7.151,16.391,16.1,29.163,16.8a14.934,14.934,0,0,0,5.846-.864V600.086c0-1.3,2.119-1.794,2.4-.815.149.525.292,8.169.444,15.578,8.387-4.718,14.837-16.234,19.09-26.17-.32-4.239-.491-8.684-.753-12.037M701.505,603.51a1.692,1.692,0,0,0-.53-.085c-1.735-.089-6.6.577-9.4.639a4.065,4.065,0,0,1-1.972-.228c-.978-.815-.326-4.076-.326-4.076,1.957-2.446,11.74-.951,11.74-.951s1.63,5.19.489,4.7" fill="#fdb5b0"/><path d="M693.426,628.035v0c-.474,1.449-1.4,3.181-3.008,2.377s-3.992-2.686-5.948-7.189v0c1.04-1.218,2.631-2.39,4.643-1.777,2.673.814,3.855,4.523,4.313,6.589" fill="#ffb7ac"/><path d="M716.343,634.919v0a19.2,19.2,0,0,1-.248,3.319c-.652,3.1-2.119,5.218-4.239,4.729a9.086,9.086,0,0,1-4.787-3.716c-.039-.062-.075-.124-.108-.184l.049-.123c2.1-5.3,3.2-5.252,5.009-6.086,1.242-.574,3.044.813,4.324,2.059" fill="#ffb7ac"/><path d="M736.724,573.672c-.815-5.707-5.218-10.6-10.272-20.218-2.833-5.389-6.123-7.607-8.471-8.513a47.276,47.276,0,0,0-5.488-.212h0q-1.938.043-3.707.259h-.005l0,0a27.11,27.11,0,0,0-11.949,4.19h0c-.495.168-1,.343-1.515.523-6.255,2.185-9.7,10.253-11.6,18.3q.5.442,1.008.894c.166.147.336.295.505.443,4.282,3.744,9.076,7.592,12.364,9.386,7.175,3.913,12.719,8.315,22.339,6.848s14.511-2.283,15.815-5.87c.331-.91.788-1.976,1.285-3.062-.088-1.132-.187-2.138-.306-2.971m-48.2-15.242a5.327,5.327,0,0,1,.349-.621c-.117.2-.235.412-.349.621" fill="#fbbdb4"/><path d="M688.87,557.809c-.117.2-.235.413-.349.621a5.409,5.409,0,0,1,.349-.621" fill="#fcbeb5"/><path d="M717.981,544.941a47.508,47.508,0,0,0-5.488-.212c1.182-.236,1.912-.344,2.219-.385l.166-.021a6.323,6.323,0,0,1,1.64.173,10.185,10.185,0,0,1,1.463.445" fill="#fcbeb5"/><path d="M741.779,610.358c-1.794.815-8.968-.978-10.435-4.728s0,10.6-1.631,16.631c-.96,3.553-1.751,8.18-3.238,11.717-.541-1.111-1.776-3.25-3.447-3.728-1.565-.447-2.977.256-4.026,1.794a20.927,20.927,0,0,0,.113-3.261c-.152-1.287-.289-7.522-.421-13.935,8.388-4.717,14.838-16.233,19.09-26.169a51.856,51.856,0,0,0,1.574,10.592c1.932,6.032,4.215,10.272,2.421,11.087" fill="#faa89d"/><path d="M726.475,633.978c-1.037,2.47-2.415,4.407-4.425,5.077-3.584,1.2-3.317-3.385-3.048-7.009v0c1.049-1.537,2.461-2.24,4.026-1.793,1.671.477,2.906,2.617,3.447,3.727" fill="#ffb7ac"/><path d="M701.505,603.51a1.692,1.692,0,0,0-.53-.085c-.057-.518-.2-1.19-.541-1.382-.584-.327-7.571-.327-8.223,0-.466.233-.6,1.385-.637,2.021a4.065,4.065,0,0,1-1.972-.228c-.978-.815-.326-4.076-.326-4.076,1.957-2.446,11.74-.951,11.74-.951s1.63,5.19.489,4.7" fill="#fde4a0"/><path d="M700.975,603.425c-1.735-.09-6.6.577-9.4.639.038-.636.172-1.789.638-2.022.652-.326,7.639-.326,8.223,0,.344.193.484.865.541,1.383" fill="#f6ab6a"/><path d="M717.274,590.567a25.428,25.428,0,0,0,0,7.79" fill="none" stroke="#e1897e" stroke-linecap="round" stroke-linejoin="round" stroke-width="1.304"/><path d="M730.806,586.048c-.359.26-.359,12.489.293,19.5" fill="none" stroke="#e1897e" stroke-linecap="round" stroke-linejoin="round" stroke-width="1.304"/><path d="M706.56,638.566s-2.773,4.4-6.686,1.141a13.222,13.222,0,0,1-3.077-4.428v0c.574-1.449,1.4-3.884,3.24-4.374,2.446-.653,5.544.652,5.708,2.119l1.1,5.086Z" fill="#fabab2"/><path d="M716.264,635.245c-1.28-1.246-3.082-2.633-4.324-2.059-1.808.834-2.876.577-4.98,5.883l-1.216-6.046c-.163-1.468-3.261-2.772-5.707-2.12-1.842.491-2.666,2.925-3.241,4.375a46.3,46.3,0,0,1-2.955-8.94,11.731,11.731,0,0,1-.416,1.7c-.458-2.066-1.64-5.775-4.312-6.589-2.012-.613-3.6.559-4.644,1.777a41.737,41.737,0,0,1-2.857-11.56,110.647,110.647,0,0,1-.768-11.448c6.185,7.151,16.392,16.1,29.164,16.8a14.932,14.932,0,0,0,5.845-.865v3.667c0,4.2.468,11.023.411,15.43" fill="#fca79d"/><path d="M688.948,590.067s-.981,24.974,4.652,36.15" fill="none" stroke="#e1897e" stroke-linecap="round" stroke-linejoin="round" stroke-width="1.304"/><path d="M702.681,590.067s-1.381,34.57,4.28,47.125" fill="none" stroke="#e1897e" stroke-linecap="round" stroke-linejoin="round" stroke-width="1.304"/><path d="M682.813,571.259c-.095.942-.187,1.9-.277,2.86a102.4,102.4,0,0,0-1.107,11.506l0,.01q-.117,1.074-.245,2.133v0q-.145.72-.283,1.412a1.568,1.568,0,0,1-.427-.347s-1,1.784-6.35-4.373v0a174.738,174.738,0,0,1-.774-23.088,107.714,107.714,0,0,1,9.465,9.886" fill="#fcd567"/><path d="M879.859,427.876s-56.973,72.446-61.458,88.3c0,0-9.455-12.119-9.342-77.561" fill="none" stroke="#fde7b2" stroke-miterlimit="10" stroke-width="2.12"/><path d="M823.283,527c0,6.32-2.768,11.443-6.182,11.443s-6.182-5.123-6.182-11.443,2.768-11.443,6.182-11.443,6.182,5.123,6.182,11.443" fill="#fdf3cc"/><path d="M933.494,543.706q-1.619,3.135-3.426,6.514-.257.482-.518.968-.523.972-1.062,1.962c-.169.313-.34.626-.513.942-.057.106-.116.212-.175.318q-.471.866-.959,1.742c-.322.587-.65,1.175-.981,1.769q-.648,1.159-1.314,2.338-.294.521-.592,1.045c-.2.349-.4.7-.6,1.05q-.606,1.063-1.231,2.143-.612,1.053-1.234,2.119l-.635,1.08c-.057.1-.114.2-.173.293q-.552.938-1.116,1.88l0,.005c-.217.362-.434.726-.654,1.089q-.656,1.1-1.329,2.2-.33.543-.665,1.091c-.08.129-.16.26-.24.392l-.453.735q-.34.555-.688,1.114-.693,1.115-1.4,2.237c-.235.375-.472.748-.71,1.123s-.494.781-.743,1.172c-.23.361-.46.721-.693,1.083s-.484.753-.729,1.13q-1.318,2.043-2.681,4.094-.327.495-.657.987c-.132.2-.265.4-.4.6-.21.314-.421.627-.634.942-.025.036-.049.074-.074.109q-1.441,2.137-2.931,4.281-.342.495-.69.989t-.694.988c-.159.225-.317.45-.477.675q-.318.45-.639.9c-.277.39-.556.778-.836,1.168s-.581.8-.873,1.208c-.238.329-.477.659-.717.986-.145.2-.292.4-.439.6q-.276.377-.556.754c-.15.2-.3.41-.453.614q-3.583,4.831-7.38,9.577-3.453,4.3-6.712,8.467c-4.173-7.986-8.213-13.031-8.81-13.4l-.015-.01-.751.112a.908.908,0,0,0-.08.181,5.94,5.94,0,0,0-.069,2.047s.065.244.191.7c.144.528.365,1.339.651,2.376.218.792.476,1.713.764,2.742q-.246-.467-.513-.937-.139-.248-.287-.494-.279-.476-.577-.953l-.005-.006c-.176-.282-.361-.566-.55-.848-.13-.2-.266-.4-.4-.6,0,0-11.739,1.956-15.652-.375-1.89-1.127-6.09-2.368-9.929-3.353-4.11-1.053-7.8-1.81-7.8-1.81l-.316-.019-6.729,8.691-.017.021c-.443.59-.751,1.007-.89,1.216-1.5,2.247-14.745,7.867-15.24,5.994a5.892,5.892,0,0,1,0-3.247s4.58-6.306,10.221-13.924a8.816,8.816,0,0,1-2.718-.731c-1.713-1.164-16.52,12.989-18.358,15.988s-2.838,3.662-4.836,4-6.939,2.778-4.495,9.408a4.743,4.743,0,0,0,2.5,2.332s-3.246,1.5-2.08,5.744,6.161,5.829,6.66,6.411a111,111,0,0,0,13.783,2.019l-13.781-.22-44.438-.711c12.319-36.962,17.409-36.3,19.573-37.694,2.282-1.468,3.1.163,4.076.489s2.772-1.3,2.446-1.631-5.544-4.4-6.553-6.106.52-2.536,1.5-2.7,4.239,2.609,4.239,2.609,2.446.489,2.772-.815c.273-1.091-15.206-14.74-20.365-19.167h0c-6.334-9.47-13.712-26-13.712-26a158.071,158.071,0,0,1-4.716-17.843c1.482,3.168,4.841,6.739,11.564,10.342,20.381,10.925,26.414,12.066,26.414,12.066s86.835,17.416,119.644-16.81c8.868-9.252,15.83-17.253,21.268-24.006a217.74,217.74,0,0,0,7.106,21.449" fill="#fd5f7f"/><path d="M940.295,560.072c-1.192,9.289-3.248,22.155-5.487,35.332-.14.818-.278,1.638-.419,2.458l-37.479,5.275c.152-.2.3-.409.454-.613.186-.251.371-.5.556-.755.146-.2.293-.4.438-.6q.36-.492.718-.986.438-.6.872-1.209.42-.583.836-1.167.321-.45.64-.9l.476-.675q.349-.493.694-.988c.232-.33.462-.659.69-.99q1.489-2.141,2.932-4.28l.073-.109c.214-.315.424-.628.634-.943.136-.2.269-.4.4-.6.221-.327.439-.657.658-.986q1.362-2.052,2.68-4.094.367-.566.729-1.13c.233-.362.463-.723.693-1.083.249-.391.5-.783.743-1.172s.477-.75.71-1.124q.707-1.122,1.4-2.237.348-.558.688-1.114c.153-.244.3-.49.453-.735q.12-.2.24-.391.335-.547.665-1.091.674-1.105,1.329-2.2c.22-.364.437-.727.654-1.089l0-.005q.564-.945,1.117-1.88c.058-.1.115-.2.172-.294l.635-1.079q.623-1.066,1.234-2.12.624-1.078,1.231-2.142c.2-.353.4-.7.6-1.05s.4-.7.592-1.046q.668-1.177,1.314-2.338.5-.89.982-1.769t.958-1.741c.059-.106.118-.212.175-.318.173-.316.344-.629.513-.943q.539-.99,1.062-1.961c.174-.325.347-.647.518-.969q1.806-3.372,3.426-6.513c2.57,6.691,5.086,12.527,6.8,16.365" fill="#fb385f"/><path d="M807,658.279c-.77-.323-1.4-.607-1.691-.771-.355-.2-.424-.423-.362-.631a12.582,12.582,0,0,0,2.053,1.4" fill="#fda9a3"/><path d="M810.474,659.587c-1.117-.365-2.425-.869-3.466-1.306a19.234,19.234,0,0,1,3.466,1.306" fill="#fda9a3"/><path d="M880.346,634.975,872.8,651.352l-.824,1.785-.036.005c-.117.01-.517.049-1.094.109.059-.179.529-.839,1.209-1.912a41.58,41.58,0,0,0,5.9-14.513q.206-1.1.339-2.249c.684-.274,1.266-.5,1.714-.672l.111-.042c-.007.114-.015.225-.023.328.083.262.165.523.248.784" fill="#fda9a3"/><path d="M874.7,615.926q-.249-.467-.515-.938c-.093-.164-.188-.329-.287-.494q-.276-.474-.577-.952l-.005-.006c-.177-.282-.36-.566-.548-.848-.132-.2-.267-.4-.4-.6,0,0-.125-.724.919-1.281.143.528.365,1.338.651,2.375.219.793.476,1.714.765,2.743" fill="#fa9688"/><path d="M874.7,615.926q-.249-.467-.515-.938c-.093-.164-.188-.329-.287-.494q-.276-.474-.577-.952l-.005-.006c-.175-.282-.36-.566-.548-.848-.132-.2-.267-.4-.4-.6a11.9,11.9,0,0,1,1.57,1.094c.219.793.476,1.714.765,2.743" fill="#fdb5ae"/><path d="M880.121,633.863c-.006.114-.015.225-.023.328-.055.794-.114,1.252-.114,1.252s-.732.5-2.027,1.383q.206-1.1.339-2.249c-2.219.884-5.493,2.252-8.64,3.8q2.575-3.449,5.322-7.052l1.06-1.388q.977-1.277,1.973-2.571l.429,1.428v.007c.509,1.684,1.034,3.4,1.57,5.1l.111-.042" fill="#fdb5ae"/><path d="M880.121,633.863c-.006.114-.015.225-.023.328l-.088-.286.111-.042" fill="#92212c"/><path d="M873.994,607.768c-.334.051-.589.088-.752.112.144-.247.377-.34.752-.112" fill="#92212c"/><path d="M915.053,648.443c-.031,0-.062,0-.095,0-.15-.005-.308-.01-.474-.017l-.254-.009-.54-.023-.232-.01-.1-.005c-.082,0-.165-.006-.25-.011l-.3-.015-.966-.049c-.186-.01-.373-.019-.566-.031-.154-.008-.311-.016-.471-.026-.236-.013-.479-.026-.725-.042l-.75-.046-.269-.016c-.085-.005-.168-.01-.253-.017-.171-.009-.344-.021-.517-.032-.253-.015-.509-.033-.766-.051a.439.439,0,0,1-.052,0l-.11-.008c-.1-.005-.2-.013-.3-.02l-.413-.027-.414-.03-.416-.029-.52-.039c-.138-.012-.279-.021-.419-.031l-.326-.025c-.566-.042-1.136-.088-1.705-.133-.31-.026-.622-.051-.931-.079-.049,0-.1-.006-.147-.011l-.277-.025-.349-.029c-.3-.026-.61-.054-.912-.081l-.416-.038-.414-.039-.411-.039c-.154-.015-.309-.029-.464-.046l-.7-.068-.046-.005-.748-.078-.388-.043-.038,0c-.059-.007-.119-.013-.178-.021s-.112-.012-.169-.018l-.043-.005c-.124-.015-.246-.028-.367-.041l-.031-.005c-.1-.011-.208-.023-.311-.036s-.183-.021-.274-.032l-.191-.023-.745-.093-.212-.028-.2-.026-.137-.018-.016,0-.039-.005c-.08-.011-.16-.021-.238-.033l-.395-.055-.231-.034c-.069-.012-.136-.021-.2-.031l-.147-.023c-.295-.046-.576-.091-.842-.139-.008-.05-.017-.1-.027-.151l23.336,1.981.094.008Z" fill="#fdaba0"/><path d="M996.59,589.235s-13.434,1.717-29.739,3.408c-2.064-2.881-11.355-16.607-24.357-47.054l0-.008-.005-.013c-.015-.026-.043-.075-.082-.148l-.269-.5c15.2,16.106,35.736,35.22,54.456,44.312" fill="#fc4a6d"/><path d="M889.531,405.031c-5.6,6.742-15.5,16.754-29.214,23.362-12.953,6.24-19.876,9.592-28.428,13.29-10.921,1.249-27.027,2.05-32.273-3.138-5.6-5.543,3.168-18.37,9.443-26.773.763-.817,1.5-1.58,2.185-2.278.381.236.812.5,1.3.8,4.239,2.609,2.88,4.825,2.283,5.381-7.011,6.522-7.011,9.946-7.011,9.946.489,6.685,4.891,6.033,10.109,6.2,3.152.1,6.124-1.528,8.056-2.832a85.976,85.976,0,0,0,9.814-2.622s23.359-6.739,38.382-22.917c.819-.882.812-2.216.816-3.75a15.107,15.107,0,0,1,9.52-5.232,11.814,11.814,0,0,1,2.056,2.134,17.647,17.647,0,0,1,2.963,8.433" fill="#fd7791"/><path d="M884.512,394.464a15.122,15.122,0,0,0-9.521,5.232c-.326-2.119-.815-4.891-.815-4.891s-43.7,5.707-56.416,24.457c0,0-8.967,8.968-2.949,10.724,3.307.965,7.52-.259,11.169-1-1.932,1.305-4.9,2.93-8.056,2.832-5.218-.163-9.62.49-10.11-6.2,0,0,0-3.424,7.012-9.946.6-.556,1.956-2.772-2.283-5.38-.488-.3-.918-.564-1.3-.8,2.8-2.83,4.827-4.587,4.827-4.587,43.076-21.786,61.865-15.853,68.442-10.443" fill="#fd5174"/><path d="M831.889,441.684c-4.7,2.03-9.894,4.166-16.851,6.943-.84.058-1.324.075-1.324.075-.623-1.213-11.28-.253-15.193-4.166-8.916-8.916,2.377-24,10.538-32.764-6.275,8.4-15.044,21.231-9.443,26.773,5.246,5.189,21.352,4.388,32.273,3.139" fill="#fd8aa2"/><path d="M815.037,448.626l-1.166.465a2.249,2.249,0,0,0-.158-.39s.484-.016,1.324-.075" fill="#fd8ba0"/><path d="M874.4,432.171c-4.27,4.867-7.877,8.705-9.194,9.429-3.262,1.794-26.9,18.262-26.9,18.262s-7.989,4.4-15.327,3.261-7.989-8.8-7.989-9.457a8.318,8.318,0,0,0-.033-1.366c5.609,2.085,16.651,4.066,31.208-3.674,11.278-6,21.28-12.054,28.239-16.455" fill="#f94165"/><path d="M892.438,410.621c-3.985,4.957-11.733,14.373-18.035,21.55-6.959,4.4-16.961,10.459-28.239,16.456-14.557,7.74-25.6,5.759-31.208,3.673-.006-.036-.013-.073-.02-.109l.379.171c10.109,2.283,22.338-8.479,22.827-9.457s-1.613-.292-1.613-.292c-6.153,4.585-17.611,5.746-21.491,6.014,6.957-2.777,12.15-4.913,16.851-6.943,8.552-3.7,15.475-7.05,28.428-13.29,13.717-6.609,23.616-16.62,29.214-23.362.282,2.543.117,4.422.3,4.448,2.283.326,2.609,1.141,2.609,1.141" fill="#fc6480"/><path d="M838.142,442.9c-.489.978-12.718,11.74-22.827,9.457l-.378-.171a1.385,1.385,0,0,0-.6-.97c-.726-.436-.162-1.129-.465-2.13q.591-.234,1.166-.465c3.88-.267,15.338-1.428,21.491-6.013,0,0,2.1-.686,1.613.292" fill="#e41340"/><path d="M814.936,452.191l-1.554-.7.274-2.314.057-.476s.484-.017,1.324-.075q-.574.229-1.166.464c.3,1-.261,1.7.465,2.13a1.382,1.382,0,0,1,.6.97" fill="#fc7791"/><path d="M928.82,372.538v0a15.359,15.359,0,0,1-8.63,6.059,18.815,18.815,0,0,1-8.206.12,33.66,33.66,0,0,1-7.117-2.245c-12.872-5.545-19.948-17.688-23.775-28.094,4.314-7.133,8.247-12.763,8.247-12.763a22.383,22.383,0,0,1,3.231-.4c1.566,4.437,5.308,9.234,10.615,13.044a35.612,35.612,0,0,0,5.135,3.079,26.727,26.727,0,0,0,9.467,2.755,13.349,13.349,0,0,0,6.365-.875c4.543,7.618,5.642,15.142,4.668,19.323" fill="#370e64"/><path d="M928.82,372.54c-.007.031-.015.06-.022.09-.1.435-.212.854-.318,1.258-1.569,5.98-3.1,8.556-2.943,9.014a15.452,15.452,0,0,1-5.87,6.848,1.77,1.77,0,0,0-1.794.163c-.592.475-9.553,3.967-18.409.882a20.9,20.9,0,0,1-9.472-6.752c-10.435-12.881-12.127-15.366-12.718-19.892-.49-3.75.322-6.331-1.266-6.835,1.6-3.043,3.375-6.108,5.084-8.935,3.827,10.406,10.9,22.548,23.775,28.093a33.609,33.609,0,0,0,7.117,2.246,18.8,18.8,0,0,0,8.206-.121,15.355,15.355,0,0,0,8.63-6.059" fill="#21093c"/><path d="M943.964,403.515a18.677,18.677,0,0,1-12.868-3.7c-9.053-6.741-6.755-12.8-4.42-15.939h0c.978,0,3.233-1.764,7.989.49,6.2,2.934,8.316,7.826,9.62,12.065a13.085,13.085,0,0,1-.324,7.08" fill="#370e64"/><path d="M943.964,403.515c-.916,3.062-2.712,5.767-5.056,6.127-4.24.653-14.76.444-18.425-10.272-2.12-6.2-.815-9.62-.815-9.62a15.453,15.453,0,0,0,5.87-6.848c.163.489.163.977,1.138.978-2.335,3.141-4.633,9.2,4.42,15.939a18.677,18.677,0,0,0,12.868,3.7" fill="#2c0c50"/><path d="M874.665,402.957c-9.457,11.577-25.273,19.729-44.513,25.436-5.4,1.6-17.283,3.75-18.751.815s5.055-8.968,5.707-9.294c.369-.184.143-.658.13-1.064,5.661,4.125,23.251,11.381,57.776-19.032a5.257,5.257,0,0,1-.349,3.139" fill="#fd9492"/><path d="M873.524,392.848c-.946-2.836-4.2-10.717-5.862-18.071-.241.148-.788.005-1.8-2.474-1.467-3.587-3.913-12.554-3.261-14.022.623-1.4,7.845-4.309,6.271-17.4-.075-.623-.169-1.267-.285-1.937-1.839-10.584-11.851-10.714-18.8-9.522a53.289,53.289,0,0,0-6.1,1.462c-3.913,1.142-3.282-4.161-3.76-5.5-.111-.308-1.712-2.089-4.055-5.007h0c-17.912-12.337-25.26-35.319-28.228-53.9a80.9,80.9,0,0,0-8.286,3.774l0,0A52.7,52.7,0,0,0,784.5,284.908c-2.278,3.253-4.465,8.112-6.622,13.664a2.89,2.89,0,0,1,1.316.168c2.064.784,2.814,3.854,1.673,6.859s-3.739,4.8-5.8,4.021a2.837,2.837,0,0,1-1-.647c-.566,1.6-1.132,3.209-1.7,4.811a30.283,30.283,0,0,0-4.009.473,4.931,4.931,0,0,0-3.588,5.381,17.723,17.723,0,0,0,2.882,6.825c-.948,2.343-1.906,4.548-2.882,6.545-1.86,3.809-4.565,23.48-1.793,33.589s7.5,13.533,12.066,16.142,20.218,6.359,38.154,2.772c0,0,.009.037.029.114.013-.39.055-.612.134-.6,8.478.816,14.983-2.9,14.837-2.608-5.582,11.165-10.546,15.507-12.582,16.319a192.058,192.058,0,0,1,1.625,20.118c5.662,4.125,23.252,11.381,57.776-19.032a32.789,32.789,0,0,0-1.49-6.97m-72.416-83.892c1.139-3,3.738-4.8,5.8-4.02s2.814,3.854,1.673,6.859-3.739,4.8-5.8,4.021-2.815-3.855-1.673-6.86m14.169,20.767c-1.331,6.227-6.666,10.365-11.916,9.243a8.572,8.572,0,0,1-4.645-2.757c-1.484,4.136-7.067,17.112-18.458,15.876-4.539-.492-7.663-4.565-6.685-17.12,0,0,9.358,3.1,24.358.238a12.421,12.421,0,0,1-1.669-9.542c1.33-6.227,6.665-10.365,11.916-9.243s8.429,7.079,7.1,13.3m46.507,28.4c-.53,2.646-4.565,3.75-4.565,3.75a27.7,27.7,0,0,1-11.323,1.383c.357,1.567,1.683,7.446,2.85,13.223,1.372,6.79,2.524,13.441,1.624,12.787-1.793-1.3-10.109.489-11.25.815s-1.534-.5-1.468-.652a23.355,23.355,0,0,0,.926-2.534c2.451-7.841,4.719-23.525,4.719-23.525l.075-.5a18.265,18.265,0,0,1-5.656-2.16.163.163,0,0,1,.086-.3c1.913-.008,3.693-.057,5.342-.135a3.342,3.342,0,1,1,2.261-.131,69.328,69.328,0,0,0,12.378-1.792,5.247,5.247,0,0,0,1.283-.521c.988-.568,3.1-1.585,2.718.3" fill="#fdb5ae"/><path d="M899.262,308.251a44.545,44.545,0,0,1-2.831,15.309,41.776,41.776,0,0,1-4.581,8.735q-1.137,1.66-2.51,3.323s-3.934,5.63-8.247,12.763c-1.71,2.827-3.479,5.893-5.085,8.935l-.038-.013c-1.63-.489-8.152,17.284-8.152,17.284a.432.432,0,0,1-.155.191c-.242.148-.788,0-1.8-2.474-1.468-3.587-3.913-12.555-3.261-14.022.623-1.4,7.844-4.31,6.271-17.4-.075-.623-.17-1.267-.285-1.937-1.84-10.584-11.851-10.714-18.8-9.523a53.235,53.235,0,0,0-6.1,1.463c-3.913,1.141-3.282-4.161-3.76-5.505-.111-.308-1.712-2.088-4.055-5.007h0c-7.882-9.811-24.161-32.489-20.391-55.361.043-.252-.1-.406-.394-.472h0a9.99,9.99,0,0,0-3.933.694l-.005,0a.024.024,0,0,0-.014.005,36.382,36.382,0,0,0-3.522,1.02,39.386,39.386,0,0,0-8.252,3.987l0,0c-3.347,1.772-6.062,3.592-6.7,4.872,0,0-.815-7.827,1.793-11.9a56.622,56.622,0,0,1,4.377-5.723,6.374,6.374,0,0,0,6.548.505c4.4-2.446,8.479-5.218,11.9-4.565s1.13,2.586,1.13,2.586a13.823,13.823,0,0,0-1.993,8.385,13.233,13.233,0,0,0,.21,1.421c1.142,5.543,6.686,31.379,24.132,40.228s22.5,9.176,22.5,9.176.445.016,1.257.018a97.094,97.094,0,0,0,13.234-.936,74.909,74.909,0,0,0,21.519-6.067" fill="#2c0c50"/><path d="M803.9,293.061s11.9-2.772,13.859,12.392" fill="none" stroke="#000" stroke-miterlimit="10" stroke-width="1.141"/><path d="M787.6,289.637s-3.57-1.3-5.453,0" fill="none" stroke="#000" stroke-miterlimit="10" stroke-width="0.978"/><path d="M808.584,311.8c-1.14,3-3.739,4.8-5.8,4.021s-2.814-3.855-1.673-6.86,3.739-4.8,5.8-4.021,2.814,3.855,1.673,6.86" fill="#fdcbc5"/><path d="M815.277,329.723c-1.331,6.227-6.666,10.365-11.916,9.243a8.572,8.572,0,0,1-4.645-2.757,9.771,9.771,0,0,1-.784-1.006,12.417,12.417,0,0,1-1.67-9.542c1.33-6.227,6.666-10.365,11.916-9.243s8.43,7.08,7.1,13.3" fill="#fca79d"/><path d="M799.127,334.965s-.134.466-.411,1.244c-1.484,4.137-7.067,17.112-18.457,15.876-4.54-.492-7.664-4.565-6.685-17.12,0,0,9.357,3.1,24.358.238q.591-.113,1.2-.238" fill="#fffbfb"/><path d="M844.8,343.566s13.4-10.069,16.826-2.079" fill="none" stroke="#fc7b6f" stroke-linecap="round" stroke-linejoin="round" stroke-width="0.978"/><path d="M847.436,357.058a3.342,3.342,0,1,1-3.343-3.343,3.344,3.344,0,0,1,3.343,3.343" fill="#fdece3"/><path d="M850.371,389.261c-1.794-1.3-10.109.489-11.25.815s-1.535-.5-1.468-.652a23.564,23.564,0,0,0,.926-2.534c6.142-3.169,8.921-7.213,10.168-10.415,1.371,6.789,2.524,13.44,1.624,12.786" fill="#fde9c3"/><path d="M848.747,376.474c-1.247,3.2-4.026,7.246-10.168,10.416,2.451-7.841,4.719-23.525,4.719-23.525l.075-.5.15-.993,2.283.978.091.4c.357,1.566,1.683,7.446,2.85,13.223" fill="#fcfcfc"/><path d="M861.784,358.118c-.53,2.646-4.565,3.75-4.565,3.75a27.7,27.7,0,0,1-11.323,1.383,22.471,22.471,0,0,1-2.524-.39,18.265,18.265,0,0,1-5.656-2.16.163.163,0,0,1,.086-.3c1.913-.008,3.693-.057,5.342-.135q1.176-.057,2.261-.131a69.328,69.328,0,0,0,12.378-1.792,5.247,5.247,0,0,0,1.283-.521c.988-.568,3.1-1.585,2.718.3" fill="#e5776b"/><path d="M808.029,311.512c-.989,2.606-3.243,4.167-5.033,3.487s-2.441-3.343-1.452-5.949,3.243-4.167,5.034-3.487,2.44,3.343,1.451,5.949" fill="#090000"/><path d="M779.192,298.74a2.89,2.89,0,0,0-1.316-.168c-.085.219-.169.439-.256.66-.021.057-.044.115-.065.173-1.075,2.8-2.141,5.761-3.209,8.771-.015.041-.028.08-.042.119-.08.226-.16.451-.24.678a2.823,2.823,0,0,0,1,.647c2.064.785,4.663-1.015,5.8-4.02s.391-6.076-1.673-6.86" fill="#fdcbc5"/><path d="M780.771,302.963a6.861,6.861,0,0,1-.46,2.353c-.99,2.6-3.243,4.167-5.033,3.488a2.5,2.5,0,0,1-.931-.628c1.068-3.01,2.134-5.971,3.209-8.771.021-.058.044-.116.065-.173a2.545,2.545,0,0,1,1.239.136c1.242.471,1.934,1.9,1.911,3.6" fill="#090000"/><path d="M813.224,385.627v0c.013-.389.055-.611.134-.6,8.478.815,14.982-2.9,14.837-2.609-5.583,11.166-10.546,15.508-12.582,16.32Z" fill="#fc7b6f"/><path d="M835.869,320.377c-17.911-12.336-25.26-35.319-28.227-53.9,1.249-.486,2.434-.906,3.487-1.233a.042.042,0,0,1,.015,0l.005,0a35.527,35.527,0,0,1,3.933-.7h0c.294.067.437.221.4.473-3.77,22.871,12.509,45.55,20.391,55.361" fill="#fb8676"/><path d="M899.262,308.251a74.909,74.909,0,0,1-21.519,6.067,97.094,97.094,0,0,1-13.234.936c-.812,0-1.257-.018-1.257-.018s-5.054-.326-22.5-9.176-22.99-34.685-24.132-40.228a13.233,13.233,0,0,1-.21-1.421,13.823,13.823,0,0,1,1.993-8.385s2.294-1.934-1.13-2.586-7.5,2.119-11.9,4.565a6.374,6.374,0,0,1-6.548-.505,65.775,65.775,0,0,1,7.1-7.2,24.854,24.854,0,0,1,5.8-3.872s14.022-6.523,21.523-5.381c.3.046.6.1.88.166,1.2,6.659,5.467,17.561,19.99,26.085,13.62,7.995,23.176,9.059,28.6,8.653q.566-.042,1.072-.1c12.276,8.772,15.331,22.416,15.331,26.018,0,1.3.185,3.525.139,6.385" fill="#370e64"/><path d="M882.86,275.2c-.047.249-.095.5-.14.747-5.423.406-14.98-.659-28.6-8.653-14.523-8.525-18.789-19.426-19.99-26.085,6.8,1.529,8.98,8.025,10.859,8.964,1.956.979,8.8,13.533,29.186,20.708a38.591,38.591,0,0,1,8.684,4.319" fill="#4c148b"/><path d="M924.153,353.215c-5.084,2.222-13.462.43-20.968-4.958-5.306-3.811-9.048-8.608-10.615-13.044a31.812,31.812,0,0,1,23.184,7.9,42.766,42.766,0,0,1,8.4,10.1" fill="#4c148b"/><path d="M872.746,611.2s-.3-4.161,1.153-3.52c1.057.464,2.265,2.678,2.265,2.678Z" fill="#92212c"/><path d="M156.862,334.557c-8.244,6.588-17.746,16.994-24.906,27.4-12.587,18.3-19.056,35.517-12.747,42.077a5.25,5.25,0,0,1-1.1-.576c-6.638-4.564-1.35-23.772,11.809-42.9,8.932-12.985,19.194-22.6,26.942-26" fill="#4c148b"/><path d="M153.954,377.092c-12.482,18.144-27.562,29.7-34.744,26.947-6.309-6.56.16-23.778,12.746-42.077,7.161-10.411,16.663-20.817,24.907-27.4,3.665-1.613,6.769-1.835,8.9-.37,6.636,4.565,1.348,23.773-11.809,42.9" fill="#2c0c50"/><path d="M297.465,648.842H54.024L62.809,514.8a92.351,92.351,0,0,1,92.153-86.311h23.416a113.258,113.258,0,0,1,113.1,107.272Z" fill="#00acb2"/><path d="M114.942,508.317c.238,44.831-6.269,91.726,41.182,92.448,43.8.667,86.291-3.48,92.81-19.124,4.761-11.426,12.98-46.293-.588-90.093C272.487,527.842,272.2,631.227,323.708,581c17.067,55.465-39.453,68.716-75.223,68.716H54.717c48.4-44.752,60.225-141.4,60.225-141.4" fill="#00989e"/><path d="M259.68,463.389c-46.794-10.857-95.848,1.675-142.795,13.331-9.311,2.315-18.538,4.591-27.648,6.646-8.817,1.987-15.164,2.1-19.574.918-4.967-1.319-7.478-4.269-8.294-7.988,8.589-17.7,27.159-27.8,46.813-37.5a104.387,104.387,0,0,1,46.308-10.306H177.9a113,113,0,0,1,81.775,34.9" fill="#00b1b7"/><path d="M325.825,636.679h0a37.047,37.047,0,0,1-35.592-34.726l-7.762-125.107H325.69l36.7,111.2a37.047,37.047,0,0,1-36.564,48.63" fill="#00989e"/><path d="M333.183,499.624c-2.372,9.156-8.192,14.842-15.255,16.378-11.322,2.465-27.659-1.875-34.441-24.257l-.9-14.465h43.22Z" fill="#00acb2"/><path d="M294.956,420.761l-13.489-.079.568-31.6a3.607,3.607,0,0,1,7.157-.57Z" fill="#ff9d9e"/><path d="M205.1,453.09a45.043,45.043,0,0,1-11.906,2.168,180.145,180.145,0,0,1-32.319-1.473c-2.312-.347-20.5-15.348-19.461-18.537q.752-2.3,1.432-4.652a180.973,180.973,0,0,0,6.352-60.51,37.02,37.02,0,0,0,6.3,10.313c8.981,24.625,35.295,23.861,47.252,36.183Z" fill="#ff9d9e"/><path d="M202.754,416.583C190.8,404.261,164.483,405.025,155.5,380.4c16.077,18.49,45.792,13.45,45.792,13.45Z" fill="#f8888c"/><g opacity="0.15" style="mix-blend-mode:multiply;isolation:isolate"><g clip-path="url(#c)"><path d="M294.956,419.8l-13.489-.079.363-20.315c1.868,4.173,5.309,7.655,10.284,4.5Z"/></g></g><path d="M416.271,650.862H237.231a2.464,2.464,0,0,1-2.431-2.871L257.494,512.15a3.216,3.216,0,0,1,3.172-2.686H440.108a2.719,2.719,0,0,1,2.681,3.167L420.26,647.484a4.044,4.044,0,0,1-3.989,3.378" fill="#6d1bc8"/><path d="M448.044,512.631l-22.53,134.854a4.04,4.04,0,0,1-3.987,3.377H242.487a2.465,2.465,0,0,1-2.432-2.871l5.13-30.705a180.947,180.947,0,0,0,24.561,1.668c74.2,0,137.968-45.035,165.926-109.489h9.69a2.717,2.717,0,0,1,2.682,3.166" fill="#781ddb"/><path d="M435.672,509.464c-27.958,64.454-91.73,109.49-165.926,109.49a180.947,180.947,0,0,1-24.561-1.668L262.75,512.151a3.212,3.212,0,0,1,3.171-2.687Z" fill="#904ce3"/><path d="M352.323,581.38c-1.056,4.95-4.467,8.418-7.617,7.746s-4.847-5.231-3.79-10.181,4.466-8.417,7.616-7.745,4.847,5.23,3.791,10.18" fill="#fff"/><line y1="22.535" x2="5.255" transform="translate(442.827 476.295)" fill="#781ddb"/><line y1="22.535" x2="5.255" transform="translate(442.827 476.295)" fill="none" stroke="#781ddb" stroke-linecap="round" stroke-miterlimit="10" stroke-width="3.579"/><line y1="12.891" x2="14.922" transform="translate(454.544 487.562)" fill="#781ddb"/><line y1="12.891" x2="14.922" transform="translate(454.544 487.562)" fill="none" stroke="#781ddb" stroke-linecap="round" stroke-miterlimit="10" stroke-width="3.579"/><line y1="5.947" x2="18.801" transform="translate(460.415 506.469)" fill="#781ddb"/><line y1="5.947" x2="18.801" transform="translate(460.415 506.469)" fill="none" stroke="#781ddb" stroke-linecap="round" stroke-miterlimit="10" stroke-width="3.579"/><path d="M217.322,388.6c-6.676,5.225-16.045,6.187-25.11,6.187a53.8,53.8,0,0,1-38.763-16.421,59.382,59.382,0,0,1-6.379-11.227c-1.078-2.47-2.925-6.714-4.716-10.825-1.366-3.142-11.159,4.334-12.09,2.2-.772-1.775.886-14.032.886-14.032-2.989-6.328,3.358-12.719,5.842-18.713l18.046,32.88a13.245,13.245,0,0,0,18.795,4.754c10.782-6.956,26.983-16.811,40.187-22.3,2.072,4.4,3.918,8.3,5.188,10.934,6.5,13.486,7.131,29.508-1.886,36.567" fill="#c3252e"/><path d="M214.019,341.1c-13.2,5.493-29.4,15.348-40.187,22.3a13.242,13.242,0,0,1-18.793-4.753l-18.046-32.881a23.75,23.75,0,0,1,11.828-12.42L176.9,300.078a16.164,16.164,0,0,1,21.521,7.707l1.446,3.1a55.22,55.22,0,0,0-8.788-.587,2.781,2.781,0,1,0,.412,5.534,45.375,45.375,0,0,1,10.485-.423c3.219,6.891,8.051,17.226,12.038,25.687" fill="#ff9d9e"/><path d="M195.494,345.888a.6.6,0,0,1-.255-1.136c2.949-1.389,4.764-3.752,4.519-5.88-.2-1.734-1.759-3-4.389-3.56-6.524-1.393-10.754-6.407-11.911-14.117a.6.6,0,0,1,1.18-.177c1.078,7.183,4.978,11.845,10.98,13.127,3.125.667,5.065,2.34,5.325,4.59.3,2.637-1.783,5.489-5.195,7.1a.591.591,0,0,1-.254.057" fill="#a7242e"/><path d="M198.6,324.866c.7,2.077.138,4.139-1.249,4.6s-3.077-.841-3.774-2.918-.138-4.139,1.249-4.6,3.077.841,3.774,2.918" fill="#742529"/><path d="M176.059,333.05c1.016,1.942.788,4.065-.509,4.743s-3.171-.346-4.186-2.287-.788-4.066.509-4.744,3.17.346,4.186,2.288" fill="#742529"/><path d="M170.943,326.2c-4.3,3.353-8.433,7.236-10.845,12.206a.686.686,0,0,1-1.3-.417c1.236-5.87,4.581-11.058,8.233-15.727a2.8,2.8,0,1,1,3.908,3.938" fill="#a7242e"/><path d="M201.981,315.411a45.42,45.42,0,0,0-10.484.422,2.781,2.781,0,1,1-.413-5.533,55.1,55.1,0,0,1,8.788.587c.57,1.224,1.286,2.761,2.109,4.524" fill="#a7242e"/><path d="M191.289,359.931a1.074,1.074,0,0,1-.938-1.594,17.868,17.868,0,0,1,13.145-9.015,1.074,1.074,0,0,1,.29,2.128,15.71,15.71,0,0,0-11.557,7.928,1.074,1.074,0,0,1-.94.553" fill="#ff9d9e"/><path d="M217.322,388.6a21.819,21.819,0,0,1-10.679,6.54c-24.8,6.858-42.535-2.123-53.194-16.774A53.994,53.994,0,0,0,217.322,388.6" fill="#a7242e"/><path d="M321.733,465.26c0,1.289-3.169,2.431-8.051,3.14a83.052,83.052,0,0,1-11.582.747,74.529,74.529,0,0,1-14.021-1.167c-3.469-.7-5.61-1.661-5.61-2.72s2.136-2.019,5.6-2.718a74.385,74.385,0,0,1,14.03-1.171,70.181,70.181,0,0,1,15.08,1.4c2.842.675,4.553,1.544,4.553,2.491" fill="#005150"/><path d="M317.181,462.768a9.064,9.064,0,0,1-2.3,1.248,2.066,2.066,0,0,0-1.365,2.045c.048.849.108,1.637.172,2.338a83.052,83.052,0,0,1-11.582.747,74.519,74.519,0,0,1-14.021-1.167c-.017-2.076-.017-4.206-.01-5.438,0-.31.005-.56.008-.742a5.547,5.547,0,0,0-1.547-3.925c-2.386-2.486-6.6-7.59-7.048-13.019-.635-7.616-3.279-26.872,3.173-27.082s27.193.527,31.74.952,7.218.952,7.524,11.637c.27,9.418,3.014,26.639-4.739,32.406" fill="#fc9699"/><g opacity="0.15" style="mix-blend-mode:multiply;isolation:isolate"><g clip-path="url(#d)"><path d="M320.555,458.737c1.246-7.225-4.992-14.4-9.888-20.387,4.8,1.009,8.731,1.7,11.8,2.164.315,6.381.275,13.343-1.911,18.223"/></g></g><path d="M278.576,427.414l-10.12-9.725a4.429,4.429,0,1,1,6.138-6.388l9.675,9.3Z" fill="#fc9699"/><path d="M326.616,445.491l-9.335-1.7,4.985-6.872.007.005Z"/><path d="M326.616,445.491l-9.335-1.7,4.985-6.872.007.005Z" fill="none" stroke="#000" stroke-linecap="round" stroke-linejoin="round" stroke-width="1.193"/><path d="M322.266,436.922l-4.985,6.872-.181-.033-56.73-42.939a4.285,4.285,0,0,1,5.171-6.834Z" fill="#282828"/><path d="M322.266,436.922l-4.985,6.872-.181-.033-56.73-42.939a4.285,4.285,0,0,1,5.171-6.834Z" fill="none" stroke="#000" stroke-linecap="round" stroke-linejoin="round" stroke-width="1.193"/><path d="M293.343,404.618l5.159,4.138a2.3,2.3,0,0,1,.181,3.42L283.3,427.444a3.864,3.864,0,0,1-5.8-5.078l13.212-17.422a1.853,1.853,0,0,1,2.635-.326" fill="#ff9d9e"/><path d="M300.511,411.862l6.139,4.682a2.559,2.559,0,0,1,.3,3.8l-15.5,16.247a4.041,4.041,0,0,1-6.285-5.033l12.874-19.284a1.716,1.716,0,0,1,2.467-.411" fill="#ff9d9e"/><g opacity="0.15" style="mix-blend-mode:multiply;isolation:isolate"><g clip-path="url(#e)"><path d="M313.511,466.678c.177,3.216.568,5.572.568,5.572l-25.921-3.4c-.1-2.82-.1-4.97-.081-6.438a5.535,5.535,0,0,0-1.548-3.925c-2.384-2.486-6.593-7.59-7.047-13.016-.007-.081-.014-.165-.021-.251,4.474,9.216,15.364,11.661,19.411,13.628,3.152,1.529,7.225,7.124,15.379,6.144a2.038,2.038,0,0,0-.74,1.682"/></g></g><path d="M325.613,477.355c-.282,3.249-10.21,5.586-21.532,5.586-11.253,0-19.023-2.6-21.516-5.526-2.491-3.029-1.756-10.26-.172-12.286a2.915,2.915,0,0,0,.291.677c1.4,1.873,9.564,3.312,19.419,3.312,10.434,0,16.232-1.56,19.592-3.648,2.566-.029,4.39,8.171,3.918,11.885" fill="#008787"/><g opacity="0.15" style="mix-blend-mode:multiply;isolation:isolate"><g clip-path="url(#f)"><path d="M276.71,413.137c-3.233-1.045-6.817-1.362-9.44.418a4.431,4.431,0,0,1,7.421-2.358c.518.5,1.217,1.169,2.019,1.94"/></g></g><path d="M279.711,425.969h0a1.812,1.812,0,0,1-.15-2.439l1.951-2.419a1.389,1.389,0,0,1,2.047-.126l.809.784a1.387,1.387,0,0,1,.031,1.963l-2.126,2.2a1.812,1.812,0,0,1-2.562.041" fill="#ffcdce"/><path d="M287.449,435.335h0a1.908,1.908,0,0,1-.355-2.468l1.892-2.958a1.5,1.5,0,0,1,2.238-.336l1.134.964a1.5,1.5,0,0,1,.112,2.184l-2.39,2.495a1.909,1.909,0,0,1-2.631.119" fill="#ffcdce"/><path d="M196.061,636.068c-.518,6.345-3.563,15.371-9.177,18.769-7.531,4.558-54.12,9.127-133.332-2.415-12.689-1.849-21.275-7.148-26.586-14.655a142.632,142.632,0,0,1,33.647,3.7c20.05,4.579,51.666,11.473,88.315,10,41.6-1.673,34.914-31.213,46.312-42.666,3.057,5.442,1.845,14.71.821,27.273" fill="#00989e"/><path d="M189.036,620.086c-4.875,13.214-8.931,30.122-40.108,31.375-36.649,1.475-68.265-5.419-88.316-10a142.68,142.68,0,0,0-33.646-3.7c-5.715-8.074-7.643-18.705-6.82-30.344,2.615-36.985,13.961-71.166,24.713-96.569-11.4,34.415-18.325,74.022-2.448,93.632,13.825,17.077,95.805,42.294,146.625,15.6" fill="#00a7ae"/><path d="M99.607,577.033c-3,9.96-5.8,18.056-7.912,23.095a49.689,49.689,0,0,0-8.149,1.818c11.9-6.347,7-9.864.635-9.045-4.944.637-10.213,1.431-25.234,9.84,24.587-24.155,35.616-28.159,40.66-25.708" fill="#00989e"/><path d="M210.21,633.134c-1.552,9.753-4.293,17.423-6.123,17.132s-2.056-8.434-.5-18.186,4.293-17.423,6.123-17.132,2.056,8.433.5,18.186" fill="#005150"/><path d="M115.017,509.859c2,32.946-12.876,75.61-16.555,84.082,3.985.653,11.246,3.8,17.614,9.556l-19.095.989a10.866,10.866,0,0,0-1.693-9.257C92.009,591,76.716,591.728,60,602.154c10.106-7.454,22.281-13.186,35.453-12.128,6.665-19.1,14.988-50.29,19.562-80.167" fill="#008787"/><path d="M325.733,477.185c-.282,3.25-10.21,5.586-21.532,5.586-1.363,0-2.7-.036-3.99-.105,8.223-1.277,13.959-5.323,13.959-8.631,0-2.968-2.334-4.381-6.216-5.266,6.929-.468,11.174-1.8,13.861-3.469,2.565-.029,4.39,8.17,3.918,11.885" fill="#007071"/><g opacity="0.15" style="mix-blend-mode:multiply;isolation:isolate"><g clip-path="url(#g)"><path d="M307.529,419.374a2.529,2.529,0,0,1-.58.969l-4.691,4.92-5.121-1.475a2.372,2.372,0,0,1,.656-4.65h.06Z"/></g></g><path d="M321.92,429.569l-23.9-6.885a2.372,2.372,0,0,1,.715-4.651l15.886.389a7.31,7.31,0,0,1,7.022,6.837Z" fill="#ff9d9e"/><path d="M180.567,437.218c-1.079,5.521-3.14,14.2-3.088,22.217a35.167,35.167,0,0,1-8.244-3.34l9.523-21.864Z" fill="#c29cef"/><path d="M173.938,468.939a.951.951,0,0,1-1.3.11c-8.141-6.5-31.852-26.99-39.311-37.415a2.244,2.244,0,0,1,.081-2.729c2.7-3.3,6.707-7.875,8.977-10.437-.375,9.036,2.882,24.684,31.556,50.471" fill="#e7d7f8"/><path d="M180.137,437.452c-1.546,5.175-5.273,18.722-5.958,30.9a.958.958,0,0,1-.241.587c-28.674-25.787-31.931-41.435-31.557-50.471.2-.224.38-.432.549-.623a2.281,2.281,0,0,1,2.747-.518l33.081,16.9a2.739,2.739,0,0,1,1.379,3.221" fill="#f2ebfb"/><path d="M168.856,437.053c-.565,1.473-1.4,2.523-1.862,2.345s-.382-1.516.183-2.989,1.4-2.523,1.862-2.345.382,1.516-.183,2.989" fill="#781ddb"/><path d="M155.291,436.984c-.444,1.514-1.189,2.628-1.666,2.489s-.5-1.481-.06-2.995,1.189-2.628,1.666-2.488.5,1.48.06,2.994" fill="#781ddb"/><path d="M145.7,423.949c.444,1.514.417,2.854-.06,2.994s-1.222-.974-1.666-2.488-.417-2.855.06-2.994,1.222.974,1.666,2.488" fill="#781ddb"/><path d="M158.944,449.85c.513,1.492.549,2.832.079,2.994s-1.266-.917-1.78-2.409-.549-2.832-.079-2.993,1.267.916,1.78,2.408" fill="#781ddb"/><path d="M171.43,450.866c.329,1.543.2,2.878-.283,2.981s-1.147-1.063-1.476-2.6-.2-2.878.283-2.982,1.147,1.063,1.476,2.606" fill="#781ddb"/><path d="M196.057,459.559a172.7,172.7,0,0,0-1.169-24.446l14.383,17.953a34.4,34.4,0,0,1-13.214,6.493" fill="#c29cef"/><path d="M196.057,459.559a37.517,37.517,0,0,1-18.578-.124c-.053-8.022,2.009-16.7,3.087-22.217l9.087,15.013,4.925-17.5.31.386a172.7,172.7,0,0,1,1.169,24.446" fill="#e7d7f8"/><path d="M214.472,432.732l-8.74-11.567a1.038,1.038,0,0,0-1.679.03l-9.474,13.531a2.031,2.031,0,0,0-.263,1.81c1.409,4.225,6.99,21.285,8.723,31.721a.3.3,0,0,0,.576.048c2.382-6.83,9.449-27.974,11.229-33.306a2.463,2.463,0,0,0-.372-2.267" fill="#f2ebfb"/><path d="M207.2,436.642c-.3,1.549-.938,2.728-1.426,2.634s-.64-1.427-.34-2.976.938-2.728,1.426-2.633.64,1.426.34,2.975" fill="#781ddb"/><path d="M192.721,301.646c-27.728,10.727-58.373,28.43-61.5,64.863a47.943,47.943,0,0,1-16.135-30.435c3.207,12.78,12.124,15.171,20.316,3.7A110.737,110.737,0,0,1,193.694,298.2l.018.023a2.233,2.233,0,0,1-.991,3.421" fill="#2c0c50"/><path d="M193.7,298.2a110.741,110.741,0,0,0-58.289,41.576c-8.191,11.468-17.108,9.077-20.315-3.7a50.687,50.687,0,0,1-.393-6.336c0-27.306,21.467-45.47,45.478-47.059,14.021-.928,25.771,5.247,33.519,15.522" fill="#4c148b"/><path d="M172.549,293.514a24.267,24.267,0,0,1,3.822,3.914.867.867,0,0,1-.431,1.381,45.1,45.1,0,0,0-16.553,9.759,1.334,1.334,0,0,1-1.757.1,43.312,43.312,0,0,1-4.284-3.464,1.38,1.38,0,0,1,.067-2.01c4.478-3.933,12.551-8.646,17.666-9.959a1.73,1.73,0,0,1,1.47.278" fill="#2c0c50"/><path d="M149.24,356.761c-5.078-5.607-14.221-4.245-17.959.239-4.162,4.993-2.835,15,5.1,20.4s19.088,2.4,21.415-1.511-5.1-15.31-8.556-19.124" fill="#ff9d9e"/><path d="M148.27,365.379c-3.007-1.652-6.36-3.511-9.865-2.953a6.442,6.442,0,0,0-3.044,1.546.249.249,0,0,1-.383-.3,5.462,5.462,0,0,1,1.247-1.567c2.713-2.319,6.761-1.481,9.58.136a12.92,12.92,0,0,1,3.068,2.384.489.489,0,0,1-.6.757" fill="#a7242e"/><path d="M195.24,608.794c-2.856,2.87-4.577,6.874-6.2,11.291C147.319,642,84.605,628.931,55.828,614.1c-6.278-3.235-10.94-6.554-13.417-9.613-15.877-19.609-8.955-59.217,2.448-93.632,5.925-14,11.671-25.338,15.675-33.007.274-.525.551-1.043.835-1.551.816,3.72,3.326,6.669,8.294,7.989,4.41,1.176,10.757,1.069,19.573-.919,9.111-2.054,18.338-4.331,27.649-6.645a168.3,168.3,0,0,1-2.236,36.2,535.534,535.534,0,0,1-15.042,64.115c-5.045-2.45-16.073,1.554-40.66,25.708,15.021-8.408,20.289-9.2,25.233-9.84,6.362-.818,11.268,2.7-.634,9.046a49.585,49.585,0,0,1,8.148-1.818c-.009.021-.017.043-.026.064,24.575-1.265,77.1,1.2,93.918,3.183,5,.589,7.974,2.427,9.654,5.419" fill="#00acb2"/><path d="M301.151,421.03h-1.794a1.526,1.526,0,0,1-1.526-1.525.943.943,0,0,1,.943-.943h3.816v1.029a1.439,1.439,0,0,1-1.439,1.439" fill="#ffcdce"/><line x1="762.739" transform="translate(219.824 651.469)" fill="#781ddb"/><line x1="762.739" transform="translate(219.824 651.469)" fill="none" stroke="#781ddb" stroke-linecap="round" stroke-miterlimit="10" stroke-width="3.579"/><path d="M253.864,630.175c7.322,4.124,20.565,11.415,25.145,13.933a2.561,2.561,0,0,1-1.347,4.8,98.078,98.078,0,0,1-17.314-2.393Z" fill="#ff9195"/><path d="M213.764,655.263q-.584-.516-1.1-1.05c-5.722-5.9-8.729-7.142-14.441-7.142-3.651-5.712,7.616-31.422,7.616-31.422,1.847.374,4.061.775,6.507,1.214-2.925,8.511-4.543,24.787,1.42,38.4" fill="#f8888c"/><path d="M277.018,669.684c-4.319-5.362-7.569-11.709-12.732-15.266l-.005-.005a39.518,39.518,0,0,0-6.264-5.648.476.476,0,1,0-.546.78,37.642,37.642,0,0,1,5.626,4.985c3.816,6.414,4.859,9.442,5.9,13.171,1.109,3.968,3.56,11.134,4.283,13.489.957,3.116-.8,7.962-5.9,3.245-2.281-4.336-3.837-9.241-5.55-14.651l-.37-1.169c-2.092-6.586-3.8-8.029-7.192-10.907-.923-.78-1.968-1.665-3.185-2.8a.478.478,0,1,0-.649.7c1.234,1.143,2.286,2.035,3.216,2.823,3.358,2.846,4.89,4.145,6.9,10.468l.372,1.169a102.789,102.789,0,0,0,4.9,13.35v0c.4,3.445-2.978,5.712-7.724.642a141.966,141.966,0,0,1-7.366-14.706c-2.57-6.259-4.832-7.972-7.447-9.957-.5-.38-1.019-.774-1.556-1.21a.478.478,0,0,0-.6.74c.552.448,1.076.844,1.582,1.228,2.608,1.981,4.67,3.544,7.142,9.562,1.253,3.054,2.849,6.316,4.417,9.305a1.777,1.777,0,0,0-1.162.06l-.735.3a1.181,1.181,0,0,0-.649,1.539l.706,1.737a2.476,2.476,0,0,0,3.228,1.362,1.271,1.271,0,0,0,.778-.983l.1.179c-.664,3.25-5.1,2.518-8.023-1.577-3.173-4.443-8.272-14.646-13.634-16.168-7.037-2-15.934-5.622-21.115-10.218-5.963-13.613-4.345-29.888-1.419-38.4,2.727.487,5.743,1.014,8.871,1.594.236,7.02,2.262,14.584,10.129,16.157,8.442,1.689,19.817-1.239,31.237,3.906,6.34,6.743,12.484,13.932,13.56,15.693,1.745,2.857,6.743,11.241,8.24,13.418,3.13,4.552-1.706,9.079-7.364,2.054" fill="#ff9195"/><path d="M262.582,638.519c-11.42-5.144-22.795-2.217-31.237-3.906-7.867-1.573-9.893-9.137-10.129-16.157,11.907,2.21,25.4,5.174,30.485,9.411a140.812,140.812,0,0,1,10.881,10.652" fill="#ff9d9e"/><path d="M265.667,682.619c1.162,4.226-3.162,7.469-9.046-.317.019,4.273-4.934,3.791-8.11-.652S240.24,667,234.879,665.482a81.354,81.354,0,0,1-8.142-2.792c12.05,3.594,26.3,5.514,35.623,1.773a33.876,33.876,0,0,0,4.736-2.312,41.558,41.558,0,0,1,1.9,5.55c1.112,3.968,3.563,11.134,4.286,13.489,1.057,3.443-1.208,9-7.617,1.429" fill="#f8888c"/><path d="M277.015,669.684c-2.5-3.1-4.639-6.533-7-9.566a15.216,15.216,0,0,0,5.1-7.323c.482.62.832,1.105,1.023,1.417,1.747,2.857,6.743,11.244,8.242,13.42,3.131,4.55-1.706,9.079-7.366,2.052" fill="#f8888c"/><path d="M258.1,684.068a20.854,20.854,0,0,1-1.479-1.766,4.484,4.484,0,0,1-.086.924,135.915,135.915,0,0,1-6.684-13.5c-2.472-6.018-4.533-7.581-7.142-9.561-.505-.384-1.03-.78-1.582-1.229a.478.478,0,0,1,.6-.74c.537.437,1.055.831,1.556,1.21,2.615,1.985,4.877,3.7,7.447,9.957a142.069,142.069,0,0,0,7.366,14.706" fill="#e9787d"/><path d="M265.667,682.619a5.3,5.3,0,0,1,.157.8,102.788,102.788,0,0,1-4.9-13.35l-.372-1.169c-2.01-6.324-3.541-7.622-6.9-10.468-.93-.788-1.983-1.68-3.216-2.823a.478.478,0,1,1,.649-.7c1.217,1.131,2.262,2.017,3.185,2.8,3.393,2.878,5.1,4.321,7.192,10.907l.37,1.169c1.713,5.409,3.269,10.315,5.55,14.651a20.309,20.309,0,0,1-1.718-1.816" fill="#e9787d"/><path d="M262.334,653.261c.267.437.52.861.764,1.269a37.681,37.681,0,0,0-5.627-4.984.476.476,0,1,1,.546-.78,39.521,39.521,0,0,1,6.264,5.648,16.733,16.733,0,0,0-1.947-1.153" fill="#e9787d"/><path d="M283.941,670.622h0a2.221,2.221,0,0,1-3.075-.038l-1.746-1.717a1.427,1.427,0,0,1,.147-2.161l.361-.27a1.854,1.854,0,0,1,2.594.377l1.838,2.464a1.013,1.013,0,0,1-.119,1.345" fill="#ffcdce"/><path d="M256.435,683.047a1.275,1.275,0,0,1-.778.983,2.476,2.476,0,0,1-3.228-1.362l-.707-1.737a1.184,1.184,0,0,1,.649-1.54l.735-.3a1.778,1.778,0,0,1,1.162-.06c.743,1.418,1.48,2.77,2.167,4.016" fill="#ffcdce"/><path d="M273.393,684.17a2.288,2.288,0,0,1-.606.36,2.315,2.315,0,0,1-3.016-1.271l-.893-2.2a1.958,1.958,0,0,1,1.079-2.551l.709-.289a1.939,1.939,0,0,1,1.7.117c.393,1.2.72,2.207.918,2.852a5.921,5.921,0,0,1,.11,2.98" fill="#ffcdce"/><path d="M265.374,685.829a3.183,3.183,0,0,1-3.757-1.88l-.8-1.974a1.332,1.332,0,0,1,.731-1.734l.72-.291a2.54,2.54,0,0,1,2.071.064c.466,1.164.957,2.3,1.487,3.41v0a3.764,3.764,0,0,1-.45,2.4" fill="#ffcdce"/><path d="M203.642,632.081c-1.513,9.5-1.336,17.478.367,18.146-3.068,3.391-12.281,3.992-14.817,2.776-4.121-20.411,2.849-38.837,5.495-43.385,6.827-.785,12.725,2.05,14.956,5.323-1.828.053-4.483,7.6-6,17.14" fill="#007071"/><path d="M209.638,614.941c-1.444.041-3.4,4.758-4.913,11.444a6.5,6.5,0,0,1-3.854,1.36c-3.9,0-7.356-3.994-9.475-10.132a43.528,43.528,0,0,1,3.286-7.995c6.826-.785,12.725,2.049,14.956,5.323" fill="#008787"/><path d="M886.557,652.1a116.872,116.872,0,0,0-14.578,1.042l-.036.005c-.356.05-.714.1-1.076.16-.025,0-.03-.013-.018-.051.058-.179.528-.84,1.208-1.913a41.57,41.57,0,0,0,5.9-14.513q.205-1.1.339-2.248a31.479,31.479,0,0,0,.143-5.776c.509,1.685,1.034,3.4,1.57,5.1.03.1.059.191.089.285.083.263.164.524.247.785a165.966,165.966,0,0,0,5.965,16.592c.083.182.164.358.246.528" fill="#fa9688"/><path d="M878.011,627.367q-1,1.3-1.973,2.571l-1.06,1.388q-2.744,3.6-5.322,7.052c-3.417,1.683-6.682,3.582-8.281,5.307-1.891,2.045-7.223,4.844-12.964,7.277-6.888,2.917-14.36,5.3-17.176,5.213-5.162-.166-24.146,1.5-25.645,0a1.631,1.631,0,0,0-.639.7c-3.421-2.907-2.847-6.189-2.273-6.646l13.781.22a83.92,83.92,0,0,0,12.433.2l-12.433-.2a111.123,111.123,0,0,1-13.783-2.018c-.5-.582-5.494-2.166-6.66-6.412s2.08-5.744,2.08-5.744a4.744,4.744,0,0,1-2.5-2.331c-2.444-6.63,2.5-9.076,4.495-9.409s3-1,4.836-4,16.645-17.151,18.358-15.987a8.823,8.823,0,0,0,2.718.73c-5.641,7.618-10.221,13.925-10.221,13.925a5.889,5.889,0,0,0,0,3.246c.495,1.874,13.742-3.747,15.24-5.993.139-.209.447-.627.89-1.217,0,0,5.98.633,7.894-1.281,1.245-1.246,4.7-3.9,6.973-5.6,3.839.985,8.039,2.225,9.929,3.352,3.913,2.332,15.653.375,15.653.375.137.2.272.4.4.6.189.282.374.565.55.847l.005.007q.3.477.577.952c.1.165.194.329.287.494q.267.47.513.938c.868,3.083,2.022,7.122,3.312,11.441" fill="#fdb5ae"/><path d="M846.784,608.363c-2.27,1.706-5.728,4.355-6.974,5.6-1.914,1.914-7.893,1.281-7.893,1.281l.016-.021,6.729-8.69.317.019s3.694.757,7.8,1.81" fill="#f7978e"/><path d="M878.3,634.578q-.132,1.149-.339,2.248a41.576,41.576,0,0,1-5.9,14.514c-.68,1.073-1.149,1.733-1.208,1.912-1.363.142-3.711.4-5.643.675-2.914.418-6.661,3.83-14.571,9.159a36.086,36.086,0,0,1-18.4,5.746,41.784,41.784,0,0,1-6.665-.646h-.007a23.5,23.5,0,0,1-7.15-2.1c-2.923-1.712-4.136-4.826-5.314-5.739l0,0a1.088,1.088,0,0,0-.595-.254,9.821,9.821,0,0,1-2.027-.5,19.207,19.207,0,0,0-3.466-1.306l0,0a12.435,12.435,0,0,1-2.053-1.4,1.631,1.631,0,0,1,.639-.7c1.5,1.5,20.482-.17,25.645,0,2.815.091,10.288-2.3,17.175-5.213,5.741-2.433,11.073-5.232,12.965-7.277,1.6-1.725,4.863-3.625,8.281-5.307,3.147-1.549,6.421-2.917,8.64-3.8" fill="#fdaba0"/><path d="M798.1,636.277s20.315,1.71,29.807.064" fill="none" stroke="#e78d83" stroke-linecap="round" stroke-linejoin="round" stroke-width="1.304"/><path d="M855.631,584.507c-1.078,1.608-7.721,10.129-13.841,17.988-1.077,1.379-2.135,2.739-3.146,4.037-2.9,3.727-5.395,6.948-6.711,8.692l-.016.021c-.444.591-.752,1.008-.89,1.217-1.5,2.247-14.745,7.867-15.241,5.994a5.892,5.892,0,0,1,0-3.247s4.58-6.307,10.222-13.924c8.177-11.041,18.584-24.836,20.505-26.167,3.248-2.247,6-2.5,7.245-1.5s3.87,3.908,1.873,6.887" fill="#fffff3"/><path d="M802.677,648.433s3.307,2.77,26.215,2.217" fill="none" stroke="#e78d83" stroke-linecap="round" stroke-linejoin="round" stroke-width="1.141"/><path d="M813.1,660.345a49.533,49.533,0,0,0,20.385.993" fill="none" stroke="#e78d83" stroke-linecap="round" stroke-linejoin="round" stroke-width="0.978"/><path d="M915.039,657.214a.2.2,0,0,0,0,.042c0,.057-.005.115-.007.17q-.076,1.372-.2,2.865l0,.021,0,.016v.017l-22.647.805s0-.07.01-.205c.352.137.468-.069.468-.069a64.311,64.311,0,0,0-.289-9.211c-.18-1.769-.427-3.512-.729-5.222q.4.07.841.138c.048.009.1.015.146.023l.2.031.232.034.394.056.238.033.039,0c.05.009.1.015.154.022l.2.026.212.027.745.093c.064.009.127.015.191.023l.274.033.342.041.367.04.042.005.348.039.037,0,.388.042.749.078.045.005.7.069q.233.024.465.045l.412.039.414.04.415.037c.3.028.606.056.911.082l.349.029.424.036c.31.028.622.052.932.078.568.046,1.139.091,1.706.134l.325.024.419.031.717.052q.059,0,.117.009c.276.019.549.037.821.057.036,0,.072,0,.109.008.1.006.2.014.3.019l.2.013c.068.005.136.01.2.013.177.013.352.025.528.036s.344.023.516.033l.252.016c.09.007.18.012.269.016.255.017.505.031.75.046s.489.03.726.043l.471.026.566.031c.334.018.657.034.966.049l.3.014.25.012.1.005.232.009c.188.008.366.017.539.023l.255.01.474.016.095,0c.067,1.112.107,2.3.115,3.586.01,1.58-.03,3.3-.129,5.185" fill="#fdd058"/><path d="M915.043,648.28l-.1-.008-23.335-1.981a88.973,88.973,0,0,0-8.795-25.11c-4.173-7.986-8.213-13.031-8.81-13.4l-.015-.01c3.827-.569,17.947-2.759,21.644-4.588a1.636,1.636,0,0,1,1.273-.044c.049.016.1.034.148.054s.074.029.11.045c.089.04.181.084.274.134l.125.072c.038.023.077.046.114.07a6.1,6.1,0,0,1,.641.466c.093.077.188.157.282.243a12.2,12.2,0,0,1,.871.874c.044.048.088.1.132.147q.264.3.533.629c.044.054.09.11.134.167s.1.129.153.194c.147.187.295.383.442.585.075.1.148.2.223.307s.15.208.224.316c.018.024.036.049.052.073.057.083.116.167.173.251.146.212.292.431.44.656.352.54.708,1.107,1.06,1.7.182.3.365.617.546.933q.33.574.656,1.169l0,.005.164.3q.1.188.2.378c.067.127.136.254.2.382.09.171.18.342.269.515l.043.083c.163.316.324.636.486.959.145.288.287.58.429.872.073.148.145.3.216.448.085.177.168.356.253.534s.166.355.248.533.165.357.245.535c.365.8.714,1.6,1.046,2.4.074.177.147.351.219.527.036.087.072.175.107.263.119.291.237.583.349.872.048.117.093.235.139.352.232.595.45,1.181.654,1.75.049.133.1.267.142.4.221.631.425,1.243.608,1.828q.128.414.243.807c.024.088.049.175.073.261l.059.21c.145.529.269,1.029.37,1.494.044.2.081.394.116.582.013.065.023.129.034.191.031.179.062.357.1.534s.065.34.1.508c.027.138.057.277.088.414.013.057.024.115.037.173l0,.009c.015.061.028.121.042.181q.089.395.186.783c.041.16.082.32.122.478.067.261.137.518.209.776.031.116.064.231.1.347.134.473.271.944.41,1.422l0,.016c.051.173.1.344.152.519.069.235.139.471.207.709l.1.341c.17.59.339,1.2.5,1.828.019.075.039.15.059.226.029.118.06.235.089.354s.061.24.09.362c.112.458.22.931.324,1.422.018.08.035.161.053.244.063.307.123.62.184.941.024.137.05.274.075.414,0,.022.008.044.011.067.026.147.051.3.075.447.017.093.031.186.046.279s.029.187.044.282.029.191.042.287l0,.013c.011.077.023.153.033.23s.021.153.032.231q.039.294.077.6c.016.122.031.246.044.37s.029.25.042.377q.081.758.145,1.572c.008.093.015.189.021.283.014.18.027.361.038.545" fill="#fde4b8"/><path d="M1042,617.2a7.218,7.218,0,0,1-.059,1.019c-1,7.16,2.273,21.316-14.045,31.3s-113.068,10.825-113.068,10.825l0-.017v-.016l0-.021c.026-.237.122-1.248.2-2.865,0-.055.005-.113.008-.17a.3.3,0,0,1,0-.042c.1-1.885.14-3.6.13-5.185-.008-1.283-.049-2.473-.116-3.585l-.01-.164q5.308.061,10.255.072c86.541.232,92.939-9.974,92.939-9.974,15.7-4,21.71-13.024,23.763-21.18" fill="#fb385f"/><path d="M1042,617.2c-2.053,8.156-8.064,17.184-23.763,21.18,0,0-6.4,10.206-92.939,9.974q-4.95-.012-10.255-.072c-.011-.184-.024-.365-.037-.544-.007-.1-.013-.191-.021-.284-.043-.543-.092-1.066-.145-1.572-.013-.127-.028-.252-.043-.376s-.029-.248-.044-.37c-.024-.2-.05-.4-.076-.6-.012-.078-.022-.155-.033-.232s-.021-.153-.033-.23v-.013c-2.082-9.175-4.374-19.6-10.364-31.839l0-.005q-.325-.594-.656-1.169-.271-.474-.546-.932c-.352-.591-.707-1.158-1.06-1.7-.148-.225-.293-.443-.44-.655-.057-.085-.116-.168-.173-.251-.016-.025-.034-.049-.052-.074-.073-.107-.148-.212-.223-.316s-.149-.2-.224-.306c-.146-.2-.3-.4-.441-.586l-.154-.194c-.044-.057-.089-.112-.133-.166-.18-.22-.357-.431-.534-.63-.044-.05-.088-.1-.132-.146-.295-.326-.587-.618-.87-.874-.095-.087-.19-.167-.282-.243a6.324,6.324,0,0,0-.641-.467c-.039-.026-.077-.048-.114-.07s-.085-.049-.126-.071c-.093-.051-.184-.095-.274-.134-.036-.016-.073-.033-.109-.046l-.148-.054,37.478-5.274,32.893-4.631s-.147-.191-.431-.588c16.3-1.691,29.739-3.408,29.739-3.408-18.72-9.092-42.027-25.981-54.456-44.313-7.7-11.358-22.864-47.265-22.864-47.267-3.217-15.535-1.931-38.622,13.184-60.878a82.79,82.79,0,0,1,12.187-14.084l1.93-1.474s15.715,4.658,40.194,56.114,43.962,99.3,43.962,99.3S1041.956,608.281,1042,617.2" fill="#fc7791"/><path d="M886.557,652.1s2.455,10.059,6.16,8.977c.879-.257-.376-9.686-.376-9.686Z" fill="#92212c"/><path d="M872.365,612.089s6.429,19.438,5.932,22.488.4,2.779.4,2.779l7.857,14.739,5.784-.708A75.056,75.056,0,0,0,886,627.878a105.707,105.707,0,0,0-9.835-17.545l-2.814.714Z" fill="#fa9688"/><path d="M479.6,395.71H469.093s-3.616-23.528-5.434-56.166q-.221-3.945-.4-8.06c-.62-14.077-.856-29.513-.325-45.289.281-8.348.777-16.792,1.544-25.178,0,0,2.721-13.065,6.315-30.136a15.173,15.173,0,0,1,.2,6.808c-.5,3.469-2.62,24.421-3.237,51.132-.315,13.712-.234,28.94.672,44.1q.106,1.842.234,3.683c1.483,21.646,4.718,42.892,10.943,59.106" fill="#fce7ce"/><path d="M496.818,165.257c-1.064,6.766-4.754,20.69-17.275,24.356.848-3.951,1.671-7.769,2.449-11.358,0,0,.7-4.37.289-14.013,0,0,6.346.529,14.537,1.015" fill="#ffefeb"/><path d="M541.925,205.1a136.655,136.655,0,0,1-.951,16.68c-.336,2.635-1,6.012-1.871,9.864-.633-9.331-1.336-21.12-1.1-24.371.03-.409.05-.833.058-1.267.119-5.524-1.343-12.874-1.954-15.549-.66-2.885-4.121-5.358-5.771-7.171s-1.236-3.874-1.648-6.1-.907-3.71-3.874-4.938-9.068-4.212-9.068-4.212l-4.575-2.112c8.424.254,16.292.188,19.743-.691,0,0,.041,9.644,1.4,10.881s8.656,8.656,8.656,8.656.975,9.188.951,20.33" fill="#fee3b8"/><path d="M517.479,233.9a29.162,29.162,0,0,0,14.471,25.2v0c-4.291,15.542-8.453,30.269-8.453,34.392,0,1.526-.1,6.26-.257,12.91-3.984,6.713-6.261,17.726-7.5,29.893a134.428,134.428,0,0,1-43.77-2.522,29.185,29.185,0,0,0-4.223-44.954c.616-26.712,2.741-47.664,3.236-51.133a15.155,15.155,0,0,0-.2-6.807v0c2.688-12.777,5.865-27.8,8.753-41.266,12.521-3.666,16.211-17.591,17.275-24.357,4.478.265,9.509.519,14.356.666l4.574,2.111s6.1,2.985,9.068,4.212,3.463,2.712,3.874,4.938,0,4.286,1.648,6.1,5.111,4.286,5.771,7.171c.611,2.675,2.073,10.025,1.954,15.549A29.191,29.191,0,0,0,517.479,233.9" fill="#fff"/><path d="M539.1,231.641c-1.8,7.92-4.5,17.846-7.153,27.459a29.189,29.189,0,0,1,6.113-53.1c-.008.434-.027.859-.058,1.267-.239,3.251.465,15.04,1.1,24.371" fill="#ffefeb"/><path d="M480.633,313.031A29.227,29.227,0,0,1,468.657,336.6q-.126-1.839-.235-3.683c-.9-15.16-.986-30.388-.671-44.1a29.159,29.159,0,0,1,12.882,24.21" fill="#ffefeb"/><path d="M521.561,305.694c-.184,7.752-.863,20-.989,30.91-.495,42.906-.617,49.681.288,59.105h-5.443c-.675-10.547-1.953-36.948.328-59.412,1.234-12.167,1.832-23.889,5.816-30.6" fill="#ecd6d0"/><path d="M561.417,88.145s-1.427,15.8-2.857,20.485c-.2.638-.378,1.234-.551,1.825-1.1,3.751-.108,7.525-2.788,19.444-6.059,26.954-24.074,29.585-25.11,30.2.275.06-.035,5.289-.035,5.289l-46.934-.867s4.752-32.293,3.671-38.454S484,72.4,500.568,69.682s57.992,4.2,57.992,4.2Z" fill="#d36c61"/><path d="M527.622,103.689c-.836,2.255-2.516,3.712-3.755,3.253s-1.564-2.659-.728-4.914,2.516-3.712,3.754-3.253,1.565,2.659.729,4.914" fill="#140000"/><path d="M554.269,105.562c-.365,1.993-1.95,3.372-3.539,3.081s-2.582-2.144-2.217-4.136,1.95-3.372,3.539-3.081,2.582,2.143,2.217,4.136" fill="#100"/><path d="M525.381,115.39c0,6.169-4.143,11.17-9.253,11.17s-9.253-5-9.253-11.17,4.143-11.17,9.253-11.17,9.253,5,9.253,11.17" fill="#d15f54"/><path d="M558.01,110.455c-1.1,3.752-1.827,7.266-2.788,19.444-5.111,0-8.409-3.764-8.409-9.934s5.917-9.512,11.026-9.512c.058,0,.115,0,.171,0" fill="#d1614c"/><path d="M541.261,129.018c-2.767.352-12.33,1.033-18.676-5.18a.464.464,0,0,0-.786.284c-.347,3.37-.023,12.52,7.188,15.133,7.388,2.677,11.545-6.56,12.764-9.605a.464.464,0,0,0-.49-.632" fill="#fff7f5"/><path d="M525.494,99.6a10.763,10.763,0,0,0,3.494-.127" fill="none" stroke="#000" stroke-linecap="round" stroke-linejoin="round" stroke-width="0.969"/><path d="M550.664,102.205a10.764,10.764,0,0,0,3.494-.127" fill="none" stroke="#000" stroke-linecap="round" stroke-linejoin="round" stroke-width="0.969"/><path d="M542.609,98.533s-3.4,10.26.907,18.876c.064.128.121.252.174.374,2.636,6.161-9.571,4.655-9.571,4.655" fill="none" stroke="#b23023" stroke-linecap="round" stroke-linejoin="round" stroke-width="0.969"/><path d="M491.172,129.9s7.038,36.875,38.939,30.2l-.035,5.288s-35.689,14.467-38.9-35.487" fill="#bc3c30"/><path d="M521.046,21.858A63.639,63.639,0,0,1,502.028,30.1c-13.421,3.443-27.968-1.666-38.367-6.995A29.6,29.6,0,0,1,480.029,2.758c7.835,4.558,20.506,9.808,35.007,7.671a29.473,29.473,0,0,1,6.01,11.429" fill="#370e64"/><path d="M522.058,29.553a29.523,29.523,0,0,1-1.409,9.042c-22.61,1.118-32.312,14.909-35.019,19.7a29.592,29.592,0,0,1-21.969-35.193c10.4,5.328,24.946,10.438,38.367,6.994a63.625,63.625,0,0,0,19.018-8.242,29.583,29.583,0,0,1,1.012,7.695" fill="#21093c"/><path d="M520.649,38.6a29.588,29.588,0,0,1-25.758,20.414q-1.179.094-2.384.1a29.629,29.629,0,0,1-6.877-.806c2.707-4.794,12.409-18.585,35.019-19.7" fill="#3c0000"/><path d="M515.036,10.429c-14.5,2.137-27.172-3.112-35.008-7.671a29.573,29.573,0,0,1,35.008,7.671" fill="#4c148b"/><path d="M584.869,56.685s-9.452-12.557-20.91-14.123a36.442,36.442,0,0,0-20.114,2.964s-27.969-.852-32.161,2.316-14.826,4.6-14.207,7.16,9.987,14.185,14.762,14.68,42.487,9.4,52.132,6.8,17.682-9.891,18.918-13.354a32.373,32.373,0,0,0,1.58-6.443" fill="#370e64"/><path d="M579.456,51.959s-6.759.989-24.4-7.666c0,0,9.645-3.792,24.4,7.666" fill="#4c148b"/><path d="M492.66,102.7s12.36,3.33,11.359-20.952c0,0,5.452-6.135,7.843-7.207s2.8.413,2.8.413,2.226,8.588,9.233,10.311a18.679,18.679,0,0,0,12.887-1.574c.961-.329,2.335-.329,2.61.248s1.621,2.583,5.138,2.473,5.606-.715,6.155-1.539,2.253-.055,2.253-.055,6.705,4.726,14.673,3.352,20.663-5.675,20.333-23.253c0,0-.11-5.77-3.077-8.236,0,0-5.331,11.1-18.126,12.255-2.409.217-8.184,1.4-19.93-3.05-1.417-.537-26.543.165-30.995-.247S506.586,64.478,503.7,59.1c0,0-4.04-3.45-6.224-4.1S480.4,80.581,483.587,85.427,492.66,102.7,492.66,102.7" fill="#21093c"/><path d="M545.412,45.694s-2.186,1.22-5.037,3.061c-40.011-12.246-52.632,19.728-56.019,33a13.3,13.3,0,0,0-3.638-1.08l0,0h0a27.083,27.083,0,0,0-3.387-.024s.013-.066.04-.194c.793-3.635,13.417-56.9,68.049-34.757" fill="#fed25d"/><path d="M540.375,48.755l-.342.223c-.631.411-22.868-4.383-35.1,5.537C494.892,62.665,490.2,66.1,487.647,83.821a7.567,7.567,0,0,0-3.544-1.96c3.387-13.268,16.26-45.352,56.272-33.106" fill="#fec23c"/><path d="M474.462,82.548c.15,0,.3-.008.45-.008a12.182,12.182,0,0,1,7.533,2.731c2.348.033,5.358.435,6.583,2.133,2.144,2.968,5.606,9.563,5.275,11.376-.218,1.2-3.424-2.047-5.571-4.381a28.04,28.04,0,0,1,1.54,6.813c2.1,2.578,4.866,5.379,7.116,5.649q.087-1.142.089-2.31c0-12.177-7.289-22.247-16.76-23.88l0,0h0a27.065,27.065,0,0,0-3.386-.024s.012-.066.04-.194a16.037,16.037,0,0,0-4.123.714" fill="#ffd36b"/><path d="M473.24,81.165c-8.452,2.633-14.711,12.106-14.711,23.386,0,13.317,8.719,24.111,19.475,24.111,10.125,0,18.445-9.568,19.384-21.8-2.25-.269-5.012-3.07-7.116-5.648a30.135,30.135,0,0,1,.157,3.09c0,12.02-6.946,21.762-15.517,21.762s-15.518-9.742-15.518-21.762c0-11.807,6.706-21.419,15.068-21.755" fill="#fdba0b"/><path d="M490.272,101.213a28.139,28.139,0,0,0-1.54-6.814,20.335,20.335,0,0,0-6.288-9.127,12.174,12.174,0,0,0-7.532-2.732c-.15,0-.3,0-.45.008-8.362.336-15.068,9.948-15.068,21.754,0,12.021,6.948,21.763,15.518,21.763s15.516-9.742,15.516-21.763a30.42,30.42,0,0,0-.156-3.089m-16.164,16.2c-3.731,0-6.959-3-8.506-7.36l-.051-.143a16.826,16.826,0,0,1-.921-5.345c0-.086,0-.173,0-.259v-.038c0-.1,0-.207,0-.31s.005-.2.009-.3c.211-7.02,4.371-12.619,9.469-12.619,5.235,0,9.479,5.906,9.479,13.189s-4.244,13.189-9.479,13.189" fill="#fce5a4"/><path d="M483.588,104.22c0,7.285-4.244,13.189-9.479,13.189-3.731,0-6.959-3-8.506-7.36,1.369,3.758,4.038,6.309,7.105,6.309,4.46,0,8.078-5.4,8.078-12.056s-3.618-12.055-8.078-12.055c-4.317,0-7.841,5.049-8.069,11.4.212-7.02,4.372-12.619,9.47-12.619,5.235,0,9.479,5.9,9.479,13.189" fill="#fbd679"/><path d="M480.785,104.3c0,6.659-3.618,12.056-8.078,12.056-3.067,0-5.735-2.551-7.1-6.309l-.052-.144a17.415,17.415,0,0,1-.92-5.345c0-.085,0-.172,0-.258v-.039c0-.1,0-.206,0-.31s0-.2.008-.3c.227-6.354,3.751-11.4,8.068-11.4,4.46,0,8.078,5.4,8.078,12.055" fill="#ffde82"/><path d="M494.3,98.78c-.218,1.2-3.424-2.047-5.571-4.381a20.32,20.32,0,0,0-6.288-9.127c2.349.032,5.358.434,6.583,2.132,2.144,2.969,5.607,9.563,5.276,11.376" fill="#fcd460"/><path d="M561.4,91.568s7.542,4.08,4.7,22.133c0,0-4.452,2.349-7.543-4.328a76.576,76.576,0,0,0,1.731-12.365,31.088,31.088,0,0,1,.838-5.7" fill="#f2b71b"/><path d="M566.1,113.7s-2.6,12.366-10.881,14.962c0,0,1.607-19.166,3.338-19.29,0,0,2.1,5.812,7.543,4.328" fill="#f7a015"/><path d="M448.393,285.176v0q-.244-1.648-.476-3.3c-1.484-10.46-2.691-20.923-3.389-30.718-2.263-31.763,3.008-49.026,6.934-57.177h0a25.165,25.165,0,0,1,3.78-6.075c-.134.534-14.872,59.421,6.6,114.915,0,.158,0,.239,0,.239l2.144,61.687s-9.66-39.257-15.589-79.567" fill="#5154be"/><path d="M468.763,211.062c-3.128,16.558-2.543,27.914-1.414,34.717-4.719,20.267-5.448,53.885-5.506,57.038-21.474-55.495-6.735-114.381-6.6-114.915v0s-4.78-2.06-4.121-3.05,4.286.99,5.029.99,1.318-1.072,1.236-1.732-1.9-1.978-2.473-2.8.743-3.214,1.731-2.72,3.215,3.463,3.215,3.463a17.869,17.869,0,0,1,1.832-1.86c4.3,2.536,11.028,9.93,7.071,30.875" fill="#7073cf"/><path d="M479.633,180.725c-2.61,16.345-6.125,44.729-10.87,59.8-.509,1.613-.978,3.376-1.414,5.253-1.129-6.8-1.715-18.159,1.414-34.717,3.957-20.945-2.77-28.339-7.07-30.875,3.273-2.9,8.069-5.475,12.164-7.361a30.635,30.635,0,0,1,5.776,7.9" fill="#555ccb"/><path d="M481.87,169.557a86.232,86.232,0,0,0-2.237,11.168,30.612,30.612,0,0,0-5.776-7.9c4.415-2.032,8.013-3.269,8.013-3.269" fill="#3238aa"/><path d="M411.467,282.217l-20.547.195c2.167-7.466,6.241-18.459,10.553-29.433a182.384,182.384,0,0,0,9.994,29.238" fill="#676cce"/><path d="M448.393,285.174v.008s-19.092.378-35.377.346c-12.228-.025-22.875-.281-22.657-1.1q.255-.957.562-2.015l20.547-.195,36.449-.344q.232,1.652.476,3.3" fill="#7c7da2"/><path d="M451.461,193.978c-3.926,8.151-9.2,25.414-6.933,57.177.7,9.8,1.9,20.257,3.388,30.718l-36.449.344a182.418,182.418,0,0,1-9.994-29.238c7.514-19.133,15.747-38.211,15.851-38.453-.075.016-4.951,1.135-5.688-1.238-.74-2.391,7.943-.8,7.943-.8a4.469,4.469,0,0,1,1.813-2.364s-5.825-2.8-4.727-4.011,7.461,2.391,7.461,2.391c8.654-10.072,27.335-14.531,27.335-14.531Z" fill="#7073cf"/><path d="M541.348,189.263c-.1-1.119-.375-4.5-.375-4.5s-8.609-7.694-9.023-9.258a24.611,24.611,0,0,1-.2-8.794,42.4,42.4,0,0,1,7.127.946,8.287,8.287,0,0,0,.23,10.305c2.285,3,2.469,7.855,2.245,11.3" fill="#383dab"/><path d="M544.133,183.531c-.079.339.308,2.531.736,6.042.082.665.165,1.379.247,2.136.912,8.48,1.653,22.458-1.835,36.83-3.739,15.409-11.811,40.879-18.189,63.952,2.73-16.435,6.624-36.5,10.982-48.619,8.361-23.246,6.177-47.646,5.307-54.258,0-.028-.015-.154-.033-.351.225-3.441.041-8.294-2.245-11.3a8.287,8.287,0,0,1-.229-10.306,51.586,51.586,0,0,1,14.386,5.3c-3.346,1.921-7.926,5.413-9.127,10.574" fill="#555bc6"/><path d="M572.627,208.594c-1.813,12.314-5.44,25.386-12.612,35.277-4.524,6.239-16.49,32.42-24.815,51.937-2.2,5.146-4.136,9.827-5.621,13.558-.049.119-.1.239-.142.358s-.1.243-.144.364c-.107.269-.213.54-.321.816l0,0c-3.206,3.824-6.752,7.516-7.679,8.472h0l-.233.238s.139-1.09.4-3.025v0c.6-4.465,1.864-13.429,3.6-23.889l0-.007v0c.01-.063.02-.127.031-.19l0-.007q.273-.99.552-1.988c.017-.06.034-.122.05-.181l.3-1.09c.045-.166.093-.333.14-.5l.008-.029.012-.042c.009-.038.021-.073.03-.11l.039-.134.078-.276q.191-.683.387-1.371.114-.411.232-.82c.83-2.927,1.678-5.873,2.532-8.814q.316-1.1.636-2.189.483-1.659.968-3.312.322-1.1.643-2.189l.641-2.18c.106-.363.213-.724.319-1.086l.146-.5q.15-.509.3-1.017c.17-.575.339-1.15.507-1.721s.342-1.159.512-1.737q.215-.734.429-1.459.288-.981.573-1.95.177-.6.354-1.2.152-.522.3-1.04c.05-.173.1-.346.152-.518q.258-.894.518-1.774.116-.4.229-.788.165-.564.328-1.124c.087-.3.174-.6.26-.894q.144-.5.289-1c.048-.166.1-.332.143-.5q.3-1.041.6-2.063c.084-.29.166-.581.249-.868.024-.084.046-.167.071-.249q.1-.358.2-.712.273-.954.539-1.892c.089-.311.176-.623.263-.931s.173-.617.259-.922c.117-.421.235-.838.35-1.253q.533-1.91,1.023-3.722c.068-.252.136-.5.2-.751.113-.421.226-.839.334-1.251.036-.134.071-.266.1-.4q.456-1.722.861-3.326c.037-.143.072-.285.108-.427.142-.565.277-1.119.41-1.661,3.488-14.372,2.747-28.351,1.835-36.83,2.82.555,10.982,2.419,14.9,6,0,0-2.251-8.69-15.146-8.136-.427-3.511-.815-5.7-.736-6.043,1.2-5.16,5.781-8.652,9.127-10.573a41.962,41.962,0,0,1,16.968,17.17c.058.108.115.217.173.327q1.1,2.112,1.981,4.139v0a47.553,47.553,0,0,1,.244,14" fill="#7073cf"/><path d="M574.11,229.709s-15.165,34.935-19.041,42.1-18.3,27.172-21.268,32.5a48.029,48.029,0,0,1-4.83,6.586c.108-.276.215-.547.321-.816.049-.121.1-.242.144-.363s.094-.239.142-.359c1.981-5.036,3.616-9.025,5.621-13.558,4.283-9.688,10.238-21.84,24.815-51.937,5.326-10.995,10.8-22.963,12.612-35.277a47.547,47.547,0,0,0-.243-14c9.148,20.984,1.727,35.112,1.727,35.112" fill="#575cc5"/><path d="M560.015,197.709c-3.916-3.58-12.078-5.445-14.9-6-.083-.757-.166-1.471-.247-2.136,12.9-.554,15.145,8.136,15.145,8.136" fill="#6367cc"/><path d="M618.872,404.119h-87.7c-3.248-15.368-5.725-33.924-7.547-50.965,23.762-5.8,43.169-27.632,58.132-52.6,1.438,14.545,6.519,38.32,22.7,65.465,3.241,5.438,6.93,11.012,11.121,16.674h0c.971,6.8,2.133,14.353,3.291,21.422" fill="#5e64ca"/><path d="M531.17,404.119H522.5s-1.579-23.749-1.842-50.33c-.095-9.552-.021-19.47.359-28.782.645,8.145,1.506,17.871,2.6,28.147,1.821,17.041,4.3,35.6,7.547,50.965" fill="#4b4fb6"/><path d="M662.629,280.048l-3.3-7.505c-.147.626-.794-1.427-1.677-4.561l0-.008c-2.079-7.38-5.466-20.737-6.712-19.158a146.961,146.961,0,0,0-8.656,13.369.394.394,0,0,0-.022.039c-.384.648-.754,1.276-1.1,1.876-.005.008-.01.018-.017.028-6.01,10.588-19.629,39.093-19.629,39.093,5.973-19.178,9.589-44.324,10.775-53.441v0a21.337,21.337,0,0,0-2.01-4.2c-.552-.418,2.912-.609,3.628-.664s.548-1.813,0-2.857-5.016,1.2-5.016,1.2-3.214-11.376-6.924-18.177a58.992,58.992,0,0,0-5.122-7.587,88.23,88.23,0,0,0-6.707-7.745c-.659-.577,2.72-.741,4.2-.825s1.815-.33,1.486-1.319-8.245,0-8.245,0-1.593-.384-1.867-1.208,5.55-3.243,5.714-4.177-.6-1.7-1.813-2.252-5.33,5.165-6.265,5.054-1.924-1.429-1.924-1.429c-3.169-2.022-24.343-10.678-31.2-13.461.059.108.115.218.173.327q1.1,2.112,1.981,4.14l0,0c9.148,20.984,1.727,35.112,1.727,35.112s-15.165,34.935-19.041,42.106-18.3,27.171-21.268,32.5a48.031,48.031,0,0,1-4.83,6.587h0c-3.205,3.825-6.752,7.517-7.679,8.472v0q-.157,2.768-.273,5.627c.646,8.144,1.507,17.87,2.606,28.147,23.761-5.8,43.168-27.632,58.131-52.6-.975-9.87-.275-15.489-.225-15.027.47,4.384,1.082,8.494,1.807,12.347,8.053,42.789,30.208,54.21,30.1,62.717a70.128,70.128,0,0,0,9.545,6.532h0c40.13,2.08,45.6-73.549,45.6-73.549ZM535.446,340.577a6.478,6.478,0,0,1-6.477-6.476c0-.078,0-.154.005-.23s.005-.137.01-.206c0-.021,0-.042.005-.063.006-.068.013-.138.019-.2a6.476,6.476,0,0,1,12.876,0c.006.067.013.137.019.2l.005.063c.005.069.008.137.01.206s0,.152,0,.23a6.478,6.478,0,0,1-6.477,6.476" fill="#7073cf"/><path d="M641.139,264.127c-6.01,10.588-19.63,39.093-19.63,39.093,5.973-19.178,9.589-44.323,10.776-53.441,2.487,6.057,6.213,16.852,5.5,20.18,0,0,1.392-2.484,3.35-5.832" fill="#464db8"/><path d="M680.863,308.359c-1.122,2.673-13.744,32.526-23.661,44.569-9.02,10.954-15.245,24.707-34.226,14.2h0c40.13,2.08,45.6-73.549,45.6-73.549s.127.226.382.638a66.074,66.074,0,0,0,6.674,8.862,67.172,67.172,0,0,0,5.217,5.271l.013.011" fill="#585dca"/><path d="M689.158,296.034a13.932,13.932,0,0,1-.466,3.726c-2.309,7.913-7.749,8.407-7.749,8.407s-.028.066-.079.192l-.013-.011c-.186-.175-2.588-2.441-5.218-5.271a66.054,66.054,0,0,1-6.673-8.862,4.151,4.151,0,0,1-.383-1.545c0-.045.272-.084.712-.187,1.96-.465,7.253-2.236,6.643-11.639v-.015a30.611,30.611,0,0,0-.412-3.3c-.108-.6-.236-1.23-.386-1.882.078.115,2.476,3.64,5.887,8.607,2.37,3.45,5.227,7.6,8.138,11.775" fill="#323b9e"/><path d="M689.158,296.034l-8.113-12.115-.1-.152s.3-4.216.784-7.481a24.5,24.5,0,0,1,.5-2.605c.212-.778.444-1.23.691-1.124.433.186,1.674,2.938,2.936,6.726,1.653,4.959,3.344,11.69,3.3,16.751" fill="#1f2466"/><path d="M613.867,369.755c-.132-1.138-.25-2.194-.347-3.154-.408-3.992-.491-6.327-.089-6.007-.026,1.9.05,3.953.186,6.013.069,1.054.155,2.108.25,3.148" fill="#393eae"/><path d="M615.581,382.7l0,0v-.006l0,.008" fill="#393eae"/><path d="M541.923,334.1a6.477,6.477,0,0,1-12.953,0c0-.078,0-.153.005-.229s.005-.137.009-.207c0-.021,0-.042.005-.063a6.477,6.477,0,0,1,12.915,0l0,.063c.005.07.009.137.01.207s0,.151,0,.229" fill="#4f3eae"/><path d="M541.923,334.1a6.477,6.477,0,0,1-12.953,0c0-.078,0-.153.005-.229s.005-.137.009-.207c0-.021,0-.042.005-.063.012-.135.026-.271.045-.4a6.475,6.475,0,0,0,12.824,0c.02.134.034.27.046.4l0,.063c.005.07.009.137.01.207s0,.151,0,.229" fill="#3d42a4"/><path d="M615.58,382.689v.006c-4.192-5.661-7.881-11.235-11.122-16.674-16.184-27.144-21.265-50.919-22.7-65.464-.975-9.87-.274-15.489-.224-15.027.47,4.384,1.081,8.494,1.806,12.347,8.054,42.789,30.208,54.21,30.1,62.717-.4-.319-.319,2.015.089,6.007.1.96.215,2.016.347,3.154.594,6.432,1.587,12.219,1.7,12.879l.005.028a.269.269,0,0,0,.005.027" fill="#3b3fad"/><path d="M669.289,292.482c-.441.1-.712.142-.712.187-2.157-4.25-4.145-8.514-5.947-12.622-1.863-4.249-3.529-8.331-4.977-12.065l0-.008c-2.079-7.381-5.466-20.737-6.712-19.159,1.356-11.6,5.314-15.217,8.2-16.27a6.266,6.266,0,0,1,2.851-.366c.028.106.058.213.087.319l.22.777a37.683,37.683,0,0,0,.1,6.67v0c.677,2.9,1.724,6.382,2.935,10.013l0,.006c4.007,12.012,9.794,25.682,9.794,25.682l0,0c.15.653.277,1.279.386,1.883a30.287,30.287,0,0,1,.411,3.294l0,.015c.408,8.557-4.72,11.019-6.643,11.639" fill="#4e51b9"/><path d="M662.4,232.248a.961.961,0,0,0-.32.25c-.029-.106-.059-.213-.087-.319a3.172,3.172,0,0,1,.407.069" fill="#4e52b5"/><path d="M669.289,292.482a5.465,5.465,0,0,1-.712.187c0-.045.271-.084.712-.187" fill="#4e52b5"/><path d="M675.93,280.829a30.109,30.109,0,0,0-.412-3.3c-.108-.6-.235-1.23-.385-1.882.164.671.3,1.319.414,1.939a24.8,24.8,0,0,1,.383,3.238" fill="#4e52b5"/><path d="M688.36,250.114a126.394,126.394,0,0,0-6.13,23.567,24.548,24.548,0,0,0-.5,2.605c-6.754-6.014-12.3-16.483-16.39-26.319l0-.006c-1.211-3.631-2.259-7.11-2.935-10.014h0a37.694,37.694,0,0,1-.1-6.671c3.8,13.244,11.658,31.022,26.064,16.839" fill="#cf5243"/><path d="M734.771,244.448c-1.484,3.3-18.878-4.782-20.939-4.782a3.688,3.688,0,0,0-.389.023c-1.4-.817-3.472-1.663-4.969-.715-2.132,1.35-4.693,3.766-13.2,3.14a10.455,10.455,0,0,1,2.145-1.376c6.77-3.3,11.839-.994,15.426-7.462a5.86,5.86,0,0,1,5.237-3.2,4.008,4.008,0,0,0,.4,1.373s17.779,9.7,16.295,13" fill="#d36660"/><path d="M696.646,206.9c.741,2.6-.806,15.828-2.691,18.177s0-19.908,0-19.908l9.289-8.736c-1.3,1.306-2.27,2.182-2.27,2.182s3.742-.69,8.841-1.509c-5.1,2.777-13.7,7.934-13.169,9.794" fill="#ab382f"/><path d="M750.062,212.341c-1.484,2.967-31.887,2.953-32.383,4.685s-.439,2.775,2.722,2.445c1.588-.166,28.442,3.187,26.981,8.847-.439,1.7-28.135-1.043-28.96.221a2.383,2.383,0,0,0-.341,1.538,5.863,5.863,0,0,0-5.236,3.2c-3.587,6.469-8.656,4.167-15.427,7.463a10.521,10.521,0,0,0-2.145,1.375c-1.361-.1-2.873-.277-4.562-.55,0,0-8.461,7.49-9.318,13.252-10.06,3.4-15.957-10.611-19.1-21.54.028-.345.062-.688.1-1.027,0,0,7.142-24.317,16.473-31.736s14.686-10.923,17.282-11.665,8.464-3.4,10.139-5.316c.866-.99,4.58.934,3.1,4.891-.927,2.47-3.975,5.828-6.135,8l-.008.008-9.288,8.737s-1.884,22.256,0,19.907,3.432-15.579,2.691-18.177c-.531-1.859,8.07-7.017,13.169-9.794,9.963-1.6,25.114-3.7,27.676-2.116,3.874,2.391-22.01,9.644-24.812,11.458s1.813.906,1.813.906,39-1.878,35.569,4.988" fill="#d36c61"/><path d="M680.943,283.767l.1.152c-.008.113-.015.227-.024.34-3.411-4.967-5.81-8.492-5.888-8.607v0s-5.788-13.67-9.794-25.682c4.089,9.836,9.635,20.305,16.39,26.319-.487,3.265-.784,7.481-.784,7.481" fill="#b23023"/><path d="M713.443,239.689a9.837,9.837,0,0,0-4.144,2.039s-9.944,5.048-16.659,4.134a8.469,8.469,0,0,1-2.3-.623s-.818,1.748-1.979,4.875a18.908,18.908,0,0,1-6.967,4.7c.857-5.762,9.318-13.252,9.318-13.252,1.688.273,3.2.451,4.562.551,8.509.626,11.069-1.791,13.2-3.14,1.5-.948,3.568-.1,4.969.715" fill="#be6865"/><path d="M477.807,129.744s-17.616,59.227,2.827,87.913,25.689,36.95,26.336,40.186c2.844,14.219-.37,12.488-1.607,51.478-1.423,44.862-1.367,48.8-1.367,48.8" fill="none" stroke="#e5d6b2" stroke-miterlimit="10" stroke-width="2.099"/><path d="M548.1,146.453s-3.792,32.114,6.6,44.826c3.992,4.886,9.44,8.9,14.6,13.778a42.065,42.065,0,0,1,2.928,58.07,96.242,96.242,0,0,1-20.66,17.772c-27.417,17.787-45.75,63.8-45.75,63.8" fill="none" stroke="#e5d6b2" stroke-miterlimit="10" stroke-width="2.099"/><path d="M515.416,395.71H479.6c-6.225-16.214-9.46-37.46-10.944-59.106a29.162,29.162,0,0,0,3.318-2.828,134.457,134.457,0,0,0,43.77,2.522c-2.281,22.464-1,48.864-.328,59.412" fill="#fff8ef"/><path d="M595.737,402.51s-73.064.718-76.312.034l-20.934-119.9,3.769.005s3.627,1.154,3.957,9.067S523.033,394.1,523.033,394.1l72.7-.741s5.936,5.563,0,9.15" fill="#6218b3"/><path d="M519.424,402.544a.322.322,0,0,1-.1-.034c-.989-.742-154.064,0-154.064,0s-2.473-.495-3.463-6.183c-.137-.789-.555-3.491-1.175-7.561l1.169-.1.987-.086c.193-.016.385-.034.575-.051s.383-.036.573-.054c.383-.034.764-.071,1.143-.108.271-.026.543-.053.814-.082l.518-.053c.368-.038.734-.078,1.1-.118.319-.034.638-.07.955-.107.175-.019.348-.039.522-.06s.347-.04.52-.061l.594-.071.591-.073q.553-.068,1.1-.14c.368-.047.733-.1,1.1-.145q1.094-.146,2.177-.3t2.154-.325q.534-.082,1.067-.169t1.06-.175l.48-.08.476-.081c.32-.055.636-.112.952-.166.423-.075.846-.152,1.268-.228l.955-.179.008,0c.351-.066.7-.132,1.048-.2l.5-.1c.184-.038.367-.073.549-.11.337-.066.673-.136,1.007-.2l.018,0c.32-.067.639-.133.957-.2l.071-.014h0l.066-.015c.26-.055.52-.109.778-.168q.625-.132,1.248-.274c.216-.047.428-.1.642-.145l.06-.013.087-.02.993-.23.055-.013.029-.007q.5-.115.991-.235c.3-.07.59-.143.883-.215.381-.094.761-.187,1.138-.284l.08-.02.812-.208c.355-.09.71-.184,1.062-.278l.85-.227c.159-.042.317-.086.475-.129l.475-.131c.222-.061.442-.123.663-.186l.147-.04q.535-.15,1.067-.3.468-.134.93-.271c.234-.068.466-.138.7-.207l.224-.068c.041-.011.079-.024.12-.037.268-.079.536-.161.8-.244q.458-.139.912-.282l.681-.215c.078-.024.154-.048.23-.074q.408-.131.818-.265l.081-.026q.031-.009.063-.021c.3-.1.6-.193.891-.294q.331-.108.663-.221c.081-.027.163-.055.244-.084.271-.09.542-.184.812-.277.294-.1.588-.2.88-.307s.584-.205.873-.31l.781-.281c.063-.022.126-.045.188-.069.261-.1.523-.192.783-.289.321-.12.644-.241.963-.362q.366-.138.727-.277l.744-.289c.366-.142.731-.288,1.1-.433.023-.01.047-.018.069-.028l.612-.246.878-.359.018-.008q.381-.154.759-.315c.268-.111.536-.224.8-.339l.116-.048c.026-.011.051-.023.076-.032l.049-.021.006,0,.585-.251c.189-.081.377-.164.565-.246s.347-.152.519-.229l.076-.034.554-.245.542-.244q.74-.336,1.469-.675.276-.128.549-.257.5-.232.983-.468c.18-.085.357-.171.535-.258.156-.074.313-.152.468-.228.181-.088.363-.177.544-.268.258-.125.513-.253.768-.382s.51-.257.764-.386.507-.258.759-.389.5-.26.752-.392l.46-.242.05-.026.483-.259c.29-.155.581-.311.87-.468l.6-.326c.242-.134.485-.266.725-.4s.5-.281.752-.423.517-.292.774-.44c.206-.118.415-.238.62-.359l.652-.379.561-.334c.2-.117.393-.233.586-.351q1.107-.664,2.191-1.346c.192-.121.386-.242.576-.363q.393-.249.782-.5.3-.2.607-.392,1.037-.675,2.05-1.364.28-.189.557-.379,1.4-.96,2.757-1.942c.208-.15.416-.3.623-.454s.413-.3.618-.455c.275-.2.546-.4.817-.61q.507-.382,1.009-.767c.2-.155.4-.308.6-.463l.668-.523c.293-.23.581-.46.869-.691.219-.176.437-.351.654-.528l.108-.087c.176-.142.35-.286.523-.428l.127-.107q.546-.445,1.08-.9c.02-.016.037-.033.057-.049.185-.156.369-.313.554-.471s.368-.313.55-.471q.545-.471,1.082-.943.285-.252.566-.505c.36-.32.715-.641,1.069-.963.182-.166.361-.332.542-.5q.489-.451.972-.908c.016-.016.034-.03.05-.046q.8-.759,1.587-1.521.492-.481.977-.964l.038-.039q.492-.489.972-.979a.185.185,0,0,1,.028-.028q.477-.486.947-.976c.013-.012.023-.023.034-.034.268-.28.536-.561.8-.841.008-.009.014-.017.022-.025.192-.205.385-.41.575-.615.158-.168.313-.336.468-.5s.312-.339.465-.509.31-.339.462-.508q.486-.54.967-1.083c.281-.318.56-.638.834-.957q.192-.221.38-.441c.043-.049.085-.1.127-.149q.406-.474.8-.95c.024-.028.047-.057.071-.084q.288-.345.572-.688.319-.385.632-.773.16-.2.315-.388l.086-.105q.936-1.167,1.837-2.337c.1-.126.194-.252.289-.378s.193-.252.287-.378l.015-.018c.216-.285.431-.573.644-.858q.266-.357.526-.712c.192-.26.383-.522.57-.781s.378-.522.562-.783l.3-.428.058-.083c.043-.062.089-.124.131-.187.117-.164.232-.331.347-.495.243-.351.486-.7.723-1.048.119-.174.237-.349.355-.523s.236-.35.352-.525l.295-.442q1.418-2.136,2.716-4.262c.106-.174.213-.348.318-.521v0c.1-.173.208-.347.312-.52s.213-.355.318-.532.21-.354.313-.531.2-.331.291-.5l.261-.45c.021-.038.044-.076.065-.113.09-.159.18-.315.271-.473.168-.294.332-.586.5-.879q.669-1.188,1.3-2.371c.063-.118.128-.237.191-.357.092-.171.182-.342.271-.511s.179-.341.268-.511q.61-1.168,1.188-2.327c.119-.239.239-.478.355-.717q.249-.5.491-1.006h0q.242-.5.478-1c.079-.167.156-.333.234-.5s.156-.333.232-.5.153-.331.229-.5q.371-.805.724-1.6.19-.429.377-.855c.071-.164.142-.325.212-.488.008-.016.014-.032.021-.047l.26-.605q.377-.883.736-1.758c.066-.16.131-.32.2-.478q.293-.714.57-1.42c.045-.115.09-.228.136-.343.017-.042.033-.085.05-.127.084-.217.169-.434.251-.649s.165-.431.247-.646l.046-.118c.056-.15.113-.3.168-.445s.116-.307.172-.46c.113-.307.226-.611.336-.914l.165-.454c.163-.452.323-.9.478-1.346.046-.134.093-.268.14-.4l.166-.486c.05-.147.1-.294.15-.439s.1-.293.147-.438.1-.29.146-.434c.066-.2.132-.4.2-.6.076-.232.151-.465.225-.694q.418-1.3.794-2.549c.065-.211.128-.42.187-.628.044-.147.088-.292.129-.437s.086-.291.128-.435q.375-1.295.707-2.528c.045-.171.092-.34.137-.51s.089-.337.133-.5c.032-.125.064-.247.1-.37h.76Z" fill="#781ddb"/><path d="M350.419,282.654c-.075,0-.15.008-.224.014a5.077,5.077,0,0,0-4.565,5.833c.618,4.156,1.894,12.737,3.472,23.333.849,5.7,1.785,11.988,2.752,18.48.441,2.951.888,5.944,1.337,8.945,1,6.681,2,13.4,2.954,19.767v0c1.805,12.058,3.427,22.853,4.475,29.738l1.169-.1.988-.086c.192-.016.384-.034.574-.051s.383-.036.573-.054q.574-.053,1.143-.108l.814-.082.518-.053c.368-.038.734-.078,1.1-.118.32-.034.638-.07.956-.107.174-.019.347-.039.521-.06s.347-.04.52-.061l.594-.071.591-.073q.553-.068,1.1-.14c.368-.047.733-.1,1.1-.145q1.1-.148,2.177-.3t2.154-.325q.535-.082,1.067-.169t1.06-.175l.48-.08.476-.081c.32-.055.636-.112.952-.166.423-.075.846-.152,1.268-.228l.955-.179.008,0c.351-.066.7-.134,1.048-.2l.5-.1.549-.109,1.007-.2a.066.066,0,0,0,.018,0c.32-.066.639-.132.957-.2l.071-.014h0l.066-.015c.26-.055.52-.111.778-.168q.625-.132,1.248-.274c.216-.047.428-.1.643-.145l.059-.013.088-.02.992-.23.055-.013.029-.007q.5-.115.991-.236l.883-.214c.381-.094.759-.189,1.139-.284l.079-.02.812-.208c.355-.092.708-.184,1.062-.278l.851-.227c.158-.044.316-.086.474-.129l.475-.131c.222-.062.442-.123.663-.186l.147-.04q.535-.15,1.067-.3.468-.134.93-.271c.234-.068.466-.138.7-.207l.224-.068c.041-.011.079-.024.12-.037.268-.079.536-.161.8-.244q.458-.139.912-.282l.681-.215c.078-.024.154-.048.23-.074.274-.087.547-.176.818-.265l.081-.026q.031-.009.063-.021c.3-.1.6-.194.891-.294q.331-.108.663-.221c.081-.027.163-.055.244-.084l.812-.277c.294-.1.588-.2.88-.307s.583-.205.873-.31l.782-.281c.062-.023.125-.045.187-.069.261-.1.523-.192.783-.289.321-.12.644-.241.963-.362.243-.092.485-.184.727-.278l.744-.288c.367-.143.731-.288,1.1-.433l.07-.028.611-.247.879-.358.017-.008c.254-.1.507-.21.759-.315l.8-.339.117-.048c.025-.011.05-.023.075-.032l.049-.021.006,0,.585-.252c.189-.08.377-.163.565-.245s.347-.152.519-.229l.076-.034.554-.245.542-.244q.74-.338,1.469-.675l.549-.257q.5-.232.983-.468c.18-.085.357-.171.535-.258.156-.074.313-.152.468-.228.181-.088.363-.177.544-.268.258-.126.513-.253.768-.382s.51-.257.764-.386.507-.258.759-.389.5-.26.752-.392l.46-.242.05-.026.483-.259c.29-.155.581-.311.87-.468l.6-.326.725-.4c.252-.14.5-.281.753-.423s.516-.292.773-.44c.206-.118.415-.238.62-.359l.652-.379.562-.334c.2-.117.392-.233.586-.351.737-.444,1.469-.892,2.19-1.346.192-.121.386-.242.576-.363q.393-.249.782-.5.3-.2.607-.392,1.037-.675,2.05-1.364.28-.189.557-.379,1.4-.96,2.757-1.942c.208-.15.417-.3.623-.454s.413-.3.618-.455q.41-.3.817-.61.507-.382,1.009-.767c.2-.155.4-.308.6-.463l.668-.523q.439-.345.869-.691c.219-.176.437-.351.654-.528l.108-.087c.176-.142.35-.286.523-.428l.127-.107q.546-.447,1.08-.9c.02-.016.037-.033.057-.049.186-.156.37-.313.554-.471s.368-.313.55-.471q.545-.471,1.082-.943.285-.252.566-.505c.36-.32.715-.641,1.069-.963.182-.166.361-.332.542-.5q.489-.451.972-.908c.016-.016.034-.03.05-.046q.8-.759,1.587-1.521.492-.481.977-.964l.038-.039q.489-.489.972-.979a.185.185,0,0,1,.028-.028q.477-.486.947-.977c.012-.011.021-.022.034-.034.268-.279.536-.56.8-.841l.022-.024q.289-.308.575-.615c.157-.168.313-.337.468-.5s.312-.339.465-.509.308-.339.462-.508q.486-.54.967-1.083c.279-.32.558-.638.834-.958.128-.146.254-.293.38-.44.043-.049.085-.1.127-.149.27-.316.538-.632.8-.951.024-.027.047-.056.071-.083q.288-.345.572-.688.319-.385.632-.773l.315-.388.086-.105q.938-1.167,1.837-2.337c.1-.126.194-.252.289-.378s.192-.252.287-.378l.015-.018c.216-.285.431-.573.644-.858q.266-.357.526-.712c.191-.26.381-.522.57-.782s.376-.521.562-.783l.3-.427.058-.083c.043-.063.089-.124.131-.187.118-.164.232-.331.347-.495.244-.351.486-.7.723-1.048.119-.174.237-.349.355-.523s.236-.35.352-.525l.295-.442q1.418-2.136,2.716-4.262l.318-.521v0c.1-.173.209-.347.312-.52s.213-.355.318-.532.21-.354.313-.531.2-.331.291-.5l.261-.45c.021-.038.044-.076.065-.113.09-.159.181-.315.271-.473.168-.294.332-.586.5-.879q.669-1.188,1.3-2.371c.063-.118.128-.237.191-.357q.138-.256.271-.512c.09-.169.179-.34.268-.51q.61-1.168,1.188-2.327c.119-.239.239-.478.355-.717q.248-.5.491-1.006h0q.242-.5.478-1c.079-.167.156-.333.234-.5s.156-.333.232-.5.154-.331.229-.5q.371-.805.724-1.6.19-.429.377-.855c.071-.164.142-.325.212-.488.008-.016.014-.032.021-.047l.26-.605q.378-.883.736-1.758c.066-.16.131-.32.2-.478.2-.476.384-.949.57-1.421l.136-.342c.017-.042.034-.085.05-.127l.252-.649c.083-.217.164-.431.247-.646.014-.039.03-.079.045-.118.056-.15.113-.3.168-.445s.116-.307.172-.46c.113-.307.226-.611.336-.914l.165-.454c.163-.452.323-.9.478-1.346.046-.134.093-.268.14-.4.057-.163.111-.325.166-.486s.1-.294.15-.439.1-.293.147-.438.1-.29.146-.434l.2-.6q.113-.348.224-.694.418-1.3.794-2.549c.065-.211.128-.42.187-.628.044-.147.088-.292.13-.437s.085-.289.127-.435q.375-1.295.707-2.528c.045-.171.092-.34.137-.51s.089-.337.133-.5c.032-.125.064-.247.1-.37-24.9-.026-144.063-.142-147.311.005m80.571,68.633c-2.312.213-4.5-2.975-4.88-7.124s1.182-7.684,3.493-7.9,4.5,2.977,4.88,7.124-1.181,7.684-3.493,7.9" fill="#904ce3"/><path d="M430.99,351.287c-2.312.213-4.5-2.975-4.88-7.124s1.182-7.684,3.493-7.9,4.5,2.977,4.88,7.124-1.181,7.684-3.493,7.9" fill="#fffff9"/></g><g clip-path="url(#h)"><path d="M373.321,235.188c-21.428,24.037-32.094,19.84-37.3,11.812,2.693-13.812,8.9-26.62,21.879-32.16a8.784,8.784,0,0,1,9.907,2.089c3.052,3.307,6.278,9.056,5.514,18.259" fill="#ceadf2"/><path d="M373.321,235.188c-.521,6.293-2.909,14.2-8.49,24.053-17.1,17.355-26.059,14.535-30.621,8.8v0A109.76,109.76,0,0,1,336.021,247c5.206,8.028,15.872,12.225,37.3-11.812" fill="#c298ef"/><path d="M364.831,259.241c-5.644,9.962-14.556,21.911-28.111,36.179a156.752,156.752,0,0,1-2.51-27.376c4.562,5.732,13.524,8.552,30.621-8.8" fill="#a96fe8"/><line y1="82.185" x2="27.247" transform="translate(336.72 214.515)" fill="none" stroke="#781ddb" stroke-miterlimit="10" stroke-width="1.776"/><line x1="6.74" y1="45.716" transform="translate(338.368 225.682)" fill="none" stroke="#781ddb" stroke-miterlimit="10" stroke-width="1.776"/><line y1="24.783" x2="27.041" transform="translate(352.048 225.683)" fill="none" stroke="#781ddb" stroke-miterlimit="10" stroke-width="1.776"/></g><g clip-path="url(#i)"><path d="M320.848,291.741a342.139,342.139,0,0,1-28.4-24.867c8.047-1.828,16.576-10.295,14.969-38.789,5.387,15.721,10.111,36.428,13.436,63.656" fill="#a96fe8"/><path d="M292.443,266.874c-12.11-11.829-25.328-26.6-33.611-41.407,8.872,4.5,17.576,5.058,23.425.58,9.371-7.179,8.176-24.808-2.163-41.045,8.857,6.1,18.9,18.5,27.318,43.082,1.607,28.494-6.922,36.961-14.969,38.79" fill="#c298ef"/><path d="M282.257,226.047c-5.849,4.478-14.553,3.924-23.425-.58h0c-9.134-16.321-12.264-32.68-1.291-45.175,0,0,10.108-3.861,22.553,4.711,10.339,16.237,11.534,33.866,2.163,41.045" fill="#ceadf2"/><line x2="91.17" y2="158.022" transform="translate(254.738 176.583)" fill="none" stroke="#781ddb" stroke-miterlimit="10" stroke-width="2.099"/><line y1="47.152" x2="3.419" transform="translate(298.635 205.516)" fill="none" stroke="#781ddb" stroke-miterlimit="10" stroke-width="2.099"/><line x1="50.494" y1="22.834" transform="translate(240.395 215.573)" fill="none" stroke="#781ddb" stroke-miterlimit="10" stroke-width="2.099"/></g><g clip-path="url(#a)"><line x2="25.3" y2="44.965" transform="translate(319.454 288.65)" fill="none" stroke="#781ddb" stroke-miterlimit="10" stroke-width="1.13"/><line x1="0.002" transform="translate(274.65 277.23)" fill="none" stroke="#781ddb" stroke-miterlimit="10" stroke-width="2.064"/><line x1="0.002" transform="translate(274.65 277.23)" fill="none" stroke="#781ddb" stroke-miterlimit="10" stroke-width="2.064"/></g><g clip-path="url(#k)"><path d="M315.429,308.579c-15.88,14.028-29.316,21.782-40.514,25.557A48.9,48.9,0,0,0,285.4,323.784a45.968,45.968,0,0,0,8.881-20.119,178.816,178.816,0,0,1,21.146,4.914" fill="#a96fe8"/><path d="M294.284,303.666a45.983,45.983,0,0,1-8.882,20.119,48.924,48.924,0,0,1-10.486,10.352c-13.962,4.711-24.447,3.24-31.858.042a34.7,34.7,0,0,1-8.351-5.106,55.347,55.347,0,0,0,5.726-.118,56.633,56.633,0,0,0,17.933-4.242c11.319-4.828,16.9-14.044,18.07-23.115a155.141,155.141,0,0,1,17.848,2.068" fill="#c298ef"/><path d="M276.436,301.6c-1.174,9.071-6.751,18.287-18.07,23.115a56.638,56.638,0,0,1-17.934,4.242,55.328,55.328,0,0,1-5.725.118A32.917,32.917,0,0,1,230.563,325a4.606,4.606,0,0,1-.682-4.875,27.365,27.365,0,0,1,12.435-13.013c9.457-5.077,22.052-6.155,34.12-5.514" fill="#ceadf2"/><path d="M245.011,301.431c.495.036,39.429,11.269,39.429,11.269" fill="none" stroke="#781ddb" stroke-miterlimit="10" stroke-width="1.776"/><line y1="25.446" x2="28.521" transform="translate(239.735 315.266)" fill="none" stroke="#781ddb" stroke-miterlimit="10" stroke-width="1.776"/><path d="M315.429,308.579s-76.848,9.374-89.542,15.309" fill="none" stroke="#781ddb" stroke-miterlimit="10" stroke-width="1.776"/></g><g clip-path="url(#a)"><line y1="0.243" x2="16.948" transform="translate(313.719 308.579)" fill="#6984bd"/><line y1="0.243" x2="16.948" transform="translate(313.719 308.579)" fill="none" stroke="#781ddb" stroke-miterlimit="10" stroke-width="1.13"/><line x1="0.779" y2="22.806" transform="translate(336.72 292.18)" fill="none" stroke="#781ddb" stroke-miterlimit="10" stroke-width="1.13"/></g><g clip-path="url(#m)"><path d="M436.369,255.2q-1.767,1.264-3.744,2.583c-40.4,26.933-89.791,44.372-90.177,44.508.044-.138,5.414-16.758,19.2-35.037-.414.683-19.947,33.366,74.726-12.054" fill="#a96fe8"/><path d="M454.119,236.535c-2.047,4.941-7.2,11.111-17.747,18.658l0,0c-94.673,45.419-75.14,12.736-74.725,12.054l.005-.009,0,0a126.6,126.6,0,0,1,21.914-22.7c3.278,5.637,11.284,9.566,29.566,5.188a270.386,270.386,0,0,0,40.988-13.19" fill="#c298ef"/><path d="M454.119,236.535a270.386,270.386,0,0,1-40.988,13.19c-18.282,4.378-26.288.449-29.566-5.188,15.542-12.428,36.226-22.45,63.238-24.348,0,0,12.088,4.834,7.316,16.346" fill="#ceadf2"/><line y1="40.761" x2="16.769" transform="translate(384.896 229.319)" fill="none" stroke="#781ddb" stroke-miterlimit="10" stroke-width="1.13"/><line x2="38.801" transform="translate(399.677 257.899)" fill="none" stroke="#781ddb" stroke-miterlimit="10" stroke-width="1.13"/><path d="M328.679,333.616c.5-2.144,12.282-28.686,12.282-28.686l108.522-86.925" fill="none" stroke="#781ddb" stroke-miterlimit="10" stroke-width="1.13"/></g><g clip-path="url(#a)"><line x1="15.133" y2="33.503" transform="translate(327.608 301.431)" fill="#9ec2fe"/><line x1="15.133" y2="33.503" transform="translate(327.608 301.431)" fill="none" stroke="#781ddb" stroke-miterlimit="10" stroke-width="0.969"/><path d="M353.1,336.746c-14.86-.229-34.811.234-40.856.389-.559-3.789-1.106-7-1.626-9.26,10.235-.033,27.314-.082,41.145-.074.441,2.951.888,5.944,1.337,8.945" fill="#6d1ac7"/><path d="M356.049,356.512v0c-2.647,12.263-11.318,26.815-37.279,33.538-.1-.453-.187-.931-.265-1.432-1.331-8.528-3.885-35.3-6.266-51.486,6.045-.155,26-.618,40.856-.389,1,6.682,2,13.4,2.954,19.767" fill="#6218b3"/><path d="M365.162,400l-38.578-.66s-5.834-.15-7.814-9.284c25.962-6.724,34.632-21.275,37.279-33.539,1.8,12.059,3.427,22.854,4.475,29.739.62,4.07,1.038,6.772,1.175,7.561.99,5.687,3.463,6.183,3.463,6.183" fill="#57159f"/><path d="M561.089,507.938l-25.983,85.433c-8.251-12.618-35.558-9.132-56.193,3.651a83.118,83.118,0,0,0-9.42,6.779l29.156-95.863Z" fill="#c29cef"/><path d="M547.011,647.908H482.722a19.745,19.745,0,0,1-18.891-25.491l5.662-18.616a83.118,83.118,0,0,1,9.42-6.779c20.636-12.783,47.942-16.269,56.194-3.651l-7.829,25.739-.812,2.46a19.553,19.553,0,0,0,15.107,25.357Z" fill="#ceb0f3"/><path d="M596.366,647.908H482.72a19.745,19.745,0,0,1-18.89-25.49l34.819-114.481" fill="none" stroke="#781ddb" stroke-linecap="round" stroke-miterlimit="10" stroke-width="3.579"/><path d="M699.964,574a3.748,3.748,0,0,1-3.386,2.121H524.29a5.113,5.113,0,0,1-4.891-3.612l-63.07-205.216a5.611,5.611,0,0,1,5.364-7.257H631.17a5.541,5.541,0,0,1,5.292,3.911l63.712,207.307a3.725,3.725,0,0,1-.21,2.746" fill="#f2ebfb"/><path d="M695.476,579.46H517.688a4.461,4.461,0,0,1-3.73-2.016,4.807,4.807,0,0,0,2.807.422,5.358,5.358,0,0,0,3.923-3.228,5.117,5.117,0,0,0,3.6,1.481H696.578A3.749,3.749,0,0,0,699.964,574a4.575,4.575,0,0,1-4.488,5.462" fill="#57179f"/><path d="M520.687,574.638a5.354,5.354,0,0,1-3.923,3.228,4.8,4.8,0,0,1-2.806-.422l0,0a4.425,4.425,0,0,1-.53-1.134L451.2,372.86a9.914,9.914,0,0,1,9.478-12.825h1.009a5.611,5.611,0,0,0-5.364,7.256L519.4,572.507a5.133,5.133,0,0,0,1.289,2.131" fill="#781ddb"/><path d="M665.4,480.59l-164.794-.8a6.976,6.976,0,0,1-6.126-4.593L459.388,367.6c-.823-2.525.585-4.561,3.145-4.549l164.794.8a6.975,6.975,0,0,1,6.125,4.593l35.089,107.6c.823,2.524-.584,4.56-3.144,4.548" fill="#781ddb"/><path d="M481.343,382.04l-6.523-.032a3.674,3.674,0,0,1-3.228-2.42l-2.273-6.968a1.688,1.688,0,0,1,1.657-2.4l6.524.031a3.677,3.677,0,0,1,3.228,2.421L483,379.643a1.688,1.688,0,0,1-1.657,2.4" fill="#6218b3"/><path d="M488.735,404.708l-6.523-.032a3.674,3.674,0,0,1-3.228-2.42l-2.273-6.968a1.688,1.688,0,0,1,1.657-2.4l6.524.031a3.677,3.677,0,0,1,3.228,2.421l2.272,6.968a1.688,1.688,0,0,1-1.657,2.4" fill="#6218b3"/><path d="M496.128,427.376l-6.523-.032a3.674,3.674,0,0,1-3.228-2.42l-2.273-6.968a1.688,1.688,0,0,1,1.657-2.4l6.524.031a3.677,3.677,0,0,1,3.228,2.421l2.272,6.968a1.688,1.688,0,0,1-1.657,2.4" fill="#6218b3"/><path d="M503.52,450.044,497,450.012a3.674,3.674,0,0,1-3.228-2.42l-2.273-6.968a1.688,1.688,0,0,1,1.657-2.4l6.524.031a3.677,3.677,0,0,1,3.228,2.421l2.272,6.968a1.688,1.688,0,0,1-1.657,2.4" fill="#6218b3"/><path d="M510.913,472.712l-6.523-.032a3.674,3.674,0,0,1-3.228-2.42l-2.273-6.968a1.688,1.688,0,0,1,1.657-2.4l6.524.031a3.677,3.677,0,0,1,3.228,2.421l2.272,6.968a1.688,1.688,0,0,1-1.657,2.4" fill="#6218b3"/><path d="M627.027,382.747l-6.523-.032a3.674,3.674,0,0,1-3.228-2.42L615,373.327a1.688,1.688,0,0,1,1.657-2.4l6.523.031a3.679,3.679,0,0,1,3.229,2.421l2.272,6.968a1.688,1.688,0,0,1-1.657,2.4" fill="#6218b3"/><path d="M634.419,405.415l-6.523-.032a3.674,3.674,0,0,1-3.228-2.42l-2.273-6.968a1.688,1.688,0,0,1,1.657-2.4l6.524.031a3.677,3.677,0,0,1,3.228,2.421l2.272,6.968a1.688,1.688,0,0,1-1.657,2.4" fill="#6218b3"/><path d="M641.812,428.083l-6.523-.032a3.674,3.674,0,0,1-3.228-2.42l-2.273-6.968a1.688,1.688,0,0,1,1.657-2.4l6.524.031a3.677,3.677,0,0,1,3.228,2.421l2.272,6.968a1.688,1.688,0,0,1-1.657,2.4" fill="#6218b3"/><path d="M649.2,450.751l-6.523-.032a3.674,3.674,0,0,1-3.228-2.42l-2.273-6.968a1.688,1.688,0,0,1,1.657-2.4l6.524.031a3.678,3.678,0,0,1,3.228,2.421l2.272,6.968a1.688,1.688,0,0,1-1.657,2.4" fill="#6218b3"/><path d="M656.6,473.419l-6.523-.032a3.674,3.674,0,0,1-3.228-2.42L644.573,464a1.688,1.688,0,0,1,1.657-2.4l6.523.031a3.679,3.679,0,0,1,3.229,2.421l2.272,6.968a1.688,1.688,0,0,1-1.657,2.4" fill="#6218b3"/><path d="M599.572,420.3c6.122,18.772-4.347,33.915-23.383,33.823s-39.43-15.385-45.552-34.158,4.347-33.915,23.383-33.822,39.43,15.385,45.552,34.157" fill="#9d5be5"/><path d="M580.973,420.949l-16.537,15.2a.933.933,0,0,1-1.52-.4l-9.984-30.615a.934.934,0,0,1,1.357-1.1l26.521,15.412a.934.934,0,0,1,.163,1.495" fill="#fff"/><path d="M566.494,520.205h.1l.041.124h-.1Z" fill="#fff"/><path d="M675.979,499.022l-173.951-.844-3.7-11.334,173.951.844Z" fill="#6218b3"/><path d="M680.082,511.887l-173.951-.844-3.5-10.722,173.951.845Z" fill="#411077"/><path d="M576.175,498.538l-40.692-.2-3.7-11.334,40.692.2Z" fill="#9146e2"/><path d="M676.2,499.023l-40.692-.2-3.7-11.334,40.692.2Z" fill="#411077"/><path d="M637.369,498.834l-40.692-.2-3.7-11.334,40.692.2Z" fill="#9146e2"/><path d="M684.969,526.591l-173.951-.844-3.7-11.334,173.951.844Z" fill="#411077"/><path d="M614.365,526.248l-40.692-.2-3.7-11.334,40.692.2Z" fill="#9146e2"/><path d="M528.632,525.832l-17.706-.086-3.7-11.334,17.706.086Z" fill="#9146e2"/><path d="M685.188,526.592l-40.692-.2-3.7-11.334,40.692.2Z" fill="#781ddb"/><path d="M672.763,526.532l-40.692-.2L628.375,515l40.692.2Z" fill="#9146e2"/><path d="M611.744,511.555l-105.613-.513-3.5-10.721,105.614.513Z" fill="#781ddb"/><path d="M685.516,529.824l12.178,39.441a2.958,2.958,0,0,1-2.824,3.83l-165.808.177a5.4,5.4,0,0,1-5.175-3.827l-12.38-40.562Z" fill="#370d64"/></g></g></svg>