<svg xmlns="http://www.w3.org/2000/svg" xmlns:xlink="http://www.w3.org/1999/xlink" width="918.873" height="614.509" viewBox="0 0 918.873 614.509"><defs><clipPath id="a"><rect width="918.873" height="614.509" fill="none"/></clipPath><clipPath id="c"><rect width="137.965" height="9.388" transform="translate(146.763 550.315)" fill="none"/></clipPath><clipPath id="d"><rect width="99.424" height="9.388" transform="translate(130.215 569.476)" fill="none"/></clipPath><clipPath id="e"><rect width="106.487" height="9.389" transform="translate(141.95 510.25)" fill="none"/></clipPath><clipPath id="f"><rect width="137.964" height="9.388" transform="translate(130.215 531.154)" fill="none"/></clipPath></defs><g clip-path="url(#a)"><g clip-path="url(#a)"><path d="M918.873,535.9H63.156a493.31,493.31,0,0,1-5.422-80.089c.679-48.193,2.789-128.562,52.264-212.517C176.382,130.62,282.415,88.956,312.062,77.8c23.325-8.77,91.9-32.088,181.158-24.38,160.666,13.869,266.153,117.7,301.355,156.771,97.742,108.5,121.45,237.1,124.3,325.705" fill="#e6d6f8"/><path d="M668.891,373.793c12.442-13.613,30.382-16.292,35.229-16.849,16.625-1.91,26.245,4.246,44.419,10.722,42.819,15.258,64.974,22.284,90.37,24.507,15.361,1.345,19.557-.039,20.158,1.924,3.779,12.344-153.088,96.606-193.24,56.281-16.454-16.527-15.546-56.223,3.064-76.585" fill="#ceadf2"/><path d="M651.455,431.092c12.713-15.1,30.937-27.719,51.429-27.044,13.2.588,25.031,5.443,37.7,7.964a220.708,220.708,0,0,0,56.6,4.89,222.431,222.431,0,0,1-57.192-1.778c-12.308-1.735-24.792-5.932-37.115-5.8-18.545.447-34.095,12.811-44.86,27.084l-6.561-5.317" fill="#e1e7f9"/><path d="M811.208,278.4H682.632a4.694,4.694,0,1,1,0-9.388H811.208a4.694,4.694,0,0,1,0,9.388" fill="#fff"/><path d="M756.119,297.565H666.083a4.694,4.694,0,1,1,0-9.388h90.036a4.694,4.694,0,0,1,0,9.388" fill="#f3eafc"/><path d="M774.917,238.339h-97.1a4.694,4.694,0,0,1,0-9.388h97.1a4.694,4.694,0,1,1,0,9.388" fill="#fff"/><path d="M513.509,323.549a8.09,8.09,0,0,1,.653-5.226c1.518-2.855,4.664-3.71,7.839-4.572a27.606,27.606,0,0,1,11.105-.654q-.654-15.024-1.307-30.048l15.678-1.307q.327,15.025.653,30.049a22.548,22.548,0,0,1,11.1,2.613,15.619,15.619,0,0,1,5.879,4.572,14.141,14.141,0,0,1,2.613,8.347c-4.932,1.293-47.088,12.055-53.42-.29a7.6,7.6,0,0,1-.8-3.484" fill="#781ddb"/><path d="M354.4,323.549a8.09,8.09,0,0,1,.653-5.226c1.518-2.855,4.664-3.71,7.839-4.572a27.606,27.606,0,0,1,11.105-.654q-.654-15.024-1.307-30.048l15.678-1.307c.218,10.017.6,21.339.813,31.355a32.481,32.481,0,0,1,10.945,1.307c2.056.663,6.019,1.845,7.18,4.645a16.715,16.715,0,0,1,1.182,6.143c-4.932,1.293-46.958,14.186-53.29,1.841a7.6,7.6,0,0,1-.8-3.484" fill="#781ddb"/><path d="M272.468,323.549c-1.577-.1-6.775-.5-11.1,2.613-6.907,4.967-7.089,15.627-7.185,20.25-.357,17.1-1.508,45.789-2.613,82.96V595.945a155.786,155.786,0,0,0,67.935,7.839q66.617,1.764,133.259,2.613,86.877,1.105,173.759.653a40.479,40.479,0,0,0,17.637-4.572,48.072,48.072,0,0,0,15.677-15.025C667.1,576.413,677.387,559.57,674.2,454.2c-1.012-33.508-2.4-46.277-3.484-54.654-1.483-11.46-2.927-18.791-3.846-31.572-1.234-17.169-1.218-20.813-.481-30.049-69.46-1.089-138.294-12.629-207.754-13.718-100.326.223-172.738.212-186.17-.653" fill="#781ddb"/><path d="M228.048,504.71a58.35,58.35,0,0,0-12.64-7.733,59.966,59.966,0,0,0-24.376-5.114,60.756,60.756,0,0,0-22.21,4.246c-2.217.975-12.051,5.4-16.984,10.67-3.023,3.232-2.9,5.387-2.831,5.987a5.376,5.376,0,0,0,1.089,2.613c2.6,3.484,8.323,3.256,11.105,3.7,5.713.916,8.851,6.251,15.569,17.419,15.73,26.154,20.118,32.8,27.762,39.412,6.114,5.289,9.442,8.171,12.847,7.4,11.618-2.62,12.093-43.987,10.669-78.605" fill="#ceadf2"/><path d="M167.08,508.848c19.668-8.719,39.175.344,50.59,17.441a68.874,68.874,0,0,1,8.351,17.743l-3.785,1.051a65.458,65.458,0,0,0-7.05-17.209c-10.242-17.162-28.622-26.5-48.106-19.026" fill="#fff"/><path d="M245.467,455.5c-2.063-7-7.956-23.365-23.951-35.71-5.571-4.3-13.756-10.616-25.2-11.537-14.645-1.18-26.179,7.152-44.911,20.682-13.1,9.464-18.627,16.061-33.75,23.081a115.257,115.257,0,0,1-15.158,5.776,74.4,74.4,0,0,0,6.884,11.426c7.184,9.809,16.5,17.451,23.734,21.121,13.494,6.848,24.237,2.158,64.016-5.226,16.3-3.025,30.05-5.126,40.065-6.532l8.274-23.081" fill="#ceadf2"/><path d="M167.3,456.154c10.742-11.019,26.821-19.592,42.546-19.1,12.361.62,23.416,7.709,31.9,16.313a71.4,71.4,0,0,1,7.832,9.391,2.294,2.294,0,1,1-3.859,2.475,67.27,67.27,0,0,0-6.9-9.12c-7.572-8.463-17.594-15.64-29.147-16.773-15.416-1.114-31.136,6.436-42.373,16.817" fill="#fff"/><path d="M262.016,339.661c-1.093-4.385-5.9-18.967-16.113-28.415-5.624-5.2-13.867-10.606-38.541-10.67-41.587-.108-70.164-1.089-70.091,4.606.088,6.933,21.97,22.285,32.165,42.1,2.624,5.1,3.923,16.363,8.1,25.038.564,1.173,7.175,14.663,18.29,24.823,20.62,18.849,58.545,27.889,70.113,14.589,3.574-4.108,1.5-6.745-1.742-56.831a79.5,79.5,0,0,0-2.177-15.242" fill="#ceadf2"/><path d="M253.428,401.2c-1.54-19.559-9.371-38.845-22.572-53.467-14.911-16.942-36.44-27.468-58.758-30.294a97.964,97.964,0,0,1,44.784,16.066,90.808,90.808,0,0,1,31.11,36.321,96.345,96.345,0,0,1,8.7,31.079Z" fill="#fff"/><path d="M289.451,325.344c-4.7-.856-36.72-7.177-58.355-34.839a94.656,94.656,0,0,1-11.578-28.951c-1.792-8.332-.924-10.011-2.067-28.243-1.557-24.816-4.7-46.079-4.065-46.161a.046.046,0,0,1,.014,0c1.1.122,66.309,7.436,93.18,36.87,13.414,14.693,24.508,42.819,10.452,102.194a93.973,93.973,0,0,1-27.581-.871" fill="#ceadf2"/><path d="M233.775,206.182c4.077,3.938,9.9,9.791,16.482,17.259,11.822,13.419,28.97,33.182,41.589,62.165a195.6,195.6,0,0,1,13.573,46.126l6.024-.508A167.439,167.439,0,0,0,306,304.441a176.59,176.59,0,0,0-28.16-56.032c-10.232-14.039-20.752-24.432-28.017-31.609-5.562-5.5-10.44-9.91-14.045-13.065-1.06-1.034-2.464-.985-2.938-.435s-.31,2,.936,2.882" fill="#fff"/><path d="M250.539,452.76C321.3,469.308,394.4,485.331,465.17,501.88l199.235-54.871c3.172-13.786,10.215-40.657,7.072-66.717-3.007-24.922-14.5-39.055-20.572-51.518q-47.462-1.45-94.936-2.613-45.395-1.111-90.8-1.959H378.291c-32.661.653-64.072-1.379-96.733-.726-4.355,0-9.394.193-13.749.193-1.5-.465-6.446,2.492-6.446,2.492-2.811.683-6.033,8.961-6.532,11.759-1.93,10.8-5,55.373-4.292,114.84" fill="#9d5be5"/><path d="M490.445,518.864H435.694a10.214,10.214,0,0,1-10.187-9.475l-3.991-55a9.827,9.827,0,0,1,9.8-10.54H498.5a10.626,10.626,0,0,1,10.611,11.2l-2.622,48.614a16.069,16.069,0,0,1-16.046,15.2" fill="#e85a52"/><path d="M270.838,337.93l-1.637-.011c-.037.522-.075,1.066-.114,1.629" fill="none" stroke="#fff" stroke-miterlimit="10" stroke-width="1.31"/><path d="M268.734,344.747c-.461,7-1,16.032-1.492,26.487-.9,19.238-1.151,33.142-1.306,40.5-1.551,73.481-2.326,110.221-3.266,115.621-2.323,13.333-6.408,31.263,3.266,43.114,3.241,3.97,8.753,8.148,16.527,14.041,7.013,5.316,13.114,9.356,17.44,12.088l66.63-1.96c120.227,1.135,205.345,2.2,224.148,3.463a147.131,147.131,0,0,0,29.958-1.5c9.74-1.457,15.034-2.1,19.6-5.226,13.037-8.929,14.428-27.919,15.025-37.887,3.508-58.625-4.905-119.91-4.9-171.364,0-15.136.7-27.723,1.307-36.051" fill="none" stroke="#fff" stroke-miterlimit="10" stroke-width="1.31" stroke-dasharray="3.258 5.213"/><path d="M651.863,343.467q.066-.855.13-1.628l-1.636-.035" fill="none" stroke="#fff" stroke-miterlimit="10" stroke-width="1.31"/><path d="M645.123,341.691,561.2,339.879l-287.739-1.931" fill="none" stroke="#fff" stroke-miterlimit="10" stroke-width="1.31" stroke-dasharray="3.272 5.235"/><path d="M370.234,443.307A65.531,65.531,0,0,0,405.4,445.7c16.282-3.578,30.32-13.82,36.69-21.339,4.613-5.444,10.576-9.714,14.806-15.459a9.706,9.706,0,0,1,3.484-3.049c.755-.38,3.194-1.469,9.8-.145,5.795,1.162,6.371,2.492,10.887,2.758,2.615.154,4.391.258,6.532-.581,3.713-1.455,4.939-4.343,7.3-3.883,1.067.209,2.331,1.1,2.431,2.142.3,3.13-10.081,5.445-9.726,7.766.179,1.166,3.028,2.062,5.662,1.959,7.155-.277,11.15-7.791,13.935-6.314a2.376,2.376,0,0,1,1.162,1.887c.111,2.357-4.487,3.844-4.21,4.645.243.7,3.889.989,6.967-.8,2.59-1.5,3.216-3.568,4.863-3.412a3.009,3.009,0,0,1,2.541,2.468c.14,3.194-9.188,6.1-16.621,8.42-6.779,2.113-10.168,3.169-13.936,3.483-4.11.343-13.2.419-24.169-5.588-.336.913-.827,2.219-1.452,3.774a133.6,133.6,0,0,1-9.871,19.815,94.844,94.844,0,0,1-23.661,25.475,78.134,78.134,0,0,1-32.517,12.92c-6.946,1.026-15.6,2.3-25.911-1.234a46.505,46.505,0,0,1-18.073-11.54Z" fill="#fda9a8"/><path d="M454.646,510.227c-3.969-2.735-8.408-2.894-10.452-.871-2.573,2.548-.622,7.657,0,9.29a16.1,16.1,0,0,0,5.517,6.968c1.929,1.544,3.683,2.947,5.951,2.9,2.67-.051,4.585-2.079,5.952-3.483,6.853-7.047,12.392-12.941,18.471-14.444a19.275,19.275,0,0,1,9.11.218c7.837,1.584,21.082,2.312,44.782-1.525a76.484,76.484,0,0,1-7.186-28.669l-12.048,5.806a103.192,103.192,0,0,1-42.387,13.065,26.392,26.392,0,0,0-2.468-6.242c-.569-1.031-2-3.613-3.339-4.645-3.314-2.546-11.2.452-19.161,6.968l7.258,14.661" fill="#fea1a1"/><path d="M337.355,505.364a54.645,54.645,0,0,1-18.617-11.649,161.778,161.778,0,0,1,31.9-33.859,24.908,24.908,0,0,0,7.839,8.927,99.971,99.971,0,0,1,13.609-25.476c-1.989-.912-4.85-2.245-8.274-3.919-5.1-2.494-7.671-3.8-9.472-5.226-4.034-3.181-4.822-6.2-7.621-10.669a49.733,49.733,0,0,0-12.847-13.609c-.254,4.679-4.123,5.556-5.444,5.334-6.252-1.048-14.044-5.334-22.209-11a8.293,8.293,0,0,1-3.92-7.076,39.277,39.277,0,0,0-8.2,1.057l-.075.032c-37.746,16.16-61.4,75.774-61.4,75.774-9.418,23.732-22.3,66.371-18.291,124.331a88.984,88.984,0,0,0,77.517,3.484,83.025,83.025,0,0,1,2.4-28.742c1.072-4,4.346-14.973,25.258-44.2,7.242-10.122,13.553-18.177,17.855-23.516" fill="#0e0672"/><path d="M287.594,463.126c6.609,13.647,18.211,25.186,32.82,29.78l-.521,1.54c-14.656-5.164-26.127-17.293-32.3-31.32" fill="#4f51fd"/><path d="M325.815,425.888c7.663,11.839,16.687,23.429,25.528,34.444l-1.271,1.014c-8.437-11.369-17.035-23.316-24.257-35.458" fill="#4f51fd"/><path d="M317.54,376.678,302.3,397.146s-.544,6.75,12.085,12.738,13.064,8.6,16.548,7.185,2.722-6.1,2.722-6.1l10.669-21.121Z" fill="#ffa29e"/><path d="M318.738,493.714a82.057,82.057,0,0,0,11.54,9.036c5.226,3.384,10.392,5.878,21.883,10.017,17.442,6.282,26.162,9.435,36.363,10.451a102.894,102.894,0,0,0,22.21-.218c7.819-.923,15.63-1.8,19.162-4.137a8.181,8.181,0,0,1,8.056-.871c3.829,1.544,4.754,4.7,7.839,7.839,1.953,1.989,5.817,6.008,8.056,5.008,1.218-.544,1.828-2.58,1.379-4.064-.608-2.014-2.865-2.007-5.3-3.992-2.629-2.146-5.341-6.518-3.919-9.581,1.271-2.74,5.5-3.686,8.637-2.976a9.152,9.152,0,0,1,6.967,7.549c.434,4.6-4.3,7.01-3.193,9.58,1.013,2.362,6.148,2.991,9.8,1.96,9.716-2.744,11.785-18.059,11.867-18.726-3.491-4-14.592-15.739-29.831-16.657-4.164-.251-11.707-.706-16.33,4.355a13.431,13.431,0,0,0-3.049,5.879,63.835,63.835,0,0,1-17.158-.465c-3.974-.654-13.869-2.676-29.112-12.6a142.044,142.044,0,0,1-33.968-31.246,136.079,136.079,0,0,0-31.9,33.859" fill="#fda9a8"/><path d="M320.915,377.44c4.143,3.379,4.38,4.308,7.621,6.859a35.7,35.7,0,0,0,10.669,6.206c2.682.935,8.909,3.013,15.678.762,2.109-.7,4.888-1.626,6.641-4.246,1.073-1.6,1.376-3.267,1.416-9.472a100.241,100.241,0,0,0-.218-10.67c-1.329-12.421-2.688-25.126-11.432-30.375-10.174-6.107-24.209,1.568-29.5,4.464-5.323,2.911-11.211,6.131-13.173,12.956a19.116,19.116,0,0,0,4.246,17.637c2.057,2.155,2.837,1.623,8.056,5.879" fill="#feb5b7"/><path d="M327.448,364.593c-.256-2.39-1.548-4.056-2.839-6.881-1.152-2.523-1.188-3.528-1.189-3.9a6.324,6.324,0,0,1,1.2-3.811c1.506-1.911,4.1-2.177,5.008-2.286,5.628-.681,10.741-3.634,16.113-5.444,8.587-2.892,12.881-4.338,15.46-7.512A17.893,17.893,0,0,0,364.9,323c-.36-8.531-6.945-14.957-8.383-14.371-.424.173-.49.99-1.634,1.742-.334.22-1.04.684-1.524.436-.542-.278-.3-1.187-.762-1.416-.5-.245-1.353.517-1.959,1.089a20.1,20.1,0,0,0-3.049,3.266c-.925,1.316-2.455,2.35-7.4,3.811-9.667,2.854-12.718,1.537-19.379,4.246a31.618,31.618,0,0,0-9.363,5.879c-3.186,2.9-5.637,5.133-6.315,8.709-.459,2.424-.093,5.4-1.089,5.662a5.214,5.214,0,0,1-1.85-.654c-1.031-.449-1.157-.569-1.416-.653-1.49-.484-3.615,1.446-4.681,2.831a10.812,10.812,0,0,0-2.069,6.532c-.013,4,1.924,10.142,6.315,12.52.823.446,3.2,1.556,4.028,3.593a1.689,1.689,0,0,1,.109,1.415c-.438.918-1.892.61-2.4,1.307-.621.859.468,2.883,1.851,4.572.453.554,6.6,7.826,15.35,6.642,1.221-.166,2.6.035,3.376-.871.943-1.107.577-3.032,0-4.246-1.046-2.2-2.784-2.068-5.335-4.137-.352-.285-5.311-4.41-4.573-8.819a5.289,5.289,0,0,1,2.4-3.7,4.767,4.767,0,0,1,3.483-.326c2.6.729,3.952,3.52,4.355,4.355,1.035,2.141.8,3.52,1.96,4.028a2.031,2.031,0,0,0,2.177-.327,1.929,1.929,0,0,0,.327-1.524" fill="#070151"/><path d="M390.92,287.694c-9.56.023-17.13.3-20.613.435a8.412,8.412,0,0,1-5.081-1.6c-3.3-2.561-3.183-7.385-3.048-13.065.136-5.711.241-10.133,3.194-14.081a17.562,17.562,0,0,1,8.564-5.806C407.2,241.656,430.4,239.645,430.4,239.645c19.184-1.662,15.469-.343,33.1-1.887,0,0,53.751-4.706,77.081-1.161a19.924,19.924,0,0,1,9.145,3.629,20.441,20.441,0,0,1,6.968,10.161,28.383,28.383,0,0,1,.871,6.968c.487,8.56-1.164,8.45-1.016,16.984.039,2.309.034,3.626-.871,5.081-1.786,2.87-5.611,3.483-7.228,3.72-6.638.972-40.9,2.044-87.708,2.667l-69.823,1.887" fill="#9d5be5"/><path d="M644.046,376.351a9.692,9.692,0,0,0,6.314,5.77,8.222,8.222,0,0,0,9.69-4.464,10.756,10.756,0,0,0,1.016-3.3,8.675,8.675,0,0,0,0-4.645,6.943,6.943,0,0,0-2.758-3.375,9.665,9.665,0,0,0-7.73-1.089l-6.532,11.105" fill="#ffb3b2"/><path d="M628.586,333.782l-15.9,30.992,4.137,14.625,18.835-.544,16.984-27.436L641.433,335.2Z" fill="#ffb3b2"/><path d="M615.775,361.871a4.549,4.549,0,0,0-2.431,0c-2.075.619-3.091,2.791-3.666,4.065-2.962,6.565-5.507,12.956-6.211,14.733-1.233,3.077-.828,4.96-.357,6.025,1.374,3.111,4.985,3.052,15.859,6.242,7.521,2.206,8.591,3.055,10.814,2.25,1.709-.619,2.454-1.619,8.057-9.8,2.54-3.708,4.671-6.838,6.206-9.036,2.708-3.879,5.027-6.961,6.568-8.964,2.535-2.266,4.391-2.54,5.622-2.366,3.429.486,4.682,4.828,7.771,4.573a4.7,4.7,0,0,0,2.865-1.626c2.287-2.26,2.766-6.134,1.742-9-.834-2.335-2.339-3.025-2.032-4.645.28-1.479,1.715-1.87,3.193-3.194a11.377,11.377,0,0,0,3.484-10.161,10.731,10.731,0,0,0-8.129-7.839c-3.816-.686-6.91,1.648-9-.29-.834-.774-.9-1.661-2.322-2.613-1.273-.85-2.01-.669-2.9-1.452a5.313,5.313,0,0,1-1.451-3.484c-1.02-7.053-.662-7.456-1.162-8.709-1.473-3.694-6.593-5.228-9.58-5.517-7.3-.7-12.194,5.028-13.065,6.1-1.137,1.395-3.59,4.407-3.484,8.71.124,5,3.72,9.208,7.258,11.032.406.209,3.174,1.01,8.71,2.613,3.166.916,4.044,1.147,5.226,2.032a12.187,12.187,0,0,1,4.065,6.1,8.175,8.175,0,0,1,.58,3.774c-.293,2.282-1.762,3.546-3.194,5.226-1.082,1.271-2.463,3.944-5.225,9.291-2.883,5.578-3.016,6.8-4.936,8.129-.54.374-3.648,2.435-6.677,1.451-.771-.25-1.755-.768-6.1-7.258-2.461-3.679-3.66-5.777-6.1-6.387" fill="#070048"/><path d="M656.13,379.291l14.588,20.25a5.694,5.694,0,0,1,.436,4.573c-.783,1.786-2.779,2.437-6.532,3.484a107.812,107.812,0,0,1-10.815,2.758c-4.3.551-11.394,1.378-19.234-1.67a32.007,32.007,0,0,1-4.137-1.959q-1.669-6.025-3.338-12.049C636.485,383.8,643.4,375.52,648,369.42c1.123-1.491,3.473-4.663,6.677-4.645a7.275,7.275,0,0,1,6.387,9.58,8.333,8.333,0,0,1-4.935,4.936" fill="#fdb5b5"/><path d="M651.993,602.477a171.727,171.727,0,0,0-7.186-44.42c-4.767-15.707-14.191-38.237-22.086-52.042a122.273,122.273,0,0,1-9.269-19.813c-1.568-4.324-2.615-7.979-3.266-10.451a139.117,139.117,0,0,1-16.33,12.193,145.431,145.431,0,0,1-59.88,21.339c-1.9-4.8-3.762-10.11-5.443-15.895-1.329-4.573-2.4-8.944-3.266-13.065,2.737-1.656,6.577-4.024,11.1-6.968a303.981,303.981,0,0,0,27.218-19.379c8.371-6.828,14-12.681,25.258-24.387,8.943-9.3,16.046-17.269,20.9-22.863l18.508-4.572a7.189,7.189,0,0,0,6.314,6.532,72.463,72.463,0,0,0,15.9,1.089,97.211,97.211,0,0,0,14.153-2.178c3.2-.722,5.658-1.44,6.532-3.484a5.753,5.753,0,0,0-.435-4.572c1.856.13,4.57.338,7.839.653,16.954,1.635,25.431,2.453,31.572,5.443,6.468,3.15,10.627,9.213,18.944,21.339a157.64,157.64,0,0,1,14.589,26.783,166.256,166.256,0,0,1,11.1,31.572,146.5,146.5,0,0,1,3.267,44.638,32.264,32.264,0,0,0-8.057-5.008,32.919,32.919,0,0,0-14.371-2.613,33.264,33.264,0,0,0-11.54,2.613,75.153,75.153,0,0,0,2.4,17.637,77.239,77.239,0,0,0,16.548,31.137l-8.709,30.7a101.662,101.662,0,0,1-19.162,6.967,84.615,84.615,0,0,1-25.258,3.049,75.991,75.991,0,0,1-24.823-5.008,68.977,68.977,0,0,1-13.064-6.968" fill="#0b0264"/><path d="M632.975,526.057l34.2,64a4.772,4.772,0,0,0,5.009,2.089l106.724-24.879c1.785-.416,2.521-1.935,1.654-3.415l-30.94-52.842a4.8,4.8,0,0,0-4.543-2.059L635.095,522.673c-1.993.248-2.966,1.8-2.12,3.384" fill="#bccdf9"/><path d="M640.844,517.913l26.975,75.756a4.086,4.086,0,0,0,4.781,2.472l109.769-29.45a2.949,2.949,0,0,0,2.047-4.042L759.436,500.1a4.107,4.107,0,0,0-4.317-2.437L643.354,513.907a2.972,2.972,0,0,0-2.51,4.006" fill="#bdcff6"/><path d="M650.66,511.517l18.362,82.231a3.606,3.606,0,0,0,4.5,2.684l113.117-31.968a3.606,3.606,0,0,0,2.507-4.387l-17.868-67.9a3.606,3.606,0,0,0-4.04-2.645L653.626,507.168a3.606,3.606,0,0,0-2.966,4.349" fill="#4f51fd"/><path d="M251.564,429.371c-6.724.242-16.545,4.258-37.016,29.178-27.682,33.7-16.875,88.468,11.322,110.613,38.024,29.862,102.593-3.59,115.839-10.452,95.054-49.244,100.649-152.036,171.582-157.646,10.992-.869,22.715,2.614,46.161,9.581,76.989,22.876,89.873,60.41,136.743,68.807,43.242,7.747,97.559-12.507,115.839-46.162C838,385.491,800.13,294.33,699.678,232.1" fill="none" stroke="#781ddb" stroke-miterlimit="10" stroke-width="1.31" stroke-dasharray="3.274 5.238"/><path d="M724.066,524.961c1.023,4.307,1.773,8.071,2.323,11.1a108.982,108.982,0,0,1,2.032,20.9c-.059,7.551-1,9.3-2.032,10.452-2.326,2.591-5.764,2.881-10.376,3.271-3.382.285-10.6.894-12.85-2.69-.583-.93-.935-2.3-2.323-2.9-.947-.408-2.311-.427-2.9.291-.7.845-.055,2.39.29,3.193,0,0,1.638,3.807,10.162,9.291,0,0,1.83,1.611,1.741,2.612-.1,1.184-2.917,1.853-7.838,2.9-7.711,1.645-9.092,1.77-9.581,2.9-.969,2.246,2.658,5.929,4.645,7.548,4.428,3.608,9.469,4.1,12.484,4.355a32.16,32.16,0,0,0,15.4-2.536c7.607-3.356,11.7-8.836,15.669-14.3,6.633-9.125,9.329-17.554,11.9-25.838a132.2,132.2,0,0,0,5.226-25.549,30.52,30.52,0,0,0-33.968-5.008" fill="#fdb5b5"/><path d="M794.659,259.242H666.083a4.694,4.694,0,1,1,0-9.388H794.659a4.694,4.694,0,1,1,0,9.388" fill="#f3eafc"/><g opacity="0.33"><g clip-path="url(#c)"><path d="M280.034,559.7H151.458a4.694,4.694,0,0,1,0-9.388H280.034a4.694,4.694,0,1,1,0,9.388" fill="#e1e7f9"/></g></g><g opacity="0.33"><g clip-path="url(#d)"><path d="M224.945,578.865H134.909a4.694,4.694,0,1,1,0-9.388h90.036a4.694,4.694,0,1,1,0,9.388" fill="#f5f6ff"/></g></g><g opacity="0.33"><g clip-path="url(#e)"><path d="M243.743,519.639h-97.1a4.694,4.694,0,1,1,0-9.388h97.1a4.694,4.694,0,1,1,0,9.388" fill="#e1e7f9"/></g></g><g opacity="0.33"><g clip-path="url(#f)"><path d="M263.485,540.542H134.909a4.694,4.694,0,1,1,0-9.388H263.485a4.694,4.694,0,1,1,0,9.388" fill="#f5f6ff"/></g></g><path d="M548.576,209.825a.894.894,0,0,1-.53.864l-9.246,4.152a43.882,43.882,0,0,1-3.857,12.951l5.664,8.663a.707.707,0,0,1-.032.832l-7.707,9.88a.891.891,0,0,1-.969.308l-10.47-3.2a44.223,44.223,0,0,1-10.9,5.978L507.619,261.7a.711.711,0,0,1-.628.536L494.5,263.255a.9.9,0,0,1-.884-.51l-4.832-10.084a43.539,43.539,0,0,1-11.537-3.248l-9.613,6.286a.7.7,0,0,1-.824-.033l-9.888-7.706a.9.9,0,0,1-.307-.969L459.971,236a44.051,44.051,0,0,1-6.339-11.138l-11.55-2.934a.7.7,0,0,1-.53-.635L440.543,208.8a.886.886,0,0,1,.5-.877l9.933-4.754A44.078,44.078,0,0,1,454.346,191l-6.09-9.7a.711.711,0,0,1,.046-.825l7.884-9.744a.9.9,0,0,1,.976-.288l10.522,3.418a44.1,44.1,0,0,1,11.42-6.456L481.48,157a.712.712,0,0,1,.622-.55l12.461-1.31a.9.9,0,0,1,.9.485l4.675,9.187a43.838,43.838,0,0,1,13.541,3.85l8.833-5.776a.7.7,0,0,1,.825.033l9.887,7.707a.9.9,0,0,1,.308.969L530.3,182.147a44.222,44.222,0,0,1,6.253,11.479l10.8,3.038a.7.7,0,0,1,.517.642Z" fill="#781ddb"/><circle cx="11.262" cy="11.262" r="11.262" transform="translate(481.011 217.568) rotate(-76.717)" fill="none" stroke="#eceded" stroke-miterlimit="10" stroke-width="3.274"/><path d="M491.649,238.053l.046.026a29.467,29.467,0,1,0-19.7-10.778l.007.007" fill="none" stroke="#eceded" stroke-miterlimit="10" stroke-width="1.31"/><path d="M455.545,262.757l.061.1A66.638,66.638,0,0,0,552.555,241.6c18-31.823,6.634-72.819-25.189-90.818s-72.813-6.614-90.812,25.209a66.563,66.563,0,0,0-7.732,43.72l.006.02" fill="none" stroke="#781ddb" stroke-miterlimit="10" stroke-width="1.964" stroke-dasharray="3.274 5.238"/><path d="M424.322,243.7a.5.5,0,0,1-.294.479l-5.12,2.3a24.286,24.286,0,0,1-2.136,7.172l3.137,4.8a.392.392,0,0,1-.018.46l-4.268,5.472a.492.492,0,0,1-.537.171l-5.8-1.77a24.5,24.5,0,0,1-6.038,3.311l-1.61,6.339a.393.393,0,0,1-.348.3l-6.919.562a.5.5,0,0,1-.49-.283l-2.676-5.584a24.084,24.084,0,0,1-6.389-1.8l-5.324,3.481a.384.384,0,0,1-.456-.018l-5.476-4.268a.5.5,0,0,1-.17-.536l1.86-6.089a24.37,24.37,0,0,1-3.51-6.168l-6.4-1.625a.387.387,0,0,1-.294-.351l-.558-6.919a.492.492,0,0,1,.279-.486l5.5-2.633a24.387,24.387,0,0,1,1.864-6.737l-3.373-5.371a.394.394,0,0,1,.026-.457l4.366-5.4a.494.494,0,0,1,.54-.159l5.827,1.893a24.424,24.424,0,0,1,6.325-3.576l1.316-5.766a.393.393,0,0,1,.344-.3l6.9-.725a.5.5,0,0,1,.5.268l2.589,5.088a24.283,24.283,0,0,1,7.5,2.132l4.892-3.2a.386.386,0,0,1,.457.019l5.476,4.268a.5.5,0,0,1,.17.536l-1.788,5.846a24.465,24.465,0,0,1,3.463,6.357l5.984,1.682a.387.387,0,0,1,.286.356Z" fill="#781ddb"/><circle cx="6.237" cy="6.237" r="6.237" transform="translate(386.904 247.984) rotate(-76.718)" fill="none" stroke="#eceded" stroke-miterlimit="10" stroke-width="1.813"/><path d="M392.8,259.328l.025.014a16.123,16.123,0,0,0,1.784.1,16.319,16.319,0,1,0-12.7-6.066l0,0" fill="none" stroke="#eceded" stroke-miterlimit="10" stroke-width="0.725"/><path d="M370.6,276.087l.037.063a40.708,40.708,0,1,0-16.361-26.359l0,.013" fill="none" stroke="#781ddb" stroke-miterlimit="10" stroke-width="1.31" stroke-dasharray="3.929 4.583"/><path d="M681.336,447.663a122.691,122.691,0,0,1,42.025,78.17,41.461,41.461,0,0,1,13.282-1.525,42.683,42.683,0,0,1,21.774,7.4,111.459,111.459,0,0,0,0-25.258c-.414-3.62-1.3-12.8-7.626-29.909a374.148,374.148,0,0,0-17.2-39.334l-52.258,10.452" fill="#0b0264"/><path d="M689.808,453.323c17.608,13.877,27.833,35.569,29.817,57.694l-1.958.161c-1.311-21.928-10.849-43.617-27.859-57.855" fill="#4f51fd"/><path d="M135.155,41.806,51.542,0,136.9,21.774Z" fill="#6218b3"/><path d="M127.316,31.355,102.929,57.484,51.541,0Z" fill="#781ddb"/><path d="M136.9,21.774l22.645-18.29L51.542,0Z" fill="#781ddb"/><path d="M686.287,233.507l-55.794-27.9,56.956,14.53Z" fill="#6218b3"/><path d="M681.056,226.533l-16.273,17.436-34.29-38.359Z" fill="#781ddb"/><path d="M687.449,220.14l15.111-12.2-72.067-2.325Z" fill="#781ddb"/><path d="M142.147,41.806A153.181,153.181,0,0,1,179.6,65.476c65.65,56.555,72.947,162.77,52.258,233.42C203.863,394.494,112.627,466.22.289,482.936" fill="none" stroke="#781ddb" stroke-miterlimit="10" stroke-width="3.929" stroke-dasharray="10.477 4.583"/></g></g></svg>