<svg xmlns="http://www.w3.org/2000/svg" xmlns:xlink="http://www.w3.org/1999/xlink" width="436.145" height="716.235" viewBox="0 0 436.145 716.235"><defs><clipPath id="a"><rect width="436.145" height="716.235" fill="none"/></clipPath></defs><g clip-path="url(#a)"><path d="M435.448,492.419l-27,87.959c-2.242,7.3-9.338,12.05-17.051,12.05a18.893,18.893,0,0,1-4.921-.656,17.752,17.752,0,0,1-9.127-5.811c-32.862,84.975-91.9,151.565-159.281,151.565S91.653,670.941,58.791,585.968a17.268,17.268,0,0,1-3.984,3.533,18.216,18.216,0,0,1-5.139,2.272c-9.42,2.545-19.256-2.556-21.968-11.394L.7,492.419A15.7,15.7,0,0,1,0,487.81c0-7.233,5.063-13.893,12.845-15.994A18.255,18.255,0,0,1,33.2,479.609a369.286,369.286,0,0,1-1.944-37.429,286.722,286.722,0,0,1,6.46-62.506c.231,26.14,80.891,47.312,180.356,47.312,99.432,0,180.069-21.156,180.355-47.284a286.6,286.6,0,0,1,6.455,62.478,368.536,368.536,0,0,1-1.948,37.447,18.262,18.262,0,0,1,20.37-7.811c9.419,2.544,14.858,11.768,12.145,20.6" transform="translate(0 -21.292)"/><path d="M400.668,376.545v.148c-.288,27.858-80.925,50.416-180.356,50.416-99.464,0-180.124-22.574-180.355-50.445v-.119a15.45,15.45,0,0,1,1.48-6.5c11.377-24.855,87.127-44.061,178.875-44.061,91.716,0,167.434,19.189,178.862,44.031a15.5,15.5,0,0,1,1.493,6.533" transform="translate(-2.241 -18.281)" fill="#28104d"/><path d="M386.013,377.246v.113C385.751,398.712,312.08,416,221.238,416c-90.871,0-164.563-17.3-164.774-38.666v-.091a10.284,10.284,0,0,1,1.353-4.985c10.394-19.05,79.6-33.772,163.422-33.772,83.792,0,152.97,14.708,163.41,33.749A10.313,10.313,0,0,1,386.013,377.246Z" transform="translate(-3.167 -18.983)" fill="none" stroke="#6e2dd4" stroke-miterlimit="10" stroke-width="1.687"/><path d="M354.4,377.716v.091c-.209,17-58.852,30.759-131.162,30.759-72.335,0-131-13.773-131.162-30.777v-.073a8.189,8.189,0,0,1,1.076-3.967c8.274-15.165,63.362-26.883,130.086-26.883,66.7,0,121.766,11.708,130.077,26.864A8.215,8.215,0,0,1,354.4,377.716Z" transform="translate(-5.164 -19.452)" fill="none" stroke="#672ac6" stroke-miterlimit="10" stroke-width="1.527"/><path d="M322.784,378.186v.067c-.155,12.642-43.771,22.878-97.551,22.878-53.8,0-97.426-10.243-97.55-22.891v-.054a6.088,6.088,0,0,1,.8-2.951c6.153-11.279,47.125-19.994,96.75-19.994,49.608,0,90.562,8.708,96.743,19.981A6.1,6.1,0,0,1,322.784,378.186Z" transform="translate(-7.16 -19.922)" fill="none" stroke="#5f27b7" stroke-miterlimit="10" stroke-width="1.367"/><path d="M291.168,378.655v.044c-.1,8.286-28.689,14.994-63.939,14.994s-63.858-6.714-63.939-15v-.035a4,4,0,0,1,.524-1.934c4.034-7.393,30.889-13.105,63.415-13.105s59.358,5.708,63.41,13.1A4,4,0,0,1,291.168,378.655Z" transform="translate(-9.157 -20.392)" fill="none" stroke="#5824a9" stroke-miterlimit="10" stroke-width="1.207"/><path d="M259.554,379.125v.021c-.048,3.93-13.608,7.112-30.328,7.112s-30.288-3.185-30.327-7.116v-.017a1.9,1.9,0,0,1,.248-.918c1.913-3.507,14.652-6.216,30.079-6.216S257.381,374.7,259.3,378.2A1.891,1.891,0,0,1,259.554,379.125Z" transform="translate(-11.154 -20.862)" fill="none" stroke="#50219a" stroke-miterlimit="10" stroke-width="1.048"/><path d="M272.323,56.731a63.97,63.97,0,1,1-90.467,0,63.97,63.97,0,0,1,90.467,0" transform="translate(-9.148 -2.131)" fill="#461d87"/><path d="M184.81,144.245a63.97,63.97,0,1,1-90.467,0,63.97,63.97,0,0,1,90.467,0" transform="translate(-4.24 -7.039)" fill="#461d87"/><path d="M359.758,144.166a63.97,63.97,0,1,1-90.467,0,63.972,63.972,0,0,1,90.467,0" transform="translate(-14.051 -7.034)" fill="#461d87"/><path d="M272.244,231.679a63.97,63.97,0,1,1-90.467,0,63.97,63.97,0,0,1,90.467,0" transform="translate(-9.143 -11.942)" fill="#461d87"/><path d="M229.139,127.613a63.97,63.97,0,1,1-63.969-63.969,63.97,63.97,0,0,1,63.969,63.969" transform="translate(-5.675 -3.569)" fill="#6429c1"/><path d="M352.9,251.264a63.97,63.97,0,1,1-63.969-63.969A63.97,63.97,0,0,1,352.9,251.264" transform="translate(-12.616 -10.504)" fill="#6429c1"/><path d="M229.139,251.264a63.97,63.97,0,1,1-63.969-63.969,63.97,63.97,0,0,1,63.969,63.969" transform="translate(-5.675 -10.504)" fill="#6429c1"/><path d="M352.9,127.613a63.97,63.97,0,1,1-63.969-63.969A63.97,63.97,0,0,1,352.9,127.613" transform="translate(-12.616 -3.569)" fill="#6429c1"/><path d="M292.22,186.226a65.055,65.055,0,1,1-65.056-65.056,65.056,65.056,0,0,1,65.056,65.056" transform="translate(-9.091 -6.795)" fill="#7b40d8"/><path d="M248.944,188.959A19.046,19.046,0,1,1,229.9,169.913a19.046,19.046,0,0,1,19.046,19.046" transform="translate(-11.825 -9.529)" fill="#fff"/><line x1="337.149" transform="translate(48.955 179.431)" fill="none" stroke="#fff" stroke-miterlimit="10" stroke-width="0.868"/><path d="M420.051,189.557a9,9,0,1,1-8.995-8.995,8.994,8.994,0,0,1,8.995,8.995" transform="translate(-22.548 -10.126)" fill="#fff"/><path d="M58.927,189.557a9,9,0,1,1-8.995-8.995,8.994,8.994,0,0,1,8.995,8.995" transform="translate(-2.296 -10.126)" fill="#fff"/><line y2="337.149" transform="translate(218.073 11.399)" fill="none" stroke="#fff" stroke-miterlimit="10" stroke-width="0.868"/><path d="M230.495,0A9,9,0,1,1,221.5,8.995,8.994,8.994,0,0,1,230.495,0" transform="translate(-12.422)" fill="#fff"/><path d="M230.495,361.124a9,9,0,1,1-8.995,8.995,8.994,8.994,0,0,1,8.995-8.995" transform="translate(-12.422 -20.252)" fill="#fff"/><line x2="238.401" y2="238.4" transform="translate(99.256 60.614)" fill="none" stroke="#fff" stroke-miterlimit="10" stroke-width="0.868"/><path d="M96.457,55.519a9,9,0,1,1,0,12.721,9,9,0,0,1,0-12.721" transform="translate(-5.262 -2.966)" fill="#fff"/><path d="M351.811,310.872a9,9,0,1,1,0,12.721,9,9,0,0,1,0-12.721" transform="translate(-19.582 -17.286)" fill="#fff"/><line x1="238.401" y2="238.4" transform="translate(98.488 60.614)" fill="none" stroke="#fff" stroke-miterlimit="10" stroke-width="0.868"/><path d="M364.532,55.519a9,9,0,1,0,0,12.721,9,9,0,0,0,0-12.721" transform="translate(-19.582 -2.966)" fill="#fff"/><path d="M109.179,310.872a9,9,0,1,0,0,12.721,9,9,0,0,0,0-12.721" transform="translate(-5.262 -17.286)" fill="#fff"/><line x1="164.824" y2="59.991" transform="translate(135.395 149.532)" fill="none" stroke="#fff" stroke-miterlimit="10" stroke-width="0.868"/><path d="M323.421,156.084a4.679,4.679,0,1,1-6-2.8,4.679,4.679,0,0,1,6,2.8" transform="translate(-17.628 -8.581)" fill="#fff"/><path d="M146.876,220.341a4.679,4.679,0,1,1-6-2.8,4.679,4.679,0,0,1,6,2.8" transform="translate(-7.728 -12.184)" fill="#fff"/><line x2="59.991" y2="164.824" transform="translate(188.174 97.284)" fill="none" stroke="#fff" stroke-miterlimit="10" stroke-width="0.868"/><path d="M197.022,97.143a4.679,4.679,0,1,1-2.8,6,4.679,4.679,0,0,1,2.8-6" transform="translate(-10.876 -5.432)" fill="#fff"/><path d="M261.279,273.688a4.679,4.679,0,1,1-2.8,6,4.679,4.679,0,0,1,2.8-6" transform="translate(-14.48 -15.333)" fill="#fff"/><line x2="158.968" y2="74.128" transform="translate(138.844 142.486)" fill="none" stroke="#fff" stroke-miterlimit="10" stroke-width="0.868"/><path d="M141.373,148.135a4.679,4.679,0,1,1,2.264,6.219,4.679,4.679,0,0,1-2.264-6.219" transform="translate(-7.904 -8.156)" fill="#fff"/><path d="M311.646,227.534a4.679,4.679,0,1,1,2.263,6.219,4.68,4.68,0,0,1-2.263-6.219" transform="translate(-17.453 -12.609)" fill="#fff"/><line x1="74.129" y2="158.968" transform="translate(180.889 100.202)" fill="none" stroke="#fff" stroke-miterlimit="10" stroke-width="0.868"/><path d="M272.428,100.435a4.679,4.679,0,1,0,2.264,6.219,4.679,4.679,0,0,0-2.264-6.219" transform="translate(-14.905 -5.608)" fill="#fff"/><path d="M193.028,270.708a4.679,4.679,0,1,0,2.264,6.219,4.679,4.679,0,0,0-2.264-6.219" transform="translate(-10.452 -15.157)" fill="#fff"/></g></svg>