 <svg
                id="Group_672"
                data-name="Group 672"
                xmlns="http://www.w3.org/2000/svg"
                width="30.051"
                height="30.051"
                viewBox="0 0 30.051 30.051"
              >
                <g id="Group_671" data-name="Group 671">
                  <path
                    id="Path_138"
                    data-name="Path 138"
                    d="M30.051,15.025A15.025,15.025,0,1,0,12.678,29.868v-10.5H8.863V15.025h3.815v-3.31c0-3.766,2.243-5.846,5.675-5.846a23.106,23.106,0,0,1,3.363.293v3.7H19.822a2.172,2.172,0,0,0-2.449,2.346v2.819H21.54l-.666,4.343h-3.5v10.5A15.029,15.029,0,0,0,30.051,15.025"
                    fill="#1877f2"
                  />
                  <path
                    id="Path_139"
                    data-name="Path 139"
                    d="M314.012,213.5l.666-4.343H310.51v-2.819a2.172,2.172,0,0,1,2.449-2.346h1.895v-3.7A23.105,23.105,0,0,0,311.49,200c-3.432,0-5.675,2.08-5.675,5.846v3.31H302V213.5h3.815V224a15.185,15.185,0,0,0,4.7,0V213.5Z"
                    transform="translate(-293.137 -194.131)"
                    fill="#fff"
                  />
                </g>
              </svg>