<svg xmlns="http://www.w3.org/2000/svg" xmlns:xlink="http://www.w3.org/1999/xlink" width="99.649" height="63.768" viewBox="0 0 99.649 63.768"><defs><clipPath id="a"><rect width="99.649" height="63.768" fill="#fff"/></clipPath></defs><g clipPath="url(#a)"><path d="M198.093,11.549V1.437h4.034V18.984h-4.089L191.565,8.932l-.236.025v9.986h-4.256V1.421h4.123l6.606,10.25.292-.122" transform="translate(-136.036 -1.033)" fill="#fff"/><path d="M194.53,177.8V167.705h4.11v17.558h-4.161l-6.57-10.216-.229.052v10.155h-4.089V167.7h4.055l6.564,10.2.32-.1" transform="translate(-133.505 -121.948)" fill="#fff"/><path d="M132.116,11.661V1.443h4.038V19h-4.128L125.433,8.76l-.211.037V18.972h-4.141V1.471h4.127l6.6,10.259.3-.07" transform="translate(-88.049 -1.049)" fill="#fff"/><path d="M82.2,169.521,79.658,172.3a3.143,3.143,0,0,1-.537-.456c-1.788-2.491-6.3-2.577-7.572,1.766a5.8,5.8,0,0,0,1.322,6.052,4.019,4.019,0,0,0,5.322.3,2.089,2.089,0,0,0,.915-2.355H75.418v-3.157h8c.746,3.965-.224,6.934-3.183,8.856a8.583,8.583,0,0,1-9.922-.327,9.58,9.58,0,0,1,.2-15.145c3.6-2.623,9.545-1.638,11.688,1.688" transform="translate(-48.502 -120.957)" fill="#fff"/><path d="M60.36,1.4h3.977c.031.56.08,1.044.081,1.527.008,2.67,0,5.339.006,8.009,0,.588,0,1.177.041,1.764.119,1.791.9,2.521,2.663,2.525s2.647-.727,2.692-2.5c.08-3.211.038-6.425.046-9.637,0-.528,0-1.057,0-1.676h4.008a2.914,2.914,0,0,1,.183.722c0,3.846.044,7.693-.059,11.536A5.494,5.494,0,0,1,68.4,19.3a15.289,15.289,0,0,1-4.163-.318,4.73,4.73,0,0,1-3.852-4.405c-.247-4.237-.165-8.494-.21-12.743,0-.122.1-.244.181-.429" transform="translate(-43.761 -1.02)" fill="#fff"/><path d="M7.113,167.537h3.85l7.12,17.61h-4.45l-1.344-3.359H5.8l-1.34,3.369H0l7.113-17.62m3.768,10.5-1.726-4.422-.263.021-1.667,4.4Z" transform="translate(0 -121.831)" fill="#fff"/><path d="M109.311,84.96h3.864l7.1,17.567h-4.46l-1.334-3.346H108l-1.348,3.387h-4.455l7.117-17.608m3.763,10.482-1.838-4.771-1.815,4.771Z" transform="translate(-74.314 -61.782)" fill="#fff"/><path d="M135.837,167.642h10.2v3.614h-5.816v3.327h5.56V178.2h-5.535v3.469h5.816v3.511H135.845c-.021-5.8-.01-11.638-.008-17.54" transform="translate(-98.776 -121.907)" fill="#fff"/><path d="M261.714,168.1l-1.528,3.04a32.353,32.353,0,0,0-4.553-.607,4.965,4.965,0,0,0-2.886,8.914,6.269,6.269,0,0,0,5.823.743c.469-.135.911-.363,1.47-.591l1.639,3.241c-2.678,2.754-9.039,2.354-12.377-.7a8.648,8.648,0,0,1-.762-12.5c3.746-4.224,10.08-4.047,13.174-1.547" transform="translate(-179.052 -120.947)" fill="#fff"/><path d="M230.65,102.64H220.57V85.069h10.058v3.621h-5.886v3.3h5.678v3.635H224.75v3.442h5.9Z" transform="translate(-160.395 -61.861)" fill="#fff"/><path d="M16.625,1.864,15.054,4.946a16.52,16.52,0,0,0-2.22-.831,6.373,6.373,0,0,0-2.264-.133,1.7,1.7,0,0,0-1.018.928,1.039,1.039,0,0,0,.539,1.379c.834.45,1.7.841,2.522,1.312A27.068,27.068,0,0,1,15.59,9.447c2.725,2.074,1.691,6.718-1.04,8.016a9.91,9.91,0,0,1-8.152.114,24.28,24.28,0,0,1-2.707-1.466l2.07-3.5A18.272,18.272,0,0,0,8.361,14,9.058,9.058,0,0,0,11,14.4,1.47,1.47,0,0,0,11.72,11.6c-.746-.421-1.537-.765-2.279-1.193A14.685,14.685,0,0,1,6.935,8.822a4.756,4.756,0,0,1,.113-7.264A6.288,6.288,0,0,1,11.683.011a8.357,8.357,0,0,1,4.942,1.853" transform="translate(-2.684 0)" fill="#fff"/><path d="M16.7,85.416,15.112,88.51c-1.2-.337-2.31-.683-3.437-.944a1.737,1.737,0,0,0-2.11,1.114,1.493,1.493,0,0,0,.529,1.233c.815.553,1.764.9,2.625,1.395a25.741,25.741,0,0,1,2.857,1.787c2.752,2.094,1.7,6.721-1,8.024a9.916,9.916,0,0,1-8.153.138A23.658,23.658,0,0,1,3.7,99.785l2.058-3.513a17.089,17.089,0,0,0,2.587,1.381,9.547,9.547,0,0,0,2.768.4,1.35,1.35,0,0,0,1.4-1.064,1.405,1.405,0,0,0-.765-1.7c-.745-.424-1.533-.772-2.276-1.2A14.873,14.873,0,0,1,6.96,92.508a4.765,4.765,0,0,1,.176-7.353,5.99,5.99,0,0,1,4.117-1.476A9.527,9.527,0,0,1,16.7,85.416" transform="translate(-2.689 -60.848)" fill="#fff"/><path d="M307.322,167.4l3.63,5.515,3.594-5.459H319.5c-.342.562-.577.982-.843,1.381-1.581,2.372-3.138,4.76-4.77,7.1a4.356,4.356,0,0,0-.825,2.781c.055,1.627.019,3.258.011,4.887,0,.445-.044.89-.072,1.419h-4.19c0-.713.007-1.417,0-2.121-.023-1.943.345-4.006-.194-5.8-.525-1.741-1.98-3.2-3.031-4.785-1.022-1.537-2.05-3.07-3.253-4.869,1.809-.128,3.352-.065,4.992-.05" transform="translate(-219.85 -121.708)" fill="#fff"/><path d="M256.712,18.965h-4.169c-.038-.5-.1-.978-.1-1.453-.013-1.765.058-3.533-.036-5.294a4.563,4.563,0,0,0-.66-2.124c-1.577-2.482-3.248-4.9-4.879-7.351-.267-.4-.5-.821-.845-1.38h4.944l3.6,5.447,3.612-5.457H263.1c-.337.559-.566.975-.828,1.369-1.631,2.447-3.257,4.9-4.914,7.328a3.488,3.488,0,0,0-.664,2.139c.047,2.207.016,4.416.016,6.776" transform="translate(-178.902 -0.983)" fill="#fff"/><path d="M61.188,102.695V88.886l-4.084-.18V85.168H69.5v3.588H65.476v13.939Z" transform="translate(-41.525 -61.933)" fill="#fff"/><path d="M180.377,85.12V88.75h-4.055v13.915h-4.153V88.757h-4.2V85.12Z" transform="translate(-122.145 -61.898)" fill="#fff"/></g></svg>