<svg xmlns="http://www.w3.org/2000/svg" width="31.608" height="34.274" viewBox="0 0 31.608 34.274">
  <g id="Group_801" data-name="Group 801" transform="translate(-1482 -3232.726)">
    <path id="Path_9501" data-name="Path 9501" d="M12.308,132.543v-1.4a10.837,10.837,0,0,0-7.677,19.62,10.836,10.836,0,0,1,7.677-18.225" transform="translate(1482 3112.771)" fill="#87f1e9" fill-rule="evenodd"/>
    <path id="Path_9502" data-name="Path 9502" d="M73.481,99.038v4.58a14.015,14.015,0,0,1-8.2-2.636v11.975a10.836,10.836,0,0,1-17.061,8.88A10.839,10.839,0,0,0,67,114.452V102.477a14.015,14.015,0,0,0,8.2,2.636V99.22a8.182,8.182,0,0,1-1.718-.183" transform="translate(1438.408 3141.702)" fill="#da004f" fill-rule="evenodd"/>
    <path id="Path_9503" data-name="Path 9503" d="M37.865,37.512V25.537a14.012,14.012,0,0,0,8.2,2.636v-4.58a8.2,8.2,0,0,1-4.464-2.64A8.213,8.213,0,0,1,38,15.579H33.69l-.009,23.615a4.944,4.944,0,0,1-8.959,2.7,4.951,4.951,0,0,1,2.3-9.338,4.852,4.852,0,0,1,1.462.229V28.168A10.836,10.836,0,0,0,20.8,46.393a10.837,10.837,0,0,0,17.061-8.881" transform="translate(1465.827 3217.146)" fill="#fff" fill-rule="evenodd"/>
  </g>
</svg>
