<svg
                                xmlns="http://www.w3.org/2000/svg"
                                width="24.07"
                                height="16.849"
                                viewBox="0 0 24.07 16.849"
                              >
                                <path
                                  id="Path_133"
                                  data-name="Path 133"
                                  d="M23.567,2.631A3.014,3.014,0,0,0,21.439.5c-1.877-.5-9.4-.5-9.4-.5s-7.527,0-9.4.5A3.014,3.014,0,0,0,.5,2.631,31.331,31.331,0,0,0,0,8.424a31.329,31.329,0,0,0,.5,5.793,3.015,3.015,0,0,0,2.128,2.128c1.877.5,9.4.5,9.4.5s7.527,0,9.4-.5a3.015,3.015,0,0,0,2.128-2.128,31.317,31.317,0,0,0,.5-5.793,31.319,31.319,0,0,0-.5-5.794"
                                  transform="translate(0 0)"
                                  fill="#ea3621"
                                />
                                <path
                                  id="Path_134"
                                  data-name="Path 134"
                                  d="M48.594,31.518V24.3l6.253,3.611Z"
                                  transform="translate(-38.966 -19.483)"
                                  fill="#fff"
                                />
                                <rect
                                  id="Rectangle_391"
                                  data-name="Rectangle 391"
                                  width="24.07"
                                  height="16.849"
                                  transform="translate(0 0)"
                                  fill="none"
                                />
                              </svg>