<svg xmlns="http://www.w3.org/2000/svg" width="139.132" height="40.092" viewBox="0 0 139.132 40.092"><g transform="translate(0 0)"><path d="M33.379,40.091H7.046A7.045,7.045,0,0,1,0,33.046v-26A7.045,7.045,0,0,1,7.046,0H33.379a7.045,7.045,0,0,1,7.044,7.045v26a7.045,7.045,0,0,1-7.044,7.045" transform="translate(-0.001 0.001)" fill="#fffd00"/><path d="M51.359,45.541c-4.507-2.181-5.225-5.55-5.257-5.8a.8.8,0,0,1,.251-.849c.322-.3,1.75-1.182,2.147-1.458.655-.458.944-.915.731-1.477a.881.881,0,0,0-.892-.535,1.65,1.65,0,0,0-.358.04c-.72.156-1.419.517-1.823.614a.643.643,0,0,1-.149.02c-.216,0-.3-.1-.276-.356a25.683,25.683,0,0,0,.033-3.756,5.958,5.958,0,0,0-1.562-3.816,6.944,6.944,0,0,0-5.332-2.221,6.949,6.949,0,0,0-5.327,2.216,5.939,5.939,0,0,0-1.561,3.816,26.3,26.3,0,0,0,.033,3.756c.015.247-.061.355-.277.355a.643.643,0,0,1-.149-.02c-.4-.1-1.1-.458-1.822-.614a1.654,1.654,0,0,0-.358-.04.883.883,0,0,0-.892.535c-.212.562.074,1.019.732,1.477.4.277,1.825,1.16,2.147,1.458a.8.8,0,0,1,.251.848c-.032.254-.751,3.622-5.257,5.8-.264.128-.713.4.079.835,1.243.687,2.071.613,2.714,1.028.546.352.223,1.11.62,1.384.488.337,1.929-.024,3.792.591,1.562.514,2.51,1.968,5.279,1.968s3.745-1.46,5.279-1.968c1.859-.615,3.3-.254,3.792-.591.4-.274.074-1.032.62-1.384.643-.414,1.47-.34,2.714-1.028.79-.432.341-.7.077-.83" transform="translate(-18.662 -18.607)" fill="#fff"/><path d="M49.006,41.161a2.023,2.023,0,0,0-1.026-1.088c-.083-.048-.158-.087-.223-.117-.131-.068-.265-.133-.4-.2a8.683,8.683,0,0,1-3.176-2.724,6.183,6.183,0,0,1-.545-.966.458.458,0,0,1-.015-.377.609.609,0,0,1,.175-.182c.235-.156.477-.313.641-.42.293-.19.525-.34.675-.446a3.678,3.678,0,0,0,1.2-1.276,2.541,2.541,0,0,0,.126-2.11,2.5,2.5,0,0,0-2.416-1.586,3.317,3.317,0,0,0-.7.074c-.062.013-.123.027-.184.043a20.641,20.641,0,0,0-.064-2.07,7.551,7.551,0,0,0-1.959-4.747,7.81,7.81,0,0,0-1.992-1.6,9.5,9.5,0,0,0-9.12,0,7.784,7.784,0,0,0-2,1.606,7.555,7.555,0,0,0-1.959,4.746c-.059.7-.074,1.405-.065,2.071-.06-.016-.121-.03-.183-.043a3.331,3.331,0,0,0-.7-.074,2.5,2.5,0,0,0-2.417,1.586,2.544,2.544,0,0,0,.123,2.112A3.687,3.687,0,0,0,24,34.645c.149.1.382.254.675.446.158.1.39.253.616.4a.659.659,0,0,1,.2.2.468.468,0,0,1-.022.4,6.138,6.138,0,0,1-.536.946,8.662,8.662,0,0,1-3.084,2.677c-.7.371-1.43.62-1.737,1.457a1.84,1.84,0,0,0,.509,1.954,2.948,2.948,0,0,0,.744.563,8.042,8.042,0,0,0,1.819.728,1.2,1.2,0,0,1,.367.164c.215.188.184.471.471.886a2.072,2.072,0,0,0,.538.547,3.535,3.535,0,0,0,1.991.468,7.575,7.575,0,0,1,2.215.329,5.665,5.665,0,0,1,1.124.595,8.211,8.211,0,0,0,9.351-.007,5.8,5.8,0,0,1,1.109-.585,7.546,7.546,0,0,1,2.215-.328,3.536,3.536,0,0,0,1.991-.469,2.07,2.07,0,0,0,.613-.669c.206-.35.2-.595.394-.766a1.143,1.143,0,0,1,.345-.158,8.082,8.082,0,0,0,1.844-.734,2.9,2.9,0,0,0,.781-.611l.007-.009a1.817,1.817,0,0,0,.465-1.9m-2.039,1.1c-1.244.687-2.071.613-2.714,1.028-.546.352-.223,1.11-.62,1.384-.488.337-1.93-.024-3.792.591-1.536.508-2.516,1.968-5.279,1.968s-3.72-1.457-5.281-1.972c-1.859-.615-3.3-.254-3.792-.591-.4-.274-.074-1.032-.62-1.384-.644-.414-1.471-.341-2.714-1.024-.792-.437-.343-.708-.079-.836,4.506-2.181,5.225-5.549,5.257-5.8a.8.8,0,0,0-.251-.849c-.322-.3-1.75-1.181-2.146-1.458-.656-.458-.944-.915-.732-1.477A.882.882,0,0,1,25.1,31.3a1.671,1.671,0,0,1,.358.04c.72.156,1.419.517,1.822.614a.644.644,0,0,0,.149.02c.216,0,.291-.109.276-.355a26.3,26.3,0,0,1-.033-3.756,5.956,5.956,0,0,1,1.562-3.816,6.968,6.968,0,0,1,5.328-2.217,6.992,6.992,0,0,1,5.332,2.208,5.943,5.943,0,0,1,1.562,3.816,25.638,25.638,0,0,1-.034,3.756c-.017.259.061.355.277.355a.631.631,0,0,0,.149-.02c.4-.1,1.1-.458,1.823-.614a1.654,1.654,0,0,1,.358-.04.883.883,0,0,1,.892.535c.212.562-.074,1.019-.731,1.477-.4.276-1.824,1.16-2.146,1.458a.8.8,0,0,0-.251.848c.032.254.75,3.622,5.257,5.8.266.133.715.4-.077.845" transform="translate(-14.348 -14.484)"/><g transform="translate(48 11.927)"><g transform="translate(0 0)"><path d="M0,11.362a1.553,1.553,0,0,1,.154-.194.556.556,0,0,1,.895.17,2.423,2.423,0,0,1,.107.337,5.459,5.459,0,0,0,1.9,2.891,3.774,3.774,0,0,0,3.662.624,2.522,2.522,0,0,0,1.736-2.152,1.835,1.835,0,0,0-.909-1.94,13.724,13.724,0,0,0-1.716-.853C5,9.889,4.152,9.584,3.321,9.235A5.968,5.968,0,0,1,1.248,7.887,4,4,0,0,1,.132,5.194,4.7,4.7,0,0,1,.776,2.542,4.634,4.634,0,0,1,3.251.552,7.212,7.212,0,0,1,8.4.605c.089.033.175.073.265.1A.512.512,0,0,0,9.322.518C9.4.416,9.462.3,9.548.2a.539.539,0,0,1,.937.188A1.515,1.515,0,0,1,10.546.7q.217,1.866.43,3.732a.546.546,0,0,1-.4.627.529.529,0,0,1-.659-.336c-.128-.305-.237-.619-.373-.92A4.236,4.236,0,0,0,7.7,1.754a2.831,2.831,0,0,0-2.535-.191,2.327,2.327,0,0,0-1.5,1.963A1.731,1.731,0,0,0,4.44,5.181a6.532,6.532,0,0,0,1.518.772c.959.38,1.926.74,2.882,1.126A6.067,6.067,0,0,1,10.9,8.386a3.94,3.94,0,0,1,1.151,2.677,5.281,5.281,0,0,1-4.216,5.489A7.2,7.2,0,0,1,2.3,15.815a.543.543,0,0,0-.861.222c-.145.238-.286.468-.616.465a.507.507,0,0,1-.55-.406,2.949,2.949,0,0,1-.058-.528C.16,14.506.109,13.442.052,12.379A.681.681,0,0,0,0,12.215v-.853" transform="translate(0 0)" fill="#fff"/><path d="M523.566,96.248h-2.422c-.095,0-.19.007-.285,0a.47.47,0,0,1-.483-.429.493.493,0,0,1,.345-.518c.089-.031.183-.049.274-.075a.74.74,0,0,0,.592-.633,3.316,3.316,0,0,0,.056-.492q0-5.064,0-10.128a4.773,4.773,0,0,0-.08-.811,1.039,1.039,0,0,0-.771-.886.5.5,0,0,1-.429-.493.477.477,0,0,1,.462-.557c.526-.083,1.057-.148,1.578-.255.708-.145,1.409-.319,2.113-.485.475-.112.658,0,.768.468.143.616.325.7.885.364a4.955,4.955,0,0,1,2.57-.724,4.192,4.192,0,0,1,3.882,2.316,4.983,4.983,0,0,1,.613,2.2,5.909,5.909,0,0,1-1.159,4,4.982,4.982,0,0,1-4.481,2.072,3.24,3.24,0,0,1-1.43-.4c-.369-.21-.735.008-.72.472.028.9,0,1.8.013,2.7a2.768,2.768,0,0,0,.078.632.9.9,0,0,0,.674.709,2.432,2.432,0,0,1,.273.079.467.467,0,0,1,.3.474.454.454,0,0,1-.4.39,2.214,2.214,0,0,1-.285.006h-2.529v0m5.643-10.2a5.655,5.655,0,0,0-.231-1.682,3.259,3.259,0,0,0-1.024-1.71,1.477,1.477,0,0,0-2.453.794,3.777,3.777,0,0,0-.069.845c0,1.267.007,2.535.012,3.8a2.989,2.989,0,0,0,.01.355,1.353,1.353,0,0,0,.709,1.23,1.694,1.694,0,0,0,1.756-.15,2.41,2.41,0,0,0,.725-.908,5.878,5.878,0,0,0,.564-2.576" transform="translate(-483.248 -74.71)" fill="#fff"/><path d="M887.984,90.382c-.025.792-.056,1.585-.071,2.377a3.033,3.033,0,0,0,.069.633.555.555,0,0,0,.329.4,3.976,3.976,0,0,0,.432.161c.315.1.471.3.426.559a.485.485,0,0,1-.549.4c-.332,0-.665-.019-1-.019q-1.725,0-3.449,0c-.19,0-.38.019-.57.012a.523.523,0,0,1-.188-1c.63-.163.748-.626.747-1.171,0-1.054,0-2.108-.013-3.162-.006-.556-.029-1.112-.059-1.667a3.356,3.356,0,0,0-.1-.664,1.325,1.325,0,0,0-1.588-.984,2.436,2.436,0,0,0-1.18.46.627.627,0,0,0-.311.592c.025.6.044,1.206.049,1.81.009,1.078.006,2.155.009,3.233,0,.237,0,.475.017.71a.859.859,0,0,0,.625.853.638.638,0,0,1,.344.276.486.486,0,0,1-.448.722c-.439.005-.878-.022-1.317-.022-1.138,0-2.276,0-3.413.007-.142,0-.286.017-.427.007a.461.461,0,0,1-.451-.38.469.469,0,0,1,.312-.566c.1-.039.207-.053.308-.086a.693.693,0,0,0,.55-.623c.012-.153.039-.306.039-.459,0-1.551.005-3.1,0-4.654a2.945,2.945,0,0,0-.089-.666.987.987,0,0,0-.7-.735.529.529,0,0,1-.409-.355.5.5,0,0,1,.4-.668c.484-.116.973-.21,1.453-.338.664-.177,1.322-.376,1.982-.565l.137-.039c.408-.119.593-.029.748.362s.361.468.75.285a11.677,11.677,0,0,1,1.329-.591,4.474,4.474,0,0,1,3.132.1,3.062,3.062,0,0,1,1.98,2.412A7.959,7.959,0,0,1,887.968,89c-.01.462,0,.924,0,1.386h.018" transform="translate(-813.409 -78.556)" fill="#fff"/><path d="M176.724,90.519c0-.746,0-1.493,0-2.239a4.794,4.794,0,0,0-.052-.528,1.079,1.079,0,0,0-.8-.978.463.463,0,0,1-.363-.57c.025-.243.145-.372.441-.433a34.49,34.49,0,0,0,3.574-.946c.376-.12.572-.011.719.362.162.412.374.494.775.275a6.252,6.252,0,0,1,1.813-.713,4.531,4.531,0,0,1,2.782.31,3.008,3.008,0,0,1,1.814,2.344,10.346,10.346,0,0,1,.149,1.551c.02.983,0,1.967-.008,2.95,0,.331-.035.662-.042.993a3.307,3.307,0,0,0,.04.422.717.717,0,0,0,.522.613c.1.037.205.059.307.093a.5.5,0,0,1,.4.516.478.478,0,0,1-.52.43c-.344,0-.689-.018-1.033-.019q-1.707,0-3.415,0c-.2,0-.4.021-.605.013a.479.479,0,0,1-.491-.426.535.535,0,0,1,.306-.583c.086-.04.18-.063.266-.1a.671.671,0,0,0,.417-.536,4.034,4.034,0,0,0,.066-.6q-.027-2.38-.071-4.76a2.706,2.706,0,0,0-.089-.6,1.3,1.3,0,0,0-1.573-1.051,2.392,2.392,0,0,0-1.217.462.62.62,0,0,0-.3.562c.026,1.883.044,3.766.066,5.649a1.529,1.529,0,0,0,.017.248.837.837,0,0,0,.591.727c.333.107.418.246.406.54a.44.44,0,0,1-.469.469c-.439,0-.879-.02-1.318-.021-1.138,0-2.276,0-3.415.005-.154,0-.31.02-.463.007a.452.452,0,0,1-.433-.4.461.461,0,0,1,.3-.541c.1-.04.206-.054.307-.087a.688.688,0,0,0,.561-.649c.007-.177.044-.353.045-.529.005-.746,0-1.493,0-2.239" transform="translate(-162.982 -78.62)" fill="#fff"/><path d="M374.814,90c-.023,1.017-.052,2.035-.066,3.052a2.728,2.728,0,0,0,.074.667.458.458,0,0,0,.733.321c.053-.027.1-.063.154-.089a.471.471,0,0,1,.632.118.452.452,0,0,1-.068.637,4.388,4.388,0,0,1-1.712,1.116,2.8,2.8,0,0,1-2.433-.2,3.535,3.535,0,0,1-.65-.544c-.272-.264-.425-.3-.75-.1a6.878,6.878,0,0,1-2.461.984,4.256,4.256,0,0,1-1.623-.028,2.206,2.206,0,0,1-1.542-3.1A3.388,3.388,0,0,1,366.35,91.4a9.773,9.773,0,0,1,3.087-1.329c.378-.1.762-.175,1.142-.266s.439-.175.44-.566,0-.805-.013-1.208a1.1,1.1,0,0,0-1-1.183,1.282,1.282,0,0,0-1.625,1.154,3.338,3.338,0,0,1-.15.8,1.31,1.31,0,0,1-1.345.912,1.265,1.265,0,0,1-1.322-.931,1.522,1.522,0,0,1,.387-1.446,4.341,4.341,0,0,1,1.612-1.142,9.422,9.422,0,0,1,4.365-.807,4.343,4.343,0,0,1,1.487.32,2.121,2.121,0,0,1,1.38,2.012c.03.757.006,1.515.006,2.273h.012m-4.292.952c-.244.1-.55.193-.833.333a1.562,1.562,0,0,0-.94,1.767,1.021,1.021,0,0,0,.77.917,2.282,2.282,0,0,0,.776,0,.753.753,0,0,0,.713-.883c0-.52-.008-1.041,0-1.561.006-.288-.093-.481-.488-.57" transform="translate(-338.876 -79.288)" fill="#fff"/><path d="M767.9,6.791c1.555,0,3.11,0,4.664,0,.391,0,.782-.035,1.173-.051a1.3,1.3,0,0,1,.284.011.528.528,0,0,1,.455.513.509.509,0,0,1-.451.548c-.139.028-.28.047-.42.075a.9.9,0,0,0-.779.77,7.271,7.271,0,0,0-.128,1.161q-.014,4.069,0,8.138c0,.7.033,1.4.061,2.094a3.937,3.937,0,0,0,.085.668.91.91,0,0,0,.674.711c.147.044.3.061.452.1a.568.568,0,0,1,.48.575.547.547,0,0,1-.586.5c-.415-.005-.829-.053-1.244-.055q-2.031-.011-4.061,0c-.4,0-.805.053-1.208.055a.511.511,0,0,1-.536-.631.529.529,0,0,1,.427-.426c.125-.036.254-.055.382-.082a.91.91,0,0,0,.753-.759,5.593,5.593,0,0,0,.138-1.088q.016-4.9,0-9.808a8.723,8.723,0,0,0-.069-.956.971.971,0,0,0-.921-.962,2.79,2.79,0,0,1-.313-.064.533.533,0,0,1-.43-.569.564.564,0,0,1,.544-.516c.189-.015.38,0,.57,0,0,.018,0,.035,0,.053" transform="translate(-712.096 -6.253)" fill="#fff"/><path d="M1066.174,90.092a5.1,5.1,0,0,0,.649,2.7,3.236,3.236,0,0,0,1.023,1.117,2.335,2.335,0,0,0,2.37.185,7.572,7.572,0,0,0,.936-.575c.06-.038.107-.094.166-.134a.576.576,0,0,1,.8.086.585.585,0,0,1-.037.8,5.793,5.793,0,0,1-1.286,1,6.6,6.6,0,0,1-3.957.92,5.524,5.524,0,0,1-3.511-1.541,4.874,4.874,0,0,1-1.445-2.789,5.148,5.148,0,0,1,.377-3.087,5.234,5.234,0,0,1,2.606-2.518,7.083,7.083,0,0,1,3.213-.652,6.213,6.213,0,0,1,2.715.625,3,3,0,0,1,1.16.971,1.558,1.558,0,0,1-.344,2.205,1.44,1.44,0,0,1-2.073-.532c-.139-.274-.256-.56-.385-.84a2.764,2.764,0,0,0-.672-.95,1.018,1.018,0,0,0-1.417.021,2.525,2.525,0,0,0-.653,1.2,5.515,5.515,0,0,0-.235,1.776" transform="translate(-986.069 -79.504)" fill="#fff"/><path d="M1222.1,177.065a2.062,2.062,0,0,1,2.052,2.067,2.058,2.058,0,1,1-2.052-2.067" transform="translate(-1133.016 -164.436)" fill="#fff"/></g></g></g></svg>