<svg xmlns="http://www.w3.org/2000/svg" xmlns:xlink="http://www.w3.org/1999/xlink" width="122.932" height="35.77" viewBox="0 0 122.932 35.77"><defs><clipPath id="a"><rect width="122.932" height="35.77" fill="none"/></clipPath></defs><g clip-path="url(#a)"><path d="M629.586,119.494l6.276,9.068c-.234.012-.372.026-.511.026-1.295,0-2.589-.011-3.884.009a.747.747,0,0,1-.7-.372c-1.236-1.783-2.486-3.557-3.732-5.334-.108-.154-.222-.3-.367-.5-.428.391-.84.741-1.214,1.126a.751.751,0,0,0-.129.478c-.01,1.308-.006,2.616-.006,3.924v.542h-4.49V109.681H625.3v8.665c.211-.191.34-.3.459-.417,1.227-1.212,2.457-2.421,3.673-3.643a.966.966,0,0,1,.758-.308c1.486.013,2.973.006,4.459.006h.425l.065.1-5.556,5.408" transform="translate(-561.213 -99.149)" fill="#fff"/><path d="M1128.19,118.324a2,2,0,0,1,.262-.457q1.844-1.848,3.713-3.672a.934.934,0,0,1,.569-.266c1.614-.021,3.229-.011,4.843-.01.062,0,.124.016.306.041l-5.613,5.467,6.276,9.066c-.236.013-.374.027-.512.028-1.295,0-2.589-.011-3.884.009a.748.748,0,0,1-.7-.374c-1.255-1.81-2.523-3.61-3.788-5.412-.091-.13-.188-.255-.314-.424-.426.389-.849.749-1.234,1.145a.758.758,0,0,0-.118.482c-.009,1.292-.005,2.584-.005,3.877v.56h-4.493V109.607h4.463v8.554l.232.163" transform="translate(-1015.613 -99.082)" fill="#fff"/><path d="M406.892,128.472h-4.658V113.633h-4.551V109.69h14.18l-1.278,4.029h-3.693Z" transform="translate(-359.496 -99.157)" fill="#fff"/><path d="M793.067,113.541h-4.544v-3.935h14.171l-1.28,4.034h-3.706v14.755h-4.642Z" transform="translate(-712.806 -99.081)" fill="#fff"/><rect width="4.45" height="12.77" transform="translate(53.213 16.538)" fill="#fff"/><path d="M558.3,111.571a2.235,2.235,0,0,1-2.265,2.235,2.24,2.24,0,1,1,.007-4.479,2.234,2.234,0,0,1,2.258,2.244" transform="translate(-500.606 -98.829)" fill="#fff"/><path d="M12.308,132.543v-1.4a10.837,10.837,0,0,0-7.677,19.62,10.836,10.836,0,0,1,7.677-18.225" transform="translate(0 -118.458)" fill="#87f1e9" fill-rule="evenodd"/><path d="M93.037,29.878a4.956,4.956,0,0,0,4.944-4.768L97.99,1.5H102.3a8.187,8.187,0,0,1-.139-1.5H96.273l-.01,23.616a4.943,4.943,0,0,1-7.241,4.2,4.946,4.946,0,0,0,4.015,2.065M110.364,9.511V8.2A8.146,8.146,0,0,1,105.9,6.871a8.2,8.2,0,0,0,4.465,2.64" transform="translate(-80.474)" fill="#87f1e9" fill-rule="evenodd"/><path d="M80.9,20.952a8.162,8.162,0,0,1-2.016-5.374H77.307A8.213,8.213,0,0,0,80.9,20.952M66.322,32.558a4.951,4.951,0,0,0-2.3,9.338,4.946,4.946,0,0,1,4.016-7.843,4.865,4.865,0,0,1,1.462.229V28.267a10.788,10.788,0,0,0-1.462-.106c-.086,0-.17,0-.256.007v4.621a4.868,4.868,0,0,0-1.462-.229" transform="translate(-55.476 -14.082)" fill="#da004f" fill-rule="evenodd"/><path d="M73.481,99.038v4.58a14.015,14.015,0,0,1-8.2-2.636v11.975a10.836,10.836,0,0,1-17.061,8.88A10.839,10.839,0,0,0,67,114.452V102.477a14.015,14.015,0,0,0,8.2,2.636V99.22a8.182,8.182,0,0,1-1.718-.183" transform="translate(-43.592 -89.527)" fill="#da004f" fill-rule="evenodd"/><path d="M37.865,37.512V25.537a14.012,14.012,0,0,0,8.2,2.636v-4.58a8.2,8.2,0,0,1-4.464-2.64A8.213,8.213,0,0,1,38,15.579H33.69l-.009,23.615a4.944,4.944,0,0,1-8.959,2.7,4.951,4.951,0,0,1,2.3-9.338,4.852,4.852,0,0,1,1.462.229V28.168A10.836,10.836,0,0,0,20.8,46.393a10.837,10.837,0,0,0,17.061-8.881" transform="translate(-16.173 -14.083)" fill="#fff" fill-rule="evenodd"/><path d="M1029.407,153.369a7.732,7.732,0,0,1-7.732,7.732c-.213,0-.425-.009-.634-.026a7.732,7.732,0,0,0,0-15.413c.208-.017.421-.026.634-.026a7.732,7.732,0,0,1,7.732,7.733" transform="translate(-922.997 -131.652)" fill="#da004f"/><path d="M928.449,161.072q-.328.029-.665.029a7.732,7.732,0,1,1,0-15.465q.337,0,.665.029a7.732,7.732,0,0,0,0,15.407" transform="translate(-831.705 -131.652)" fill="#87f1e9"/><path d="M942.278,145.662c-.208-.017-.421-.026-.634-.026s-.447.01-.665.029a7.732,7.732,0,0,0,0,15.407c.219.019.442.029.665.029s.425-.009.634-.026a7.732,7.732,0,0,0,0-15.413m-.634,11.452a3.745,3.745,0,1,1,3.745-3.745,3.746,3.746,0,0,1-3.745,3.745" transform="translate(-844.234 -131.652)" fill="#fff"/></g></svg>