<svg xmlns="http://www.w3.org/2000/svg" xmlns:xlink="http://www.w3.org/1999/xlink" width="120.281" height="26.852" viewBox="0 0 120.281 26.852"><defs><clipPath id="a"><rect width="120.281" height="26.852" fill="none"/></clipPath></defs><g transform="translate(0 0)"><g transform="translate(0 0)" clip-path="url(#a)"><path d="M171.788,41.28a4.178,4.178,0,0,1-1.619-2.387,15.62,15.62,0,0,1-.48-4.307V32.146a14.158,14.158,0,0,1,.548-4.362,4.377,4.377,0,0,1,1.715-2.4,5.553,5.553,0,0,1,3.059-.754A5.215,5.215,0,0,1,178,25.4a4.4,4.4,0,0,1,1.646,2.4,14.726,14.726,0,0,1,.521,4.348v2.441a14.976,14.976,0,0,1-.507,4.321,4.243,4.243,0,0,1-1.646,2.387,6.748,6.748,0,0,1-6.227-.014m4.252-2.633a8.2,8.2,0,0,0,.315-2.688V30.719a8.11,8.11,0,0,0-.315-2.648,1.129,1.129,0,0,0-1.111-.837,1.113,1.113,0,0,0-1.083.837,8.093,8.093,0,0,0-.315,2.648v5.239a8.537,8.537,0,0,0,.3,2.688,1.1,1.1,0,0,0,1.1.823,1.127,1.127,0,0,0,1.111-.823" transform="translate(-116.108 -16.852)" fill="#ffffff"/><path d="M352.831,34.654v.85a22.357,22.357,0,0,0,.1,2.428,2.3,2.3,0,0,0,.4,1.18,1.132,1.132,0,0,0,.933.37,1.174,1.174,0,0,0,1.166-.658,5.74,5.74,0,0,0,.343-2.195l3.264.192a5.139,5.139,0,0,1,.027.6,4.46,4.46,0,0,1-1.276,3.484,5.194,5.194,0,0,1-3.607,1.152,4.294,4.294,0,0,1-3.923-1.756,10.282,10.282,0,0,1-1.125-5.431V31.938q0-3.785,1.166-5.527a4.445,4.445,0,0,1,3.991-1.742,5.274,5.274,0,0,1,2.99.713,3.829,3.829,0,0,1,1.468,2.222,16.06,16.06,0,0,1,.425,4.17v2.88Zm.48-7.077a2.313,2.313,0,0,0-.384,1.166,22.713,22.713,0,0,0-.1,2.455V32.4H355.6V31.2a20.451,20.451,0,0,0-.11-2.455,2.348,2.348,0,0,0-.4-1.179,1.1,1.1,0,0,0-.891-.343,1.079,1.079,0,0,0-.892.357" transform="translate(-238.886 -16.88)" fill="#ffffff"/><path d="M137.809,21.59,133.5,6.036h3.758l1.509,7.05q.576,2.606.851,4.444h.11q.192-1.317.85-4.417l1.564-7.077H145.9L141.54,21.59v7.462h-3.731Z" transform="translate(-91.347 -4.13)" fill="#ffffff"/><path d="M219.354,25.672V42.488h-2.963l-.329-2.057h-.082a3.873,3.873,0,0,1-3.621,2.332,2.844,2.844,0,0,1-2.469-1.1,5.89,5.89,0,0,1-.8-3.429V25.672h3.786V38.017a3.768,3.768,0,0,0,.247,1.6.854.854,0,0,0,.823.48,1.678,1.678,0,0,0,.946-.3,1.87,1.87,0,0,0,.672-.768V25.672Z" transform="translate(-143.07 -17.566)" fill="#ffffff"/><path d="M280.85,25.672V42.488h-2.963l-.329-2.057h-.082a3.873,3.873,0,0,1-3.621,2.332,2.844,2.844,0,0,1-2.469-1.1,5.89,5.89,0,0,1-.8-3.429V25.672h3.786V38.017a3.767,3.767,0,0,0,.247,1.6.854.854,0,0,0,.823.48,1.678,1.678,0,0,0,.946-.3,1.869,1.869,0,0,0,.672-.768V25.672Z" transform="translate(-185.148 -17.566)" fill="#ffffff"/><path d="M249.852,9.083h-3.758V29.053h-3.7V9.083h-3.758V6.038h11.22Z" transform="translate(-163.281 -4.131)" fill="#ffffff"/><path d="M320.559,13.081a4.326,4.326,0,0,0-1.111-2.3,2.985,2.985,0,0,0-2.112-.713,3.5,3.5,0,0,0-1.948.59,4.006,4.006,0,0,0-1.4,1.55h-.028V3.343h-3.648V27.209h3.127l.384-1.591h.082a3.211,3.211,0,0,0,1.317,1.344,3.9,3.9,0,0,0,1.948.494A2.981,2.981,0,0,0,320,25.687a12.735,12.735,0,0,0,.905-5.528V17.5a22.107,22.107,0,0,0-.343-4.417m-3.47,6.859a21.274,21.274,0,0,1-.151,2.88,3.112,3.112,0,0,1-.507,1.481,1.173,1.173,0,0,1-.96.439,1.752,1.752,0,0,1-.864-.219,1.65,1.65,0,0,1-.645-.658V14.317a2.391,2.391,0,0,1,.658-1.125,1.457,1.457,0,0,1,1.015-.439,1.023,1.023,0,0,1,.892.452,3.482,3.482,0,0,1,.439,1.523,28.374,28.374,0,0,1,.124,3.045Z" transform="translate(-212.328 -2.288)" fill="#ffffff"/><path d="M37.559,4.193A4.8,4.8,0,0,0,34.167.8C31.176,0,19.18,0,19.18,0s-12,0-14.987.8A4.8,4.8,0,0,0,.8,4.193C0,7.185,0,13.426,0,13.426s0,6.241.8,9.233a4.8,4.8,0,0,0,3.392,3.392c2.992.8,14.987.8,14.987.8s12,0,14.987-.8a4.8,4.8,0,0,0,3.392-3.392c.8-2.992.8-9.233.8-9.233s0-6.242-.8-9.233" transform="translate(0 0)" fill="#ffffff"/><path d="M48.594,35.805V24.3l9.966,5.754Z" transform="translate(-33.25 -16.625)" fill="#000"/></g></g></svg>