<svg xmlns="http://www.w3.org/2000/svg" xmlns:xlink="http://www.w3.org/1999/xlink" width="496.394" height="734.234" viewBox="0 0 496.394 734.234"><defs><clipPath id="a"><rect width="496.394" height="734.234" fill="none"/></clipPath></defs><g transform="translate(0 0.002)"><g transform="translate(0 -0.002)" clip-path="url(#a)"><path d="M2.732,1050.752,280.31,1170.3a16.9,16.9,0,0,0,11.538.668l201.027-60.207a4.933,4.933,0,0,0,.521-9.263L212.817,981.76a12.462,12.462,0,0,0-8.507-.464l-201.1,60.982a4.519,4.519,0,0,0-.476,8.475" transform="translate(0 -437.446)"/><path d="M2.732,957.4,280.31,1076.944a16.9,16.9,0,0,0,11.538.668l201.027-60.207a4.933,4.933,0,0,0,.521-9.264L212.817,888.4a12.462,12.462,0,0,0-8.507-.464L3.208,948.92a4.519,4.519,0,0,0-.476,8.475" transform="translate(0 -395.806)" fill="#111"/><path d="M2.732,851.026,280.31,970.576a16.9,16.9,0,0,0,11.538.668l201.027-60.207a4.933,4.933,0,0,0,.521-9.263L212.817,782.034a12.462,12.462,0,0,0-8.507-.464L3.208,842.551a4.519,4.519,0,0,0-.476,8.475" transform="translate(0 -348.363)" fill="#282828"/><path d="M2.732,740.918,280.31,860.468a16.9,16.9,0,0,0,11.538.668l201.027-60.207a4.933,4.933,0,0,0,.521-9.263L212.817,671.926a12.462,12.462,0,0,0-8.507-.464L3.208,732.443a4.519,4.519,0,0,0-.476,8.475" transform="translate(0 -299.251)" fill="#999"/><path d="M2.732,642.632,280.31,762.182a16.9,16.9,0,0,0,11.538.668l201.027-60.207a4.933,4.933,0,0,0,.521-9.264L212.817,573.64a12.462,12.462,0,0,0-8.507-.464L3.208,634.157a4.519,4.519,0,0,0-.476,8.475" transform="translate(0 -255.413)" fill="#b7b7b7"/><path d="M529.083,218.741,435.943,98.806c-11.68-15.041-28.159-16.246-34.033-2.49-5.8,13.579,1.624,35.028,15.454,44.655Z" transform="translate(-178.377 -38.678)" fill="#fff"/><path d="M526.378,305.477,412.932,281.569c-14.146-2.981-22.672,11.562-17.6,30.018,4.99,18.152,20.7,31.129,32.75,27.061Z" transform="translate(-175.672 -125.413)" fill="#fff"/><path d="M574.839,325.04,506.977,410.7c-8.646,10.914-4.27,33.178,9.02,45.9,13.078,12.514,28.311,9.551,31.712-6.17Z" transform="translate(-224.133 -144.976)" fill="#fff"/><path d="M633.076,325.04l17.61,145.74c2.244,18.568,17.2,35.231,30.823,34.348,13.409-.869,18.873-18.329,11.375-36.35Z" transform="translate(-282.37 -144.976)" fill="#fff"/><path d="M633.076,325.04l93.069,119.192C738,459.418,754.671,460.5,760.5,446.467c5.74-13.812-1.883-35.433-15.87-45.013Z" transform="translate(-282.37 -144.976)" fill="#fff"/><path d="M633.076,295.918l112.946,22.647c14.389,2.885,22.932-12.1,17.608-30.886h0c-5.239-18.488-21.329-31.487-33.5-27.06Z" transform="translate(-282.37 -115.854)" fill="#fff"/><path d="M633.076,211.608l66.462-87.47c8.467-11.144,3.84-33.427-9.539-45.933-13.166-12.308-28.285-9.018-31.475,6.85Z" transform="translate(-282.37 -31.544)" fill="#fff"/><path d="M550.821,191.123,490.392,47.092c-7.535-17.96-24.361-27.389-34.731-19.464-10.2,7.795-9.1,28.559,2.288,43.3Z" transform="translate(-200.115 -11.06)" fill="#6e2dd4"/><path d="M520.764,259.225l-111.743-77.44c-13.934-9.656-27.373-2.382-27.741,15.015-.362,17.11,12.125,35.578,26.038,38.511Z" transform="translate(-170.058 -79.161)" fill="#6e2dd4"/><path d="M545,325.04l-98.394,33.024c-12.34,4.142-14.729,23.889-4.936,40.784,9.667,16.678,26.431,22.307,34.9,11.719Z" transform="translate(-194.297 -144.976)" fill="#6e2dd4"/><path d="M610.542,325.04,583.227,450.3c-3.48,15.959,6.976,37.048,21.554,43.473,14.346,6.322,25.566-4.722,23.359-22.994Z" transform="translate(-259.836 -144.976)" fill="#6e2dd4"/><path d="M633.076,325.04,692.826,468.8c7.612,18.315,24.753,27.994,35.332,19.951,10.411-7.915,9.287-29.092-2.341-44.089Z" transform="translate(-282.37 -144.976)" fill="#6e2dd4"/><path d="M633.076,325.04,744.564,401.8c14.2,9.779,27.846,2.257,28.122-15.506.271-17.479-12.561-36.214-26.715-39Z" transform="translate(-282.37 -144.976)" fill="#6e2dd4"/><path d="M633.076,249.5l96.962-35.525c12.354-4.526,14.422-24.733,4.264-41.653h0c-10-16.651-26.89-21.844-35.172-10.812Z" transform="translate(-282.37 -69.439)" fill="#6e2dd4"/><path d="M617.294,187.122l25.668-126.4c3.27-16.1-7.388-37.084-21.971-43.246-14.351-6.064-25.381,5.258-22.966,23.572Z" transform="translate(-266.588 -7.058)" fill="#6e2dd4"/><path d="M581.345,180.062,562.643,34.1C560.26,15.5,545.224-1.018,531.649.047,518.289,1.094,512.981,18.681,520.6,36.66Z" transform="translate(-230.639 0.002)" fill="#fff"/><path d="M531.7,241.409c-1.177,37.56,23.022,79.311,54.052,93.255s57.139-5.2,58.316-42.76-23.023-79.311-54.053-93.255-57.138,5.2-58.315,42.76" transform="translate(-237.137 -86.57)" fill="#6e2dd4"/><path d="M558.911,288.012c12.253,27.4,46.446,72.821,80.782,36.555-27.658-49.209-59.329-53.423-80.782-36.555" transform="translate(-249.291 -124.466)" fill="#fff"/><path d="M598.52,305.143c-.385,12.28,7.526,25.93,17.671,30.489s18.681-1.7,19.066-13.98-7.527-25.93-17.672-30.489-18.68,1.7-19.065,13.98" transform="translate(-266.951 -129.202)" fill="#6e2dd4"/><path d="M609.937,314.559c-.253,8.053,4.936,17,11.589,19.995s12.251-1.115,12.5-9.168-4.936-17-11.589-19.994-12.25,1.115-12.5,9.168" transform="translate(-272.046 -135.777)" fill="#321460"/><path d="M397.132,750.492l84.278-25.508a4.533,4.533,0,0,0,.456-8.511L282.925,632.1a12.473,12.473,0,0,0-8.185-.542L170.564,660.279a1.842,1.842,0,0,0-.207,3.481l210.295,85.956a24.673,24.673,0,0,0,16.481.776" transform="translate(-75.473 -281.493)" fill="#50219a"/><path d="M163.49,559.464l218.393,89.657a5.816,5.816,0,0,0,8.024-5.492l-2.78-144.963a19.51,19.51,0,0,0-12.31-17.76L167.638,398.685a7.423,7.423,0,0,0-10.16,7.032l2.643,148.818a5.433,5.433,0,0,0,3.369,4.93" transform="translate(-70.239 -177.587)" fill="#6e2dd4"/></g></g></svg>