<svg xmlns="http://www.w3.org/2000/svg" xmlns:xlink="http://www.w3.org/1999/xlink" width="638.474" height="723.237" viewBox="0 0 638.474 723.237"><defs><clipPath id="a"><rect width="638.474" height="723.237" fill="none"/></clipPath></defs><g clip-path="url(#a)"><path d="M612.229,1046.71C614.4,1040.189,773.253,710.5,773.253,710.5l21.74,336.206Z" transform="translate(-278.729 -323.473)" fill="#232323"/><path d="M546.7,1022.183c2.173-6.521,125.534-365.551,125.534-365.551l41.845,365.551Z" transform="translate(-248.894 -298.947)"/><path d="M331.211,1039.439c2.173-6.521,71.733-344.9,71.733-344.9l84.614,344.9Z" transform="translate(-150.79 -316.203)"/><path d="M29.343,1039.439c2.173-6.521,73.912-344.9,73.912-344.9l129.652,344.9Z" transform="translate(-13.359 -316.203)"/><path d="M766.175,1029.073c2.173-6.521,137.231-357.308,137.231-357.308l72.29,357.308Z" transform="translate(-348.816 -305.836)"/><path d="M370.118,1075.323l124.99-301.969,84.776,301.969Z" transform="translate(-168.503 -352.086)" fill="#232323"/><path d="M230.451,1046.71,282.621,710.5,386.96,1046.71Z" transform="translate(-104.917 -323.473)" fill="#232323"/><path d="M0,1159.661,79.179,958.6l101.241,201.06Z" transform="translate(0 -436.424)" fill="#303030"/><path d="M830.022,1132.7l98.543-233.315,87.792,233.315Z" transform="translate(-377.884 -409.465)" fill="#303030"/><path d="M453.586,1173.882c2.174-6.521,63.038-184.044,63.038-184.044l45.649,184.044Z" transform="translate(-206.504 -450.645)" fill="#424242"/><path d="M297.292,1115.746l27.184-253.6,41.833,253.6Z" transform="translate(-135.348 -392.509)" fill="#424242"/><path d="M586.947,317.984H426.889a10.906,10.906,0,0,0-10.907,10.906V419.4a10.906,10.906,0,0,0,10.907,10.906H478l26.753,39.953a2.607,2.607,0,0,0,4.332,0l26.753-39.953h51.11A10.906,10.906,0,0,0,597.853,419.4V328.89a10.906,10.906,0,0,0-10.906-10.906" transform="translate(-189.384 -144.77)" fill="#6e2dd4"/><path d="M594.139,392.563c-20,27.586-74.315,65.453-124.947.32,44.533-46.34,93.036-33.718,124.947-.32" transform="translate(-213.609 -165.103)" fill="#fff"/><path d="M588.544,399.682a28.409,28.409,0,1,1-28.408-28.408,28.408,28.408,0,0,1,28.408,28.408" transform="translate(-242.079 -169.032)" fill="#6e2dd4"/><path d="M586.938,407.854a18.63,18.63,0,1,1-18.63-18.63,18.63,18.63,0,0,1,18.63,18.63" transform="translate(-250.251 -177.204)" fill="#321460"/><rect width="92.878" height="22.027" transform="translate(420.598 137.773) rotate(-38.028)" fill="#6e2dd4"/><rect width="22.027" height="92.879" transform="translate(449.851 270.171) rotate(-76.722)" fill="#6e2dd4"/><rect width="92.878" height="22.027" transform="matrix(0.973, -0.231, 0.231, 0.973, 91.68, 275.641)" fill="#6e2dd4"/><rect width="22.027" height="92.878" transform="translate(129.69 97.244) rotate(-51.468)" fill="#6e2dd4"/><rect width="92.879" height="22.027" transform="translate(304.139 92.878) rotate(-89.763)" fill="#6e2dd4"/></g></svg>