<svg xmlns="http://www.w3.org/2000/svg" xmlns:xlink="http://www.w3.org/1999/xlink" width="49.744" height="92.114" viewBox="0 0 49.744 92.114"><defs><clipPath id="a"><rect width="49.744" height="92.114" fill="none"/></clipPath></defs><g clip-path="url(#a)"><path d="M49.744,17.121V32.7A32.624,32.624,0,0,1,24.912,21.158,32.628,32.628,0,0,1,0,32.7V17.121A17.14,17.14,0,0,0,17.121,0H32.7A17.144,17.144,0,0,0,49.744,17.121" transform="translate(0 28.005)" fill="none" stroke="#9c9c9c" stroke-width="2"/><path d="M1.18,0V16.328c-.194-.014-.392-.019-.59-.019s-.4,0-.59.019V0Z" transform="translate(24.279 0)" fill="#9c9c9c"/><path d="M0,0H.038V0L.028.024l-.009,0Z" transform="translate(24.874 24.874)" fill="#fc7500"/><path d="M6.5.727.935,7.857A7.746,7.746,0,0,0,0,7.13L5.567,0Z" transform="translate(29.662 10.648)" fill="#9c9c9c"/><path d="M0,0H.038V0L.028.024.019.076,0,.028Z" transform="translate(24.874 24.874)" fill="#fc7500"/><path d="M16.092,1.143.3,5.317A7.135,7.135,0,0,0,0,4.174L15.79,0Z" transform="translate(32.977 17.943)" fill="#9c9c9c"/><path d="M.93,0,6.478,7.111a8.043,8.043,0,0,0-.93.722L0,.727Z" transform="translate(13.627 10.648)" fill="#9c9c9c"/><path d="M.038,0V0L.019.019,0,.028,0,0Z" transform="translate(24.874 24.874)" fill="#fc7500"/><path d="M.3,0,16.049,4.165a7.668,7.668,0,0,0-.3,1.143L0,1.143Z" transform="translate(0.718 17.943)" fill="#9c9c9c"/><path d="M.038,0V0L.028.024.019.076,0,.028,0,0Z" transform="translate(24.874 24.874)" fill="#fc7500"/></g></svg>