<svg
                id="Group_676"
                data-name="Group 676"
                xmlns="http://www.w3.org/2000/svg"
                width="30"
                height="30"
                viewBox="0 0 30 30"
              >
                <circle
                  id="Ellipse_95"
                  data-name="Ellipse 95"
                  cx="15"
                  cy="15"
                  r="15"
                  fill="#fffc00"
                />
                <path
                  id="Icon_awesome-snapchat-ghost"
                  data-name="Icon awesome-snapchat-ghost"
                  d="M17.765,14.2c-.181.423-.947.733-2.343.95a6.523,6.523,0,0,0-.226.833.4.4,0,0,1-.422.308h-.01c-.327,0-.668-.15-1.351-.15a2.752,2.752,0,0,0-1.956.716,3.917,3.917,0,0,1-2.574.953,3.994,3.994,0,0,1-2.534-.953,2.749,2.749,0,0,0-1.956-.716,13.135,13.135,0,0,0-1.351.164.413.413,0,0,1-.432-.314,6.442,6.442,0,0,0-.227-.839C1.663,15.04.042,14.758,0,14.034a.37.37,0,0,1,.309-.385,5.235,5.235,0,0,0,3.555-2.988l.008-.018a.79.79,0,0,0,.086-.652C3.782,9.577,3.024,9.428,2.7,9.3c-.825-.326-.939-.7-.891-.956a.9.9,0,0,1,1.148-.537,1.99,1.99,0,0,0,.819.219.71.71,0,0,0,.346-.075c-.071-1.25-.247-3.036.2-4.033a4.738,4.738,0,0,1,4.4-2.838l.352,0a4.705,4.705,0,0,1,4.407,2.839c.444,1,.269,2.775.2,4.034a.681.681,0,0,0,.3.074,2.078,2.078,0,0,0,.767-.218.941.941,0,0,1,.712,0h0A.722.722,0,0,1,16,8.432c.006.339-.3.632-.9.87-.074.029-.163.058-.259.088-.341.108-.855.271-1,.6a.79.79,0,0,0,.086.652l.008.018A5.234,5.234,0,0,0,17.5,13.649.38.38,0,0,1,17.765,14.2Z"
                  transform="translate(6.332 5.254)"
                  fill="#fff"
                  stroke="#000"
                  stroke-width="1"
                />
              </svg>