<svg xmlns="http://www.w3.org/2000/svg" xmlns:xlink="http://www.w3.org/1999/xlink" width="114.281" height="22.013" viewBox="0 0 114.281 22.013"><defs><clipPath id="a"><rect width="114.281" height="22.013" fill="none"/></clipPath></defs><g clip-path="url(#a)"><path d="M440.5,95.413c-.348-.057-.7-.119-1.044-.171a6.066,6.066,0,0,1-3.684-1.813,5.31,5.31,0,0,1-1.294-2.451,12.6,12.6,0,0,1-.058-5.814,5.5,5.5,0,0,1,4.6-4.346,9.64,9.64,0,0,1,3.985-.007,5.113,5.113,0,0,1,4.216,3.92,11.334,11.334,0,0,1,.315,2.505c.022.578.006,1.157,0,1.735,0,.144-.02.287-.034.482h-9.013a2.441,2.441,0,0,0,.207,1.2,2.173,2.173,0,0,0,1.7,1.478,7.672,7.672,0,0,0,2.481.114,13.945,13.945,0,0,0,3.466-.82c.314.954.564,1.9.817,2.892-.219.1-.413.21-.617.287a11.878,11.878,0,0,1-3.476.73,2,2,0,0,0-.338.079Zm3.186-8.758a3.918,3.918,0,0,0-.336-1.878,1.99,1.99,0,0,0-1.436-1.155,4.142,4.142,0,0,0-.886-.057,2.277,2.277,0,0,0-2.359,1.721,3.512,3.512,0,0,0-.193,1.369Z" transform="translate(-395.296 -73.399)" fill="#3077fb"/><path d="M0,7.5H2.926c.012-.219.028-.378.028-.536,0-.667-.02-1.336.007-2a6.117,6.117,0,0,1,.581-2.668,3.764,3.764,0,0,1,2-1.812A6.86,6.86,0,0,1,7.937.006a18.214,18.214,0,0,1,2.875.141,15.593,15.593,0,0,1,.035,3.232l-.551.029c-.607.031-1.22.02-1.821.1A1.2,1.2,0,0,0,7.349,4.7C7.3,5.6,7.337,6.5,7.337,7.458c1.165.09,2.319-.008,3.526.058l-.314,3.457H7.328v10.6a31.2,31.2,0,0,1-4.335.047c-.012-.173-.036-.358-.036-.542q0-4.738,0-9.477V11.01a13.452,13.452,0,0,0-1.482-.031c-.491-.008-.982,0-1.473-.007Z" transform="translate(0 0)" fill="#3077fb"/><path d="M604.542.742l4.185-.365c.035,1.051.012,2.069.016,3.085s0,2.047,0,3.07V9.687a3.884,3.884,0,0,1,1.7-1.62,5.7,5.7,0,0,1,6.511,1.251,6.409,6.409,0,0,1,1.253,2.435,12.949,12.949,0,0,1,.289,4.762,8.517,8.517,0,0,1-.641,2.577,4.861,4.861,0,0,1-3.935,3.1,7.085,7.085,0,0,1-2.395-.015,4.223,4.223,0,0,1-2.793-1.83.546.546,0,0,0-.251-.214V21.91a25.8,25.8,0,0,1-3.952.057c-.009-.009-.019-.019-.029-.031s-.023-.022-.025-.035a1.342,1.342,0,0,1-.031-.219q0-10.323,0-20.645a.844.844,0,0,1,.022-.175.628.628,0,0,1,.072-.121m4.2,14.152c0,.558-.011.974,0,1.389a2.647,2.647,0,0,0,1.925,2.548,2.585,2.585,0,0,0,3.454-2,10.434,10.434,0,0,0,.116-2.965,4.679,4.679,0,0,0-.2-1.044,2.46,2.46,0,0,0-1.388-1.7,3.264,3.264,0,0,0-1.27-.173,2.527,2.527,0,0,0-2.478,1.924,7.39,7.39,0,0,0-.161,2.021" transform="translate(-550.409 -0.343)" fill="#3077fb"/><path d="M1137.95,21.924l-4.321-6.755a6.91,6.91,0,0,0-.057,1.384c-.012.445,0,.89,0,1.335V20.56c0,.441,0,.883,0,1.308a32.614,32.614,0,0,1-4.274.047c-.115-.325-.133-20.711,0-21.216l4.265-.377V14.363l.092.022,4.142-6.57h4.567l-4.43,7,4.6,7.106Z" transform="translate(-1028.252 -0.293)" fill="#3077fb"/><path d="M138.744,95.243h-4.03V93.411l-.085-.027c-.09.127-.183.252-.271.381a3.973,3.973,0,0,1-3.068,1.754,6.3,6.3,0,0,1-3.151-.422,4.913,4.913,0,0,1-2.542-2.507,9.775,9.775,0,0,1-.827-3.929,11.93,11.93,0,0,1,.361-3.613,5.688,5.688,0,0,1,2.122-3.253,5.016,5.016,0,0,1,2.7-.944,8.61,8.61,0,0,1,1.644.056,3.955,3.955,0,0,1,2.895,1.947.439.439,0,0,0,.2.195V81.212a23,23,0,0,1,4.028-.073l.027.03c.009.011.025.022.027.034a2.431,2.431,0,0,1,.033.307q0,6.786-.009,13.572a.657.657,0,0,1-.054.16m-4.2-6.915c-.04-.609-.05-1.2-.124-1.789a2.54,2.54,0,0,0-1.3-2.056,2.986,2.986,0,0,0-1.605-.265,2.054,2.054,0,0,0-1.81,1.033,4.743,4.743,0,0,0-.439,1.062,8.493,8.493,0,0,0-.191,2.56,4.974,4.974,0,0,0,.361,1.82,2.247,2.247,0,0,0,1.339,1.35,2.639,2.639,0,0,0,3.643-2.051,14.723,14.723,0,0,0,.128-1.664" transform="translate(-113.61 -73.609)" fill="#3077fb"/><path d="M786.021,95.156a7.917,7.917,0,0,1-3.638-.7,5.624,5.624,0,0,1-3.094-3.707,10.638,10.638,0,0,1-.378-2.5,10.147,10.147,0,0,1,.307-3.209,5.729,5.729,0,0,1,4.69-4.406,9.406,9.406,0,0,1,4.892.21,5.715,5.715,0,0,1,3.889,4.129,10.538,10.538,0,0,1,.3,4.007,8.467,8.467,0,0,1-.747,2.819,5.626,5.626,0,0,1-3.784,3.068,7.763,7.763,0,0,1-2.434.281m-2.854-7.335a15.781,15.781,0,0,0,.177,1.943,2.412,2.412,0,0,0,1.785,1.969,2.723,2.723,0,0,0,2.765-.652,3.017,3.017,0,0,0,.857-2.088c.04-.664.027-1.333.008-2a5.423,5.423,0,0,0-.131-1.1,2.646,2.646,0,0,0-3.43-1.971,2.384,2.384,0,0,0-1.862,2,16.643,16.643,0,0,0-.17,1.9" transform="translate(-709.259 -73.227)" fill="#3077fb"/><path d="M960.049,95.178a9.274,9.274,0,0,1-3.405-.669,5.6,5.6,0,0,1-3.324-3.884,10.512,10.512,0,0,1-.005-5.8,5.606,5.606,0,0,1,4.128-4.1,9.25,9.25,0,0,1,5.66.175,5.743,5.743,0,0,1,3.583,3.822,10.577,10.577,0,0,1-.4,7.083,5.7,5.7,0,0,1-4.164,3.111c-.68.139-1.381.176-2.072.259m-2.88-7.392c.079.655.119,1.352.257,2.029a2.334,2.334,0,0,0,1.43,1.765,2.7,2.7,0,0,0,3.8-1.819,8.8,8.8,0,0,0,0-4.008,2.372,2.372,0,0,0-.777-1.322,2.737,2.737,0,0,0-4.479,1.418,16.939,16.939,0,0,0-.23,1.936" transform="translate(-867.72 -73.184)" fill="#3077fb"/><path d="M311.587,81.663l-.991,3.061c-.406-.138-.778-.278-1.158-.389a5.4,5.4,0,0,0-2.816-.105,2.813,2.813,0,0,0-2.21,2.728q-.03,1.134,0,2.269a3.02,3.02,0,0,0,2.907,2.93,6.85,6.85,0,0,0,2.878-.494l.337-.132c.395.973.668,1.966,1.008,2.944a2.076,2.076,0,0,1-.891.505,7.715,7.715,0,0,1-2.487.464,12.14,12.14,0,0,1-3.368-.258,6.159,6.159,0,0,1-2.887-1.514,5.665,5.665,0,0,1-1.512-2.682,12.853,12.853,0,0,1-.3-2.017,13.506,13.506,0,0,1,.029-2.261,6.342,6.342,0,0,1,1.7-4.107,5.942,5.942,0,0,1,2.9-1.573,11.619,11.619,0,0,1,3.985-.221,7.876,7.876,0,0,1,2.037.462c.273.1.532.246.835.389" transform="translate(-273.239 -73.52)" fill="#3077fb"/></g></svg>