<svg id="Group_779" data-name="Group 779" xmlns="http://www.w3.org/2000/svg" xmlns:xlink="http://www.w3.org/1999/xlink" width="120.44" height="34.177" viewBox="0 0 120.44 34.177">
  <defs>
    <clipPath id="clip-path">
      <rect id="Rectangle_433" data-name="Rectangle 433" width="120.44" height="34.177" fill="none"/>
    </clipPath>
  </defs>
  <g id="Group_747" data-name="Group 747" clip-path="url(#clip-path)">
    <path id="Path_816" data-name="Path 816" d="M6.2.118A11.336,11.336,0,0,0,.169,7.725c-1.088,4.637,3.431,6.6,3.794,5.95.431-.755-.814-1.01-1.069-3.421A10.129,10.129,0,0,1,5.835,2.167c.333-.284.324.108.324.843,0,1.3-.069,13-.069,15.439a21.726,21.726,0,0,1-.382,5.382c-.245,1.049-.647,1.755-.343,2.019.333.3,1.784-.422,2.617-1.588a8.682,8.682,0,0,0,1.412-4.9c.078-2.2.069-5.686.078-7.675,0-1.823.029-7.166-.029-10.381C9.423.511,7.237-.313,6.2.118M93.744,15.577a10.138,10.138,0,0,1-.931,4.009C91.9,21.42,90,21.988,89.2,19.351a14.873,14.873,0,0,1-.147-5.842c.323-2.039,1.216-3.588,2.705-3.441,1.47.137,2.147,2.019,1.99,5.509M69.071,26.233c-.02,2.853-.47,5.352-1.431,6.078-1.363,1.029-3.205.255-2.823-1.823.333-1.843,1.931-3.725,4.254-6.019,0,0,.01.52,0,1.764M68.7,15.567a11.132,11.132,0,0,1-.931,4.019c-.912,1.833-2.823,2.4-3.617-.235A13.314,13.314,0,0,1,64,13.744c.343-1.911,1.186-3.676,2.706-3.676,1.47,0,2.2,1.617,1.99,5.5m-14.292-.029a10.188,10.188,0,0,1-.931,4.048c-.941,1.823-2.794,2.4-3.617-.235a14.154,14.154,0,0,1-.147-5.881c.363-2.078,1.274-3.539,2.705-3.4,1.461.147,2.176,2.019,1.99,5.47m65.5,1.931c-.363,0-.52.372-.657.99-.47,2.157-.961,2.647-1.6,2.647-.706,0-1.343-1.068-1.51-3.205a71.39,71.39,0,0,1,.059-7.862c.029-.637-.137-1.255-1.843-1.872-.735-.265-1.794-.657-2.323.618a32.018,32.018,0,0,0-2.215,7.626c-.01.059-.078.069-.1-.069a58.18,58.18,0,0,1-.3-6.176A1.822,1.822,0,0,0,108.5,8.4c-.5-.314-2-.872-2.549-.206a13.652,13.652,0,0,0-1.578,3.715c-.461,1.4-.784,2.343-.784,2.343s.01-3.774.01-5.205a.753.753,0,0,0-.48-.755A9.9,9.9,0,0,0,101.2,7.9c-.52,0-.647.294-.647.716,0,.059-.078,4.97-.078,8.411v.49c-.284,1.578-1.216,3.725-2.235,3.725s-1.49-.9-1.49-4.99c0-2.392.069-3.431.108-5.156.02-1,.059-1.765.059-1.931-.01-.529-.931-.8-1.353-.9a3.95,3.95,0,0,0-1.1-.118.683.683,0,0,0-.706.667v.578A3.962,3.962,0,0,0,91.8,7.8a3.765,3.765,0,0,0-4.343,1.637A9.931,9.931,0,0,0,85.7,14.489a15.04,15.04,0,0,0,.186,4.588c-.353,1.549-1.019,2.176-1.745,2.176-1.059,0-1.823-1.725-1.735-4.7a26.814,26.814,0,0,1,.882-5.323,1.735,1.735,0,0,0-.333-1.715,2.128,2.128,0,0,0-2.117-.343c-.745.176-1.813.363-2.784.51a5.769,5.769,0,0,0,.108-.647c.255-2.166-2.108-1.99-2.853-1.3a2.663,2.663,0,0,0-.872,1.774,2.093,2.093,0,0,0,.951,2.049A21.15,21.15,0,0,1,73.159,17.1a23.6,23.6,0,0,1-1.392,2.186v-.755c-.01-3.588.039-6.4.059-7.421.02-1,.059-1.745.059-1.911-.01-.392-.235-.539-.706-.725a4.946,4.946,0,0,0-1.421-.314c-.647-.078-1.039.265-1.029.667v.549a3.962,3.962,0,0,0-1.961-1.588,3.778,3.778,0,0,0-4.343,1.637,10.768,10.768,0,0,0-1.765,5.029,15.414,15.414,0,0,0,.088,4.313c-.245,1.206-.941,2.47-1.735,2.47-1.01,0-1.588-.9-1.588-4.99,0-2.392.069-3.431.108-5.156.02-1,.059-1.764.059-1.931-.01-.529-.931-.8-1.353-.9a3.848,3.848,0,0,0-1.127-.118.729.729,0,0,0-.667.637v.608a3.962,3.962,0,0,0-1.961-1.588,3.783,3.783,0,0,0-4.343,1.637,9.578,9.578,0,0,0-1.765,5.009,15.676,15.676,0,0,0-.127,2.186c-.314,1.931-1.715,4.166-2.853,4.166-.667,0-1.3-1.294-1.3-4.058,0-3.686.225-8.92.265-9.43,0,0,1.441-.02,1.725-.029.716-.01,1.372.01,2.333-.039.48-.02.941-1.755.451-1.96a16.441,16.441,0,0,0-2.451-.2c-.529-.01-2.01-.118-2.01-.118s.137-3.48.167-3.843c.029-.3-.372-.461-.6-.559A8.465,8.465,0,0,0,40.34.089c-.814-.167-1.176,0-1.245.676-.108,1.039-.167,4.078-.167,4.078-.6,0-2.627-.118-3.215-.118-.549,0-1.147,2.372-.382,2.4.882.029,2.411.059,3.421.1,0,0-.049,5.333-.049,6.97v.51a8.017,8.017,0,0,1-2.529,4.48c.422-1.921-.441-3.372-2-4.6-.569-.451-1.706-1.3-2.97-2.245a7.63,7.63,0,0,0,1.382-2.176c.461-1.029.48-2.206-.647-2.47a3.37,3.37,0,0,0-3.862,2.4,2.8,2.8,0,0,0,.529,2.853c.049.059.108.127.167.2-.421.814-1,1.9-1.49,2.755-1.363,2.353-2.392,4.215-3.166,4.215-.617,0-.617-1.892-.617-3.666,0-1.529.108-3.823.206-6.2a1.727,1.727,0,0,0-1.019-1.637,4.644,4.644,0,0,0-1.745-.735c-.745,0-2.872.1-4.892,5.94-.255.735-.755,2.078-.755,2.078l.039-7.019a.488.488,0,0,0-.284-.431,4.963,4.963,0,0,0-2.059-.559c-.382,0-.578.176-.578.539L12.324,19.41a15.274,15.274,0,0,0,.108,2.235,2.3,2.3,0,0,0,.382.98,1.112,1.112,0,0,0,.667.431c.294.059,1.892.265,1.98-.343a22.862,22.862,0,0,1,.941-4.49c1.3-4.607,3.019-6.852,3.813-7.646.137-.137.3-.147.294.078-.039,1.01-.157,3.529-.235,5.676-.216,5.735.823,6.8,2.313,6.8,1.137,0,2.745-1.137,4.47-4,1.078-1.784,2.117-3.539,2.872-4.8.52.48,1.108,1,1.7,1.559,1.363,1.294,1.813,2.519,1.51,3.686-.225.892-1.078,1.8-2.6.912-.441-.265-.637-.461-1.078-.755a.763.763,0,0,0-.823-.039,2.963,2.963,0,0,0-1.078,1.647c-.176.657.48,1.01,1.157,1.314a9,9,0,0,0,2.657.529c3.137.108,5.656-1.519,7.411-5.7.314,3.607,1.647,5.656,3.97,5.656,1.549,0,3.107-2,3.784-3.97a6.958,6.958,0,0,0,.853,2.088c1.784,2.833,5.254,2.225,6.989-.186a4.369,4.369,0,0,0,.618-1.01,3.274,3.274,0,0,0,3.127,3.058c1.176,0,2.382-.549,3.225-2.46a5.664,5.664,0,0,0,.323.588c1.784,2.833,5.254,2.215,6.989-.186.078-.108.157-.216.216-.3l.049,1.49-1.6,1.47c-2.686,2.46-4.725,4.333-4.872,6.5-.2,2.774,2.058,3.8,3.754,3.941a4.782,4.782,0,0,0,4.3-2.255c.833-1.225,1.382-3.872,1.343-6.489-.02-1.049-.039-2.372-.059-3.8a31.154,31.154,0,0,0,2.98-4.1,31.086,31.086,0,0,0,2.794-5.98s.99.01,2.049-.059c.343-.02.441.049.372.294-.078.3-1.333,5.166-.186,8.411a4.065,4.065,0,0,0,3.617,2.931A3.6,3.6,0,0,0,86.471,20.8a4.708,4.708,0,0,0,.245.441c1.784,2.833,5.235,2.215,6.989-.186a7.242,7.242,0,0,0,.618-1.01,3.4,3.4,0,0,0,3.245,3.078c1.088,0,2.127-.451,2.96-2.431a9.263,9.263,0,0,0,.177,1.813c.049.137.363.314.588.392a4.453,4.453,0,0,0,2.392.118c.265-.049.461-.265.49-.8a31.217,31.217,0,0,1,.461-5.568,16.353,16.353,0,0,1,1.715-4.7c.176-.324.382-.373.392-.039.02.686.049,2.7.324,5.391a12.5,12.5,0,0,0,.686,3.529,1.942,1.942,0,0,0,1.951,1.108c.382,0,1.186-.108,1.117-.784a21.582,21.582,0,0,1,.735-5.293,24.715,24.715,0,0,1,1.519-4.264c.108-.235.147-.049.147-.01a38.782,38.782,0,0,0,.343,7.969c.725,3.186,2.833,3.549,3.558,3.549,1.559,0,2.843-1.186,3.274-4.323.127-.725-.029-1.314-.49-1.314" transform="translate(0 0)" fill="#fff"/>
  </g>
</svg>
